<svg id="Ebene_1" data-name="Ebene 1" xmlns="http://www.w3.org/2000/svg" viewBox="0 0 86.79 92.78"><defs><style>.cls-1{fill:none;}.cls-2{fill:#0d0c18;}.cls-3{fill:#5fb423;}.cls-4{fill:#bbd824;}</style></defs><path class="cls-1" d="M136.92,55.25a6.12,6.12,0,0,0-1.21,0,7.46,7.46,0,0,0-1.6.33,7.46,7.46,0,0,1,1.6-.33A6.12,6.12,0,0,1,136.92,55.25Z" transform="translate(-90.21 -1.22)"/><path class="cls-2" d="M161.64,75.59c-.27-3.71-1.43-7.87-4.28-10.93l-.19-.16a1.9,1.9,0,0,0,.24-1.07,5.37,5.37,0,0,0-1.8-3.23,14,14,0,0,0-6.45-3.7,9,9,0,0,0-1.72-.08,3.89,3.89,0,0,0-2.56,1.1c-.22.27-.54.1-.74-.1A14.7,14.7,0,0,0,139,54.49s-7.86.41-10.79,2.56a8.41,8.41,0,0,0-.86.72c-.61.54-1.15,1.16-1.77,1.67a7.42,7.42,0,0,0-1.6-.84,5.93,5.93,0,0,0-4.5,1,15.13,15.13,0,0,0-5.16,5.29,4.12,4.12,0,0,0-.59,2,2.58,2.58,0,0,0,.2,1.38l0,0c-2.78,3.36-3.52,7.86-3.36,11.74a5.09,5.09,0,0,0-.83,3.81c.4,2.44,1.3,5.81,4.8,5.63,4.78-.24,2.59-3.18,3.18-3.34.39-.1,1.5-.75,1.14-1.82a8.82,8.82,0,0,0-2.24-3.54c-.64-.91-.34-6.31,1.51-8.6l.47-.11a.77.77,0,0,1,0,.15,14.81,14.81,0,0,0-.73,6,6.65,6.65,0,0,0,1.7,2.85,22.88,22.88,0,0,0,4.15,3.16c.27.55.39,1.18.69,1.73A14.14,14.14,0,0,0,126.47,89c2.41,2.8,5.69,4.89,9.24,5,3.72.06,7.19-2.14,9.74-5a12.81,12.81,0,0,0,2.63-4.74c0-.17.21-.23.33-.33a19.48,19.48,0,0,0,4.35-3.52A4.35,4.35,0,0,0,154,77.53a15.17,15.17,0,0,0-.19-3.3A29.08,29.08,0,0,0,152,68.49c-.32-.64-.6-1.3-.86-2a4.63,4.63,0,0,1,.42.32l0-.07c2.09,2,4.62,7.48,4.58,9.95l0,.52-.19.21a9.15,9.15,0,0,0-1.76,3.83c-.14.68.2,1.43,1.28,1.85.32.13.18.52.18.52s-1.31,2.55,3.43,2.06c3.47-.36,3.94-3.82,4-6.28A4.89,4.89,0,0,0,161.64,75.59ZM118.46,69a5.12,5.12,0,0,1-.67,0h-.11l-.44,0a5,5,0,0,1-.53-.12l-.15,0a1.67,1.67,0,0,1-.18-.05,2.82,2.82,0,0,1-1.21-.9,1.06,1.06,0,0,1-.18-.35,1.21,1.21,0,0,1-.06-.38,1.34,1.34,0,0,1,.23-.76c1.1-1.68,4.13-5.85,7.24-6.14a3.33,3.33,0,0,1,.83,0,3.38,3.38,0,0,1,1.3.46l-.64,1.09c-.15.25-.32.53-.49.83-1.26,2.1-3.17,5.26-3.63,5.82h0l-.08.07-.2.14a1.07,1.07,0,0,1-.19.07l-.26.11-.4.08-.18,0Zm27.46,17.26c-.25.35-.56.76-.95,1.21a15.37,15.37,0,0,1-1.46,1.45,14.35,14.35,0,0,1-1.15.91l-.12.08-.38.24c-.2.13-.39.26-.6.38a10.43,10.43,0,0,1-1.26.61,10.7,10.7,0,0,1-4.56.8c-.24,0-.45,0-.68-.07a9.4,9.4,0,0,1-1.06-.19,3.23,3.23,0,0,1-.33-.06,8.28,8.28,0,0,1-1-.34l-.26-.08c-.34-.14-.65-.29-1-.45l-.21-.11a8.85,8.85,0,0,1-1.06-.65l-.26-.17c-.33-.24-.63-.49-.92-.74l-.24-.23a14.64,14.64,0,0,1-2.7-3.29h0a26.24,26.24,0,0,0,3.1,1l.45.12.83.2a27.2,27.2,0,0,0,16.45-1.65h0l-.12.2c-.11.18-.27.44-.52.79Zm5.27-10.14c.17,1.28.2,2.07.2,2.07h0a1.86,1.86,0,0,1-.21.74,1.66,1.66,0,0,1-.22.32c-.36.38-.91.88-.91.88a21.79,21.79,0,0,1-4.7,3.22c-.42.22-.87.43-1.34.64a20.52,20.52,0,0,1-8.2,1.79h0c-.52,0-1,0-1.55-.07s-1-.11-1.51-.19-1-.18-1.44-.29a22.24,22.24,0,0,1-3.15-1c-.7-.28-1.37-.58-2-.89a26.8,26.8,0,0,1-3.38-2,21.64,21.64,0,0,1-2-1.5,3.82,3.82,0,0,1-.79-.86,1.82,1.82,0,0,1-.15-.27,1.47,1.47,0,0,1-.15-.58V78a18.08,18.08,0,0,1,.31-2.44c.07-.41.17-.87.29-1.37a36.38,36.38,0,0,1,2.88-7.75q.36-.72.78-1.47a30.35,30.35,0,0,1,3.41-4.59l0,0h0c.35-.39.72-.77,1.12-1.15s.8-.74,1.23-1.1.66-.51,1-.75a12,12,0,0,1,3.31-1.72,8,8,0,0,1,1.6-.33,6.87,6.87,0,0,1,1.2,0,8.38,8.38,0,0,1,3.35,1.06c.34.19.68.41,1,.63a12.44,12.44,0,0,1,1.28,1,23.43,23.43,0,0,1,4.64,5.83,31.21,31.21,0,0,1,3.89,11.47c0,.29.08.57.11.82Zm4.57-12.25a3.72,3.72,0,0,1-3.1,1.52,3.4,3.4,0,0,1-.9-.09.86.86,0,0,1-.29-.14h0c-.08-.07-.21-.19-.36-.35-.43-.42-1.09-1.14-1.8-1.91l-.41-.45h0c-.71-.68-1.84-2-2.33-2.58l-.13-.17h0l-.25-.29-.17-.19h0c2-1.58,4.51-.59,6.54.78a16.54,16.54,0,0,1,1.58,1.21l.3.25c.48.42.89.82,1.17,1.11A1.08,1.08,0,0,1,155.76,63.84Z" transform="translate(-90.21 -1.22)"/><path class="cls-3" d="M147.19,63.79A23.43,23.43,0,0,0,142.55,58a15.46,15.46,0,0,0-1.28-1c-.33-.22-.66-.43-1-.63a8.38,8.38,0,0,0-3.34-1.06,7,7,0,0,0-1.21,0,8.64,8.64,0,0,0-1.59.33,11.87,11.87,0,0,0-3.31,1.72c-.35.24-.69.49-1,.76s-.84.72-1.23,1.09-.76.76-1.11,1.15h0s0,0,0,0A29.77,29.77,0,0,0,124,65c-.27.5-.53,1-.77,1.47a35.88,35.88,0,0,0-2.89,7.75c-.12.5-.21,1-.29,1.37a20.07,20.07,0,0,0-.3,2.44v.1a1.65,1.65,0,0,0,.14.58,2.4,2.4,0,0,0,.16.27,3.78,3.78,0,0,0,.78.86,21.77,21.77,0,0,0,2,1.5,27.41,27.41,0,0,0,3.37,2c.62.31,1.29.61,2,.89a21.71,21.71,0,0,0,3.14,1c.48.11,1,.21,1.45.29a14.63,14.63,0,0,0,1.5.19c.51,0,1,.07,1.56.07A20.35,20.35,0,0,0,144,84c.46-.21.91-.42,1.33-.64A21.31,21.31,0,0,0,150,80.1s.55-.5.91-.88a1.44,1.44,0,0,0,.23-.32,1.86,1.86,0,0,0,.21-.73h0s0-.8-.2-2.08c0-.26-.07-.53-.11-.83A31.21,31.21,0,0,0,147.19,63.79Z" transform="translate(-90.21 -1.22)"/><path class="cls-3" d="M130.11,86.9l-.83-.21-.46-.12a26.71,26.71,0,0,1-3.09-1h0a14.88,14.88,0,0,0,2.69,3.3l.25.22c.29.25.59.5.92.74l.26.17a11.53,11.53,0,0,0,1.05.66l.22.1a9.23,9.23,0,0,0,.95.45c.09,0,.18,0,.27.09a10.15,10.15,0,0,0,1,.33c.11,0,.23,0,.34.06a9.19,9.19,0,0,0,1.07.2c.22,0,.44.05.67.06a10.7,10.7,0,0,0,4.56-.8,10.43,10.43,0,0,0,1.26-.61c.21-.12.4-.25.6-.38l.39-.24.11-.08c.4-.28.78-.59,1.16-.91A16.53,16.53,0,0,0,145,87.44c.39-.45.7-.86.95-1.21s.42-.61.52-.78l.12-.2A27.35,27.35,0,0,1,130.11,86.9Z" transform="translate(-90.21 -1.22)"/><path class="cls-3" d="M155.76,63.84a1.07,1.07,0,0,0-.18-1.3c-.28-.29-.69-.69-1.17-1.11l-.3-.25A17.77,17.77,0,0,0,152.54,60c-2-1.37-4.57-2.36-6.55-.79h0l.17.2.26.28h0l.54.6h0L148.52,62h0l.35.38h0l.4.45c.72.78,1.38,1.49,1.8,1.91l.37.35h0a.85.85,0,0,0,.3.15,3.44,3.44,0,0,0,.9.09A3.74,3.74,0,0,0,155.76,63.84Z" transform="translate(-90.21 -1.22)"/><path class="cls-3" d="M119.3,68.74l.19-.08a.85.85,0,0,0,.19-.14l.09-.07c.46-.55,2.37-3.71,3.62-5.82l.5-.83c.39-.65.64-1.09.64-1.09a3.38,3.38,0,0,0-1.3-.46,3.28,3.28,0,0,0-.83,0c-3.1.29-6.14,4.46-7.24,6.14a1.51,1.51,0,0,0-.23.76,1.32,1.32,0,0,0,.06.39,1.11,1.11,0,0,0,.18.34,2.88,2.88,0,0,0,1.21.9,1.21,1.21,0,0,0,.18.05l.16,0a4.54,4.54,0,0,0,.53.12l.43,0h.11a3.78,3.78,0,0,0,.67-.05,1,1,0,0,0,.18,0,4,4,0,0,0,.4-.09Z" transform="translate(-90.21 -1.22)"/><path class="cls-4" d="M145.65,64.37s-4-8.54-10-7.91-10.82,8.94-10.82,8.94c-.25.46-.49.92-.71,1.36a39.63,39.63,0,0,0-3.53,10.29,2.47,2.47,0,0,0,.82,2.37c2.21,1.78,7.63,5.55,14,5.55,6.1,0,11.39-3.25,13.85-5a2.84,2.84,0,0,0,1-3C149.48,73.86,147.74,67.78,145.65,64.37Z" transform="translate(-90.21 -1.22)"/><path class="cls-4" d="M116.38,68.74l.18.05.16,0,.53.12a3.13,3.13,0,0,0,.43,0l.11,0a3,3,0,0,0,2-.56c.78-1.15,4.76-7.74,4.76-7.74S116.65,64.59,116.38,68.74Z" transform="translate(-90.21 -1.22)"/><path class="cls-4" d="M154.85,64.6c-1.53-3.44-8.86-5.41-8.86-5.42h0s4.63,5.11,5.47,5.95h0a.86.86,0,0,0,.29.14,3.44,3.44,0,0,0,.9.09A8.26,8.26,0,0,0,154.85,64.6Z" transform="translate(-90.21 -1.22)"/><path class="cls-4" d="M128.82,86.57a26.71,26.71,0,0,1-3.09-1h0a18.3,18.3,0,0,0,2.69,3.3l.25.22c.31.27.61.51.92.74l.26.17a10.45,10.45,0,0,0,4.92,1.88,12.18,12.18,0,0,0,7.47-2l.11-.08C132.33,93.25,128.84,86.61,128.82,86.57Z" transform="translate(-90.21 -1.22)"/><path class="cls-3" d="M170.94,36.63v0c0,.23.05.46.08.7,0-.26-.05-.51-.08-.77L169.21,26h.06v0a1.44,1.44,0,0,1,.36.15c.9.4,2.28,1.67,3.15,5.72a10.75,10.75,0,0,1,.24,1.49A13.78,13.78,0,0,1,172.8,38c-.05.28-.13.56-.2.83h0c-.14.26-.28.51-.44.75.06-.1.13-.18.19-.27l.25-.42a10.73,10.73,0,0,0,1-2.73,12.68,12.68,0,0,0,.37-2.38c0-.14,0-.29,0-.44a13.78,13.78,0,0,0-.06-1.82c0-.16,0-.31,0-.48a10.75,10.75,0,0,0-.3-1.6q-.17-.72-.36-1.32c-.12-.41-.26-.79-.39-1.13a6.58,6.58,0,0,0-2.57-3.49,3.42,3.42,0,0,0-.43-.21l-.06,0a2.18,2.18,0,0,0-.83-.15h-.17l.46,2.84Z" transform="translate(-90.21 -1.22)"/><path class="cls-3" d="M168.41,41.48v0q-1.2-9.28-2.32-18.58a6.36,6.36,0,0,0-1.3-3.67h0A6.22,6.22,0,0,0,159.3,17l-55.53,8.75a6,6,0,0,0-2.22.84,6.78,6.78,0,0,0-2.66,3.68,8.79,8.79,0,0,0-.11,1.14s0,.05,0,.08a15,15,0,0,0,.32,3.21c.42,4,1.06,8,1.44,12,.35,1.84.44,3.72.81,5.55a5.72,5.72,0,0,0,4.09,4.08,12.28,12.28,0,0,0,1.35.11,17.39,17.39,0,0,0,4.06-.42c8.3-1.26,16.61-2.45,24.89-3.84L147,50.41h.1l14-2.16c.65-.08,1.32-.17,2-.31a8,8,0,0,0,1.91-.61,5.26,5.26,0,0,0,1-.65h0c.05,0,.11-.06.17-.11A6,6,0,0,0,168.41,41.48Z" transform="translate(-90.21 -1.22)"/><path class="cls-3" d="M130.34,5.49a2.43,2.43,0,0,0-2.3-2h0a2.32,2.32,0,0,0-.58.08,2.68,2.68,0,0,0-1.73,3.21,2.46,2.46,0,0,0,2,2,2,2,0,0,0,.92-.05A2.67,2.67,0,0,0,130.34,5.49Z" transform="translate(-90.21 -1.22)"/><path class="cls-3" d="M98,51.06h0V51c0-.17,0-.35,0-.56l0-.18A1,1,0,0,0,98,50v0c0-.05,0-.1,0-.15a.91.91,0,0,1,0-.17.08.08,0,0,0,0,0c-.24-3.09-1-8.93-1.54-12.56,0-.28-.07-.53-.11-.77l0-.21c0-.09,0-.17-.05-.26-.12-.8-.23-1.4-.29-1.67h0a8.29,8.29,0,0,0-1.78,3,14,14,0,0,0-.84,4.64v.1a11.47,11.47,0,0,0,.85,4.5c.77,2.12,1.93,4.29,3.82,5.36h0a.44.44,0,0,0,0-.22v-.5Z" transform="translate(-90.21 -1.22)"/><path class="cls-3" d="M172.6,38.87c.07-.27.14-.55.2-.82a14.1,14.1,0,0,0,.22-4.76,10.78,10.78,0,0,0-.25-1.49c-.87-4-2.24-5.32-3.14-5.72a1.84,1.84,0,0,0-.36-.15v0h-.06l1.73,10.63c0,.26.05.51.07.77s0,.26.05.39c0,.35.08.7.14,1a9.25,9.25,0,0,0,.28,1.29c0,.1,0,.19.07.29a5.67,5.67,0,0,0,.53-.66l.07-.09c.16-.24.3-.49.44-.75Z" transform="translate(-90.21 -1.22)"/><path class="cls-4" d="M168.15,41.81Q167,33,165.93,24.21a6,6,0,0,0-1.24-3.47h0a6,6,0,0,0-5.26-2.09l-53.17,8.29a4.14,4.14,0,0,0-2.12.79,6.37,6.37,0,0,0-2.55,3.49,11.87,11.87,0,0,0,.22,4.2c.39,3.79,1,7.55,1.37,11.35.34,1.74.42,3.52.78,5.26a5.43,5.43,0,0,0,3.91,3.85,11.21,11.21,0,0,0,1.3.11,16.92,16.92,0,0,0,3.88-.39c8-1.2,15.9-2.32,23.83-3.64L147,50.42,161,48.25c.65-.09,1.32-.17,2-.31a8.05,8.05,0,0,0,1.91-.62h0a4.83,4.83,0,0,0,1-.65h0A5.65,5.65,0,0,0,168.15,41.81Z" transform="translate(-90.21 -1.22)"/><path class="cls-4" d="M172.6,38.87c.07-.27.14-.55.2-.82a14.1,14.1,0,0,0,.22-4.76,10.78,10.78,0,0,0-.25-1.49c-.87-4-2.24-5.32-3.14-5.72a1.84,1.84,0,0,0-.36-.15s-.06,0-.08,0l1.87,11.83c0,.35.08.7.14,1a9.25,9.25,0,0,0,.28,1.29c0,.1,0,.19.07.29a5.67,5.67,0,0,0,.53-.66l.07-.09c.16-.24.3-.49.44-.75Z" transform="translate(-90.21 -1.22)"/><ellipse class="cls-4" cx="37.1" cy="3.95" rx="0.51" ry="0.57"/><path class="cls-2" d="M122.54,36.22a3.79,3.79,0,1,1-7.53,0,4,4,0,0,1,3.77-4.2h0A4,4,0,0,1,122.54,36.22Z" transform="translate(-90.21 -1.22)"/><ellipse class="cls-2" cx="56.85" cy="30.1" rx="3.77" ry="4.19"/><path class="cls-2" d="M132.54,48.61a21.18,21.18,0,0,1-9.7-2.34,1.38,1.38,0,0,1-.49-1.74,1.1,1.1,0,0,1,1.56-.54,17.81,17.81,0,0,0,21.54-3.67,1.07,1.07,0,0,1,1.63.13,1.38,1.38,0,0,1-.07,1.77A19.85,19.85,0,0,1,132.54,48.61Z" transform="translate(-90.21 -1.22)"/><path class="cls-2" d="M164.1,51.32a9.43,9.43,0,0,0,5.16-3.21c.78-.74,1.05-2,2-2.52a14.16,14.16,0,0,0,5.62-9.22c.54-3-.36-14.09-6.86-17.06-.79-.44-1.76-.67-2.26-1.56a8.86,8.86,0,0,0-8.12-4.17,14.05,14.05,0,0,0-2.14.26L142.18,16.2a21,21,0,0,0-11.48-2.08,12.47,12.47,0,0,0-.68-3.59,5.2,5.2,0,0,0,2-6.6,4.23,4.23,0,0,0-5.93-2.19,5.2,5.2,0,0,0-2,6.6,4.41,4.41,0,0,0,3.9,2.71,9.23,9.23,0,0,1,.68,3.42,22.24,22.24,0,0,0-10.06,5.37L104,22.1a9.79,9.79,0,0,0-6,3.43,10.46,10.46,0,0,0-2.09,4c-2.27,1.7-7,8.39-5.26,16a15.38,15.38,0,0,0,5.53,9.33,12.85,12.85,0,0,0,4.06,2,13.49,13.49,0,0,0,2.34,1.88,7.28,7.28,0,0,0,3.24,1.07c1.08,0,2.17,0,3.25,0,3.91-.6,7.81-1.22,11.72-1.81.93-.2,9.07-1.58,19.79-3.15,0,0,2.5-.25,3.73-.47C150.85,53.34,157.48,52.38,164.1,51.32Zm4.65-28.16h.17l.45.05h0a2.72,2.72,0,0,1,.38.11s.34.14.49.23A6.63,6.63,0,0,1,172.81,27c.13.35.26.72.39,1.13s.25.85.36,1.32a10.88,10.88,0,0,1,.3,1.61c0,.16,0,.31,0,.47a14,14,0,0,1,.06,1.83c0,.14,0,.29,0,.44a12.58,12.58,0,0,1-.37,2.37,10.73,10.73,0,0,1-1,2.73c-.08.15-.17.28-.25.42a2.69,2.69,0,0,1-.2.27l-.06.09a5.22,5.22,0,0,1-.34.48c-.06.07-.12.16-.19.23h0c0-.11,0-.22-.07-.34-.12-.42-.39-2-.42-2.34L169.22,26l-.47-2.85ZM128.61,8.7a2.17,2.17,0,0,1-1.8-.29A2.85,2.85,0,0,1,126,4.77a2.45,2.45,0,0,1,1.47-1.2,1.93,1.93,0,0,1,.58-.08h0a2.43,2.43,0,0,1,2.3,2A2.67,2.67,0,0,1,128.61,8.7ZM98,51.24c0,.12,0,.24,0,.32h0a.57.57,0,0,1,0,.26h0c-1.89-1.07-3-3.24-3.82-5.36a11.72,11.72,0,0,1-.85-4.55v-.1a14.31,14.31,0,0,1,.84-4.64,8.42,8.42,0,0,1,1.77-3h0c.07.27.17.88.3,1.67,0,.09,0,.17,0,.27l0,.2c0,.24.08.49.12.77.54,3.63,1.3,9.47,1.54,12.56v.12q0,.21,0,.39s0,.1,0,.15v.06h0c0,.21,0,.39,0,.56s0,.08,0,.11A1.07,1.07,0,0,1,98,51.24Zm37.72,1c-8.28,1.4-16.59,2.59-24.89,3.84a17.39,17.39,0,0,1-4.06.42c-.45,0-.9-.05-1.35-.11a5.7,5.7,0,0,1-4.09-4.08c-.37-1.83-.46-3.71-.81-5.55-.38-4-1-8-1.44-12a15.47,15.47,0,0,1-.32-3.26s0,0,0-.08a8.79,8.79,0,0,1,.11-1.14,6.7,6.7,0,0,1,2.66-3.68,5.88,5.88,0,0,1,2.22-.83L159.31,17a6.24,6.24,0,0,1,5.49,2.2h0a6.42,6.42,0,0,1,1.29,3.67q1.14,9.3,2.32,18.58v0h0a6,6,0,0,1-2.29,5.13A9.4,9.4,0,0,1,161,48.3Z" transform="translate(-90.21 -1.22)"/></svg>