<svg width="315" height="60" viewBox="0 0 315 60" fill="none" xmlns="http://www.w3.org/2000/svg">
<path d="M130.135 10.0001H29.5347C29.168 10.0001 28.8057 10.0001 28.4399 10.0021C28.1338 10.0041 27.8301 10.0099 27.521 10.0148C26.8495 10.0227 26.1796 10.0818 25.5171 10.1915C24.8555 10.3037 24.2147 10.515 23.6162 10.8185C23.0185 11.1246 22.4723 11.5223 21.9976 11.9972C21.5203 12.4708 21.1225 13.0181 20.8194 13.6183C20.5154 14.2172 20.3046 14.8591 20.1944 15.5216C20.083 16.1833 20.0231 16.8527 20.0152 17.5236C20.0059 17.8302 20.0049 18.1378 20 18.4445V41.5587C20.0049 41.8692 20.0059 42.17 20.0152 42.4806C20.0231 43.1516 20.083 43.8209 20.1944 44.4825C20.3043 45.1455 20.5151 45.7877 20.8194 46.3868C21.1223 46.985 21.5202 47.5302 21.9976 48.0011C22.4705 48.4781 23.0171 48.8761 23.6162 49.1798C24.2147 49.4841 24.8555 49.6968 25.5171 49.8106C26.1797 49.9195 26.8496 49.9786 27.521 49.9874C27.8301 49.9942 28.1338 49.9981 28.4399 49.9981C28.8057 50.0001 29.168 50.0001 29.5347 50.0001H130.135C130.494 50.0001 130.859 50.0001 131.219 49.9981C131.523 49.9981 131.836 49.9942 132.141 49.9874C132.811 49.9791 133.479 49.92 134.141 49.8106C134.804 49.696 135.448 49.4834 136.049 49.1798C136.647 48.8759 137.193 48.478 137.666 48.0011C138.142 47.5284 138.541 46.9836 138.848 46.3868C139.15 45.7872 139.358 45.1451 139.467 44.4825C139.578 43.8208 139.64 43.1516 139.652 42.4806C139.656 42.17 139.656 41.8692 139.656 41.5587C139.664 41.1954 139.664 40.8341 139.664 40.4649V19.5363C139.664 19.17 139.664 18.8068 139.656 18.4445C139.656 18.1378 139.656 17.8302 139.652 17.5236C139.64 16.8526 139.578 16.1834 139.467 15.5216C139.358 14.8594 139.149 14.2176 138.848 13.6182C138.23 12.4153 137.252 11.4362 136.049 10.8184C135.448 10.5157 134.804 10.3044 134.141 10.1914C133.48 10.0812 132.811 10.0221 132.141 10.0147C131.836 10.0098 131.523 10.0039 131.219 10.002C130.859 10 130.494 10 130.135 10V10.0001Z" fill="#A6A6A6"/>
<path d="M28.4448 49.125C28.1401 49.125 27.8428 49.1211 27.5405 49.1143C26.9143 49.1061 26.2895 49.0516 25.6714 48.9512C25.095 48.8519 24.5366 48.6673 24.0146 48.4033C23.4975 48.1415 23.0258 47.7983 22.6176 47.3867C22.2036 46.98 21.8589 46.5082 21.5971 45.9902C21.3325 45.4688 21.1494 44.9099 21.0541 44.333C20.9513 43.7131 20.8956 43.0863 20.8876 42.458C20.8813 42.2471 20.873 41.5449 20.873 41.5449V18.4443C20.873 18.4443 20.8818 17.7529 20.8877 17.5498C20.8953 16.9225 20.9506 16.2967 21.0532 15.6777C21.1486 15.0993 21.3319 14.5387 21.5967 14.0156C21.8574 13.4979 22.2002 13.0259 22.6118 12.6177C23.0229 12.2056 23.4961 11.8606 24.0141 11.5952C24.5349 11.3321 25.0922 11.1487 25.6675 11.0513C26.2877 10.9498 26.9146 10.895 27.543 10.8872L28.4453 10.875H131.214L132.127 10.8877C132.75 10.8951 133.371 10.9494 133.985 11.0503C134.566 11.149 135.13 11.3336 135.656 11.5981C136.694 12.133 137.539 12.9792 138.071 14.0181C138.332 14.5376 138.512 15.0935 138.606 15.667C138.71 16.291 138.768 16.9217 138.78 17.5542C138.783 17.8374 138.783 18.1416 138.783 18.4443C138.791 18.8193 138.791 19.1763 138.791 19.5361V40.4648C138.791 40.8281 138.791 41.1826 138.783 41.54C138.783 41.8652 138.783 42.1631 138.779 42.4697C138.768 43.0909 138.71 43.7104 138.608 44.3232C138.515 44.9043 138.333 45.4675 138.068 45.9932C137.805 46.5056 137.462 46.9733 137.053 47.3789C136.644 47.7927 136.172 48.1379 135.653 48.4014C135.128 48.6674 134.566 48.8527 133.985 48.9512C133.367 49.0522 132.742 49.1067 132.116 49.1143C131.823 49.1211 131.517 49.125 131.219 49.125L130.135 49.127L28.4448 49.125Z" fill="black"/>
<path d="M44.7689 30.3013C44.7796 29.4666 45.0013 28.6483 45.4134 27.9223C45.8254 27.1964 46.4143 26.5864 47.1254 26.1492C46.6737 25.5041 46.0777 24.9731 45.3849 24.5986C44.6921 24.224 43.9215 24.0162 43.1343 23.9916C41.455 23.8153 39.8271 24.9964 38.9714 24.9964C38.0991 24.9964 36.7816 24.0091 35.3629 24.0383C34.4452 24.0679 33.5509 24.3348 32.767 24.8128C31.9831 25.2909 31.3364 25.9638 30.89 26.7661C28.956 30.1145 30.3985 35.0356 32.2511 37.7422C33.178 39.0676 34.2613 40.548 35.6788 40.4955C37.0658 40.438 37.5839 39.611 39.2582 39.611C40.9169 39.611 41.403 40.4955 42.8492 40.4621C44.3376 40.438 45.2753 39.1309 46.1697 37.793C46.8357 36.8486 47.3481 35.8049 47.6881 34.7005C46.8234 34.3347 46.0855 33.7226 45.5664 32.9403C45.0472 32.158 44.7699 31.2402 44.7689 30.3013Z" fill="white"/>
<path d="M42.0373 22.2113C42.8488 21.2371 43.2486 19.9849 43.1518 18.7207C41.912 18.8509 40.7667 19.4435 39.9442 20.3803C39.5421 20.838 39.2341 21.3704 39.0378 21.9472C38.8416 22.524 38.7609 23.1337 38.8005 23.7417C39.4206 23.7481 40.0341 23.6137 40.5948 23.3486C41.1555 23.0835 41.6487 22.6946 42.0373 22.2113Z" fill="white"/>
<path d="M62.3022 37.1397H57.5688L56.4321 40.4961H54.4272L58.9106 28.0781H60.9936L65.477 40.4961H63.438L62.3022 37.1397ZM58.0591 35.5908H61.8111L59.9615 30.1436H59.9097L58.0591 35.5908Z" fill="white"/>
<path d="M75.1597 35.9695C75.1597 38.7829 73.6538 40.5905 71.3814 40.5905C70.8057 40.6207 70.2332 40.4881 69.7294 40.2079C69.2256 39.9278 68.8109 39.5114 68.5327 39.0065H68.4897V43.4909H66.6313V31.4421H68.4302V32.948H68.4644C68.7553 32.4455 69.1771 32.0313 69.6847 31.7495C70.1923 31.4676 70.7669 31.3287 71.3472 31.3474C73.645 31.3474 75.1597 33.1638 75.1597 35.9695ZM73.2495 35.9695C73.2495 34.1365 72.3023 32.9314 70.857 32.9314C69.437 32.9314 68.482 34.1618 68.482 35.9695C68.482 37.7937 69.437 39.0154 70.857 39.0154C72.3023 39.0154 73.2495 37.8191 73.2495 35.9695Z" fill="white"/>
<path d="M85.1245 35.9694C85.1245 38.7829 83.6186 40.5905 81.3462 40.5905C80.7705 40.6206 80.198 40.488 79.6942 40.2079C79.1904 39.9278 78.7757 39.5114 78.4975 39.0065H78.4545V43.4909H76.5961V31.4421H78.395V32.948H78.4291C78.7201 32.4455 79.1418 32.0313 79.6494 31.7495C80.1571 31.4676 80.7316 31.3287 81.312 31.3474C83.6098 31.3474 85.1245 33.1638 85.1245 35.9694ZM83.2143 35.9694C83.2143 34.1364 82.267 32.9314 80.8217 32.9314C79.4018 32.9314 78.4467 34.1618 78.4467 35.9694C78.4467 37.7937 79.4018 39.0153 80.8217 39.0153C82.2671 39.0153 83.2143 37.8191 83.2143 35.9694H83.2143Z" fill="white"/>
<path d="M91.7105 37.0362C91.8482 38.2676 93.0445 39.0762 94.6792 39.0762C96.2456 39.0762 97.3726 38.2676 97.3726 37.1572C97.3726 36.1934 96.6929 35.6162 95.0835 35.2207L93.4742 34.833C91.1939 34.2822 90.1353 33.2158 90.1353 31.4854C90.1353 29.3428 92.0025 27.8711 94.6538 27.8711C97.2778 27.8711 99.0767 29.3428 99.1372 31.4854H97.2612C97.1489 30.2461 96.1245 29.4981 94.6274 29.4981C93.1304 29.4981 92.106 30.2549 92.106 31.3565C92.106 32.2344 92.7603 32.751 94.3608 33.1465L95.729 33.4824C98.2769 34.0849 99.3355 35.1084 99.3355 36.9248C99.3355 39.248 97.4849 40.7031 94.5415 40.7031C91.7876 40.7031 89.9282 39.2822 89.8081 37.0361L91.7105 37.0362Z" fill="white"/>
<path d="M103.346 29.2998V31.4424H105.068V32.9141H103.346V37.9053C103.346 38.6807 103.691 39.042 104.448 39.042C104.652 39.0384 104.856 39.0241 105.059 38.999V40.4619C104.719 40.5255 104.373 40.5543 104.027 40.5478C102.194 40.5478 101.479 39.8593 101.479 38.1035V32.9141H100.163V31.4424H101.479V29.2998H103.346Z" fill="white"/>
<path d="M106.065 35.9697C106.065 33.1211 107.743 31.3311 110.359 31.3311C112.984 31.3311 114.654 33.1211 114.654 35.9697C114.654 38.8262 112.993 40.6084 110.359 40.6084C107.726 40.6084 106.065 38.8262 106.065 35.9697ZM112.76 35.9697C112.76 34.0156 111.865 32.8623 110.359 32.8623C108.853 32.8623 107.959 34.0244 107.959 35.9697C107.959 37.9316 108.853 39.0762 110.359 39.0762C111.865 39.0762 112.76 37.9316 112.76 35.9697H112.76Z" fill="white"/>
<path d="M116.186 31.442H117.959V32.983H118.002C118.121 32.5017 118.403 32.0764 118.8 31.7785C119.197 31.4806 119.684 31.3284 120.179 31.3473C120.393 31.3465 120.607 31.3698 120.816 31.4166V33.1549C120.546 33.0723 120.264 33.0343 119.981 33.0426C119.711 33.0316 119.442 33.0792 119.192 33.1821C118.942 33.285 118.718 33.4408 118.534 33.6386C118.35 33.8365 118.211 34.0719 118.126 34.3286C118.042 34.5852 118.014 34.8571 118.044 35.1256V40.4957H116.186L116.186 31.442Z" fill="white"/>
<path d="M129.384 37.8369C129.134 39.4805 127.534 40.6084 125.486 40.6084C122.852 40.6084 121.217 38.8437 121.217 36.0127C121.217 33.1729 122.861 31.3311 125.408 31.3311C127.913 31.3311 129.488 33.0518 129.488 35.7969V36.4336H123.093V36.5459C123.064 36.8791 123.105 37.2148 123.216 37.5306C123.326 37.8464 123.502 38.1352 123.732 38.3778C123.963 38.6203 124.242 38.8111 124.552 38.9374C124.861 39.0637 125.195 39.1226 125.529 39.1103C125.968 39.1515 126.409 39.0498 126.785 38.8203C127.162 38.5909 127.455 38.246 127.62 37.8369L129.384 37.8369ZM123.102 35.1348H127.628C127.645 34.8352 127.6 34.5354 127.495 34.2541C127.39 33.9729 127.229 33.7164 127.02 33.5006C126.812 33.2849 126.561 33.1145 126.283 33.0003C126.006 32.8861 125.708 32.8305 125.408 32.8369C125.105 32.8351 124.805 32.8933 124.525 33.008C124.245 33.1227 123.99 33.2918 123.776 33.5054C123.562 33.7191 123.392 33.973 123.276 34.2527C123.16 34.5323 123.101 34.8321 123.102 35.1348V35.1348Z" fill="white"/>
<path d="M57.8262 18.7314C58.2158 18.7034 58.6067 18.7623 58.9709 18.9037C59.335 19.0451 59.6632 19.2656 59.9317 19.5493C60.2003 19.8329 60.4026 20.1726 60.524 20.5438C60.6454 20.9151 60.6829 21.3087 60.6338 21.6962C60.6338 23.6025 59.6035 24.6982 57.8262 24.6982H55.6709V18.7314H57.8262ZM56.5976 23.8544H57.7226C58.0011 23.871 58.2797 23.8254 58.5382 23.7208C58.7967 23.6161 59.0287 23.4552 59.2172 23.2496C59.4057 23.0441 59.546 22.7991 59.6278 22.5324C59.7097 22.2658 59.7311 21.9843 59.6904 21.7084C59.7281 21.4335 59.7046 21.1538 59.6215 20.8891C59.5383 20.6244 59.3977 20.3814 59.2096 20.1775C59.0216 19.9736 58.7907 19.8138 58.5337 19.7095C58.2766 19.6053 57.9996 19.5592 57.7226 19.5746H56.5976V23.8544Z" fill="white"/>
<path d="M61.6806 22.4448C61.6523 22.1489 61.6862 21.8503 61.78 21.5682C61.8739 21.2862 62.0256 21.0268 62.2256 20.8068C62.4255 20.5868 62.6692 20.4111 62.9411 20.2908C63.2129 20.1705 63.5069 20.1084 63.8042 20.1084C64.1014 20.1084 64.3954 20.1705 64.6673 20.2908C64.9391 20.4111 65.1828 20.5868 65.3828 20.8068C65.5827 21.0268 65.7345 21.2862 65.8283 21.5682C65.9222 21.8503 65.956 22.1489 65.9277 22.4448C65.9566 22.741 65.9231 23.04 65.8295 23.3225C65.7359 23.605 65.5843 23.8648 65.3843 24.0853C65.1843 24.3057 64.9404 24.4818 64.6683 24.6023C64.3961 24.7229 64.1018 24.7851 63.8042 24.7851C63.5065 24.7851 63.2122 24.7229 62.9401 24.6023C62.668 24.4818 62.4241 24.3057 62.2241 24.0853C62.0241 23.8648 61.8724 23.605 61.7788 23.3225C61.6852 23.04 61.6518 22.741 61.6806 22.4448ZM65.0136 22.4448C65.0136 21.4687 64.5752 20.8979 63.8056 20.8979C63.0332 20.8979 62.5986 21.4687 62.5986 22.4448C62.5986 23.4287 63.0332 23.9951 63.8056 23.9951C64.5752 23.9951 65.0136 23.4248 65.0136 22.4448H65.0136Z" fill="white"/>
<path d="M71.5732 24.6982H70.6514L69.7207 21.3818H69.6504L68.7236 24.6982H67.8105L66.5693 20.1953H67.4707L68.2773 23.6313H68.3438L69.2695 20.1953H70.1221L71.0479 23.6313H71.1182L71.9209 20.1953H72.8096L71.5732 24.6982Z" fill="white"/>
<path d="M73.8535 20.1949H74.709V20.9102H74.7754C74.888 20.6533 75.0781 20.4379 75.3189 20.2941C75.5598 20.1503 75.8395 20.0852 76.1191 20.1079C76.3382 20.0915 76.5582 20.1245 76.7628 20.2046C76.9674 20.2847 77.1514 20.4098 77.3011 20.5707C77.4508 20.7315 77.5623 20.924 77.6275 21.1338C77.6927 21.3436 77.7099 21.5654 77.6777 21.7827V24.6977H76.7891V22.0059C76.7891 21.2823 76.4746 20.9224 75.8174 20.9224C75.6686 20.9155 75.5201 20.9408 75.3821 20.9966C75.244 21.0525 75.1197 21.1375 75.0175 21.2459C74.9154 21.3543 74.8379 21.4834 74.7904 21.6246C74.7429 21.7657 74.7264 21.9154 74.7422 22.0635V24.6978H73.8535L73.8535 20.1949Z" fill="white"/>
<path d="M79.0938 18.4375H79.9824V24.6982H79.0938V18.4375Z" fill="white"/>
<path d="M81.2178 22.4449C81.1895 22.1489 81.2234 21.8503 81.3172 21.5683C81.4111 21.2862 81.5629 21.0268 81.7628 20.8068C81.9628 20.5869 82.2065 20.4111 82.4784 20.2908C82.7503 20.1705 83.0443 20.1084 83.3416 20.1084C83.6389 20.1084 83.9329 20.1705 84.2047 20.2908C84.4766 20.4111 84.7203 20.5869 84.9203 20.8068C85.1203 21.0268 85.272 21.2862 85.3659 21.5683C85.4598 21.8503 85.4936 22.1489 85.4653 22.4449C85.4942 22.7411 85.4607 23.0401 85.3671 23.3226C85.2734 23.6051 85.1217 23.8649 84.9217 24.0853C84.7217 24.3058 84.4778 24.4819 84.2057 24.6024C83.9335 24.7229 83.6392 24.7852 83.3416 24.7852C83.0439 24.7852 82.7496 24.7229 82.4775 24.6024C82.2053 24.4819 81.9614 24.3058 81.7614 24.0853C81.5614 23.8649 81.4097 23.6051 81.3161 23.3226C81.2225 23.0401 81.189 22.7411 81.2178 22.4449ZM84.5508 22.4449C84.5508 21.4688 84.1123 20.898 83.3428 20.898C82.5703 20.898 82.1358 21.4688 82.1358 22.4449C82.1358 23.4288 82.5704 23.9952 83.3428 23.9952C84.1123 23.9952 84.5508 23.4248 84.5508 22.4449H84.5508Z" fill="white"/>
<path d="M86.4009 23.4248C86.4009 22.6142 87.0044 22.147 88.0757 22.0806L89.2954 22.0102V21.6216C89.2954 21.146 88.981 20.8774 88.3735 20.8774C87.8774 20.8774 87.5337 21.0596 87.4351 21.3779H86.5747C86.6655 20.6045 87.3931 20.1084 88.4146 20.1084C89.5435 20.1084 90.1802 20.6704 90.1802 21.6216V24.6982H89.3247V24.0654H89.2544C89.1117 24.2924 88.9113 24.4775 88.6737 24.6017C88.436 24.7259 88.1697 24.7848 87.9019 24.7724C87.7128 24.7921 87.5218 24.7719 87.341 24.7132C87.1602 24.6545 86.9938 24.5586 86.8524 24.4316C86.711 24.3047 86.5977 24.1495 86.52 23.9761C86.4422 23.8026 86.4016 23.6149 86.4009 23.4248ZM89.2954 23.04V22.6636L88.1958 22.7339C87.5757 22.7754 87.2944 22.9863 87.2944 23.3833C87.2944 23.7886 87.646 24.0244 88.1294 24.0244C88.2711 24.0387 88.4142 24.0244 88.5502 23.9823C88.6862 23.9403 88.8123 23.8712 88.9211 23.7794C89.0299 23.6876 89.1191 23.5748 89.1834 23.4477C89.2477 23.3207 89.2858 23.1821 89.2954 23.04Z" fill="white"/>
<path d="M91.3481 22.4448C91.3481 21.022 92.0796 20.1206 93.2173 20.1206C93.4987 20.1077 93.778 20.1751 94.0225 20.315C94.267 20.4548 94.4667 20.6615 94.5981 20.9106H94.6646V18.4375H95.5532V24.6982H94.7017V23.9868H94.6314C94.4897 24.2343 94.2831 24.4383 94.0339 24.5768C93.7846 24.7153 93.5022 24.783 93.2173 24.7724C92.0718 24.7725 91.3481 23.8711 91.3481 22.4448ZM92.2661 22.4448C92.2661 23.3999 92.7163 23.9746 93.4693 23.9746C94.2183 23.9746 94.6812 23.3916 94.6812 22.4487C94.6812 21.5103 94.2134 20.919 93.4693 20.919C92.7212 20.919 92.2661 21.4976 92.2661 22.4448H92.2661Z" fill="white"/>
<path d="M99.23 22.4448C99.2016 22.1489 99.2355 21.8503 99.3293 21.5682C99.4232 21.2862 99.5749 21.0268 99.7749 20.8068C99.9748 20.5868 100.219 20.4111 100.49 20.2908C100.762 20.1705 101.056 20.1084 101.353 20.1084C101.651 20.1084 101.945 20.1705 102.217 20.2908C102.488 20.4111 102.732 20.5868 102.932 20.8068C103.132 21.0268 103.284 21.2862 103.378 21.5682C103.471 21.8503 103.505 22.1489 103.477 22.4448C103.506 22.741 103.472 23.04 103.379 23.3225C103.285 23.605 103.134 23.8648 102.934 24.0853C102.734 24.3057 102.49 24.4818 102.218 24.6023C101.945 24.7229 101.651 24.7851 101.353 24.7851C101.056 24.7851 100.762 24.7229 100.489 24.6023C100.217 24.4818 99.9734 24.3057 99.7734 24.0853C99.5734 23.8648 99.4217 23.605 99.3281 23.3225C99.2346 23.04 99.2011 22.741 99.23 22.4448ZM102.563 22.4448C102.563 21.4687 102.124 20.8979 101.355 20.8979C100.582 20.8979 100.148 21.4687 100.148 22.4448C100.148 23.4287 100.583 23.9951 101.355 23.9951C102.124 23.9951 102.563 23.4248 102.563 22.4448Z" fill="white"/>
<path d="M104.669 20.1949H105.525V20.9102H105.591C105.704 20.6533 105.894 20.4379 106.135 20.2941C106.376 20.1503 106.655 20.0852 106.935 20.1079C107.154 20.0915 107.374 20.1245 107.579 20.2046C107.783 20.2847 107.967 20.4098 108.117 20.5707C108.267 20.7315 108.378 20.924 108.443 21.1338C108.509 21.3436 108.526 21.5654 108.494 21.7827V24.6977H107.605V22.0059C107.605 21.2823 107.291 20.9224 106.633 20.9224C106.485 20.9155 106.336 20.9408 106.198 20.9966C106.06 21.0525 105.936 21.1375 105.833 21.2459C105.731 21.3543 105.654 21.4834 105.606 21.6246C105.559 21.7657 105.542 21.9154 105.558 22.0635V24.6978H104.669V20.1949Z" fill="white"/>
<path d="M113.515 19.0742V20.2158H114.491V20.9644H113.515V23.2798C113.515 23.7515 113.709 23.958 114.152 23.958C114.265 23.9576 114.378 23.9508 114.491 23.9375V24.6777C114.331 24.7063 114.169 24.7215 114.007 24.7231C113.019 24.7231 112.625 24.3755 112.625 23.5073V20.9643H111.911V20.2158H112.625V19.0742H113.515Z" fill="white"/>
<path d="M115.705 18.4375H116.585V20.919H116.656C116.774 20.6596 116.969 20.443 117.215 20.2987C117.461 20.1543 117.745 20.0893 118.029 20.1123C118.247 20.1004 118.465 20.1368 118.667 20.2189C118.869 20.3009 119.051 20.4266 119.199 20.5869C119.347 20.7473 119.458 20.9383 119.524 21.1465C119.59 21.3546 119.609 21.5747 119.58 21.791V24.6982H118.69V22.0103C118.69 21.291 118.355 20.9268 117.727 20.9268C117.574 20.9142 117.421 20.9352 117.277 20.9883C117.133 21.0413 117.003 21.1252 116.895 21.2339C116.787 21.3426 116.704 21.4737 116.652 21.6178C116.6 21.7619 116.58 21.9157 116.593 22.0683V24.6982H115.705L115.705 18.4375Z" fill="white"/>
<path d="M124.761 23.4825C124.64 23.894 124.379 24.25 124.022 24.4882C123.665 24.7263 123.236 24.8315 122.81 24.7852C122.513 24.7931 122.219 24.7362 121.946 24.6187C121.674 24.5012 121.43 24.3258 121.232 24.1046C121.034 23.8835 120.887 23.6219 120.8 23.3381C120.713 23.0543 120.689 22.755 120.73 22.461C120.69 22.1661 120.715 21.8662 120.801 21.5815C120.888 21.2969 121.034 21.0341 121.231 20.811C121.428 20.5879 121.671 20.4098 121.942 20.2886C122.214 20.1674 122.509 20.1059 122.806 20.1085C124.059 20.1085 124.815 20.9645 124.815 22.3785V22.6886H121.635V22.7384C121.621 22.9036 121.642 23.0699 121.696 23.2267C121.75 23.3834 121.837 23.5271 121.95 23.6486C122.062 23.7701 122.199 23.8666 122.352 23.932C122.504 23.9974 122.669 24.0302 122.834 24.0284C123.047 24.0539 123.262 24.0156 123.453 23.9184C123.644 23.8212 123.801 23.6694 123.906 23.4825L124.761 23.4825ZM121.635 22.0313H123.91C123.921 21.8802 123.9 21.7284 123.849 21.5857C123.798 21.443 123.718 21.3125 123.614 21.2026C123.509 21.0928 123.383 21.006 123.243 20.9478C123.103 20.8896 122.953 20.8614 122.801 20.8648C122.648 20.8629 122.495 20.8918 122.353 20.9497C122.21 21.0076 122.081 21.0935 121.972 21.2022C121.864 21.3109 121.778 21.4403 121.72 21.5827C121.662 21.7251 121.633 21.8776 121.635 22.0313H121.635Z" fill="white"/>
<path d="M300 50H175C172.25 50 170 47.75 170 45V15C170 12.25 172.25 10 175 10H300C302.75 10 305 12.25 305 15V45C305 47.75 302.75 50 300 50Z" fill="black"/>
<path d="M300 10H175C172.25 10 170 12.25 170 15V45C170 47.75 172.25 50 175 50H300C302.75 50 305 47.75 305 45V15C305 12.25 302.75 10 300 10ZM300 10.8C302.316 10.8 304.2 12.6844 304.2 15V45C304.2 47.316 302.316 49.2004 300 49.2004H175C172.684 49.2004 170.8 47.316 170.8 45V15C170.8 12.6844 172.684 10.8 175 10.8H300Z" fill="#A6A6A6"/>
<path d="M217.418 20.2432C217.418 21.081 217.17 21.7482 216.673 22.2459C216.109 22.8377 215.373 23.1338 214.469 23.1338C213.603 23.1338 212.867 22.8338 212.261 22.233C211.655 21.6326 211.352 20.8881 211.352 19.9998C211.352 19.1111 211.655 18.367 212.261 17.7662C212.867 17.1658 213.603 16.8654 214.469 16.8654C214.899 16.8654 215.31 16.9494 215.701 17.117C216.091 17.285 216.405 17.508 216.639 17.7873L216.112 18.315C215.714 17.8404 215.168 17.6033 214.469 17.6033C213.837 17.6033 213.291 17.8252 212.83 18.2693C212.369 18.7139 212.139 19.2904 212.139 19.9998C212.139 20.7092 212.369 21.2857 212.83 21.7303C213.291 22.1744 213.837 22.3963 214.469 22.3963C215.139 22.3963 215.698 22.1732 216.145 21.7264C216.435 21.4353 216.603 21.0307 216.648 20.5111H214.469V19.7904H217.377C217.405 19.9471 217.418 20.0975 217.418 20.2432Z" fill="white"/>
<path d="M217.418 20.2438H217.318C217.318 21.0625 217.079 21.6984 216.603 22.1758L216.602 22.1766L216.601 22.1774C216.055 22.7488 215.352 23.0332 214.469 23.0344C213.626 23.0332 212.921 22.7457 212.332 22.1629C211.744 21.5789 211.453 20.866 211.452 20.0004C211.453 19.1344 211.744 18.4219 212.332 17.8383C212.921 17.2551 213.626 16.9672 214.469 16.966C214.886 16.966 215.283 17.0473 215.661 17.2094C216.04 17.3727 216.34 17.5867 216.563 17.8524L216.639 17.7879L216.568 17.7172L216.041 18.2453L216.112 18.3156L216.189 18.2516C215.773 17.7535 215.19 17.5024 214.469 17.5039C213.814 17.5031 213.238 17.7371 212.761 18.1981C212.28 18.6606 212.038 19.2695 212.039 20.0004C212.038 20.7313 212.28 21.3402 212.761 21.8027C213.238 22.2637 213.814 22.4977 214.469 22.4969C215.161 22.4981 215.751 22.2633 216.216 21.7977C216.526 21.4867 216.702 21.0559 216.748 20.5203L216.757 20.4117H214.569V19.891H217.377V19.791L217.278 19.8086C217.306 19.9602 217.318 20.1043 217.318 20.2438H217.418H217.518C217.518 20.0918 217.504 19.9356 217.475 19.7731L217.46 19.691H214.369V20.5117V20.6117H216.648V20.5117L216.548 20.5031C216.504 21.0063 216.344 21.3852 216.074 21.6563C215.645 22.0844 215.117 22.2957 214.469 22.2969C213.861 22.2961 213.345 22.0867 212.9 21.659C212.459 21.2328 212.24 20.6887 212.239 20.0004C212.24 19.3121 212.459 18.768 212.9 18.3418C213.345 17.9141 213.861 17.7047 214.469 17.7039C215.145 17.7055 215.656 17.9289 216.035 18.3801L216.106 18.4637L216.71 17.8586L216.775 17.7938L216.716 17.7238C216.47 17.4309 216.143 17.1984 215.74 17.0258C215.337 16.8527 214.912 16.766 214.469 16.766C213.58 16.7652 212.813 17.0777 212.191 17.6961C211.566 18.3133 211.251 19.0891 211.252 20.0004C211.251 20.9113 211.566 21.6875 212.191 22.3051C212.813 22.9231 213.58 23.2352 214.469 23.2344C215.395 23.2352 216.163 22.9277 216.746 22.3156L216.673 22.2465L216.744 22.3172C217.262 21.7996 217.519 21.1004 217.518 20.2438H217.418Z" fill="white"/>
<path d="M222.028 17.7371H219.295V19.6395H221.759V20.3605H219.295V22.2629H222.028V23H218.525V17H222.028V17.7371Z" fill="white"/>
<path d="M222.028 17.7367V17.6367H219.195V19.7391H221.659V20.2598L219.195 20.2601V22.3625H221.928V22.8996H218.625V17.0996H221.928V17.7367H222.028V17.6367V17.7367H222.128V16.9996V16.8996H218.425V23.0996H222.128V22.2625V22.1625H219.395V20.4601H221.859V19.6391V19.5391H219.395V17.8367H222.128V17.7367H222.028Z" fill="white"/>
<path d="M225.279 23H224.507V17.7371H222.832V17H226.955V17.7371H225.279V23Z" fill="white"/>
<path d="M225.279 22.9996V22.8996H224.607V17.6367H222.932V17.0996H226.855V17.6367H225.179V22.9996H225.279V22.8996V22.9996H225.379V17.8367H227.055V16.9996V16.8996H222.732V17.7367V17.8367H224.407V23.0996H225.279H225.379V22.9996H225.279Z" fill="white"/>
<path d="M229.938 23V17H230.709V23H229.938Z" fill="white"/>
<path d="M229.938 22.9996H230.038V17.0996H230.609V22.8996H229.938V22.9996H230.038H229.938V23.0996H230.709H230.809V16.8996H229.938H229.838V23.0996H229.938V22.9996Z" fill="white"/>
<path d="M234.128 23H233.357V17.7371H231.681V17H235.804V17.7371H234.128V23Z" fill="white"/>
<path d="M234.128 22.9996V22.8996H233.457V17.6367H231.781V17.0996H235.704V17.6367H234.028V22.9996H234.128V22.8996V22.9996H234.228V17.8367H235.904V16.9996V16.8996H231.581V17.7367V17.8367H233.257V23.0996H234.128H234.228V22.9996H234.128Z" fill="white"/>
<path d="M239.779 21.7221C240.223 22.1717 240.767 22.3963 241.409 22.3963C242.052 22.3963 242.596 22.1717 243.039 21.7221C243.484 21.2725 243.706 20.6978 243.706 19.9998C243.706 19.3018 243.484 18.7271 243.039 18.2775C242.596 17.8279 242.052 17.6033 241.409 17.6033C240.767 17.6033 240.223 17.8279 239.779 18.2775C239.336 18.7271 239.113 19.3018 239.113 19.9998C239.113 20.6978 239.336 21.2725 239.779 21.7221ZM243.609 22.2244C243.02 22.831 242.286 23.1338 241.409 23.1338C240.532 23.1338 239.799 22.831 239.21 22.2244C238.62 21.6185 238.326 20.8768 238.326 19.9998C238.326 19.1228 238.62 18.381 239.21 17.7752C239.799 17.1685 240.532 16.8654 241.409 16.8654C242.281 16.8654 243.013 17.1701 243.606 17.7791C244.197 18.3881 244.493 19.1283 244.493 19.9998C244.493 20.8768 244.198 21.6185 243.609 22.2244Z" fill="white"/>
<path d="M239.779 21.7227L239.708 21.793C240.169 22.2606 240.743 22.4981 241.409 22.4969C242.075 22.4981 242.65 22.2606 243.11 21.793C243.574 21.325 243.807 20.7195 243.806 20.0004C243.807 19.2813 243.574 18.6758 243.11 18.2078C242.65 17.7402 242.075 17.5027 241.409 17.5039C240.743 17.5027 240.169 17.7402 239.708 18.2078C239.246 18.6758 239.012 19.2813 239.013 20.0004C239.012 20.7195 239.246 21.325 239.708 21.793L239.779 21.7227L239.85 21.6524C239.426 21.2207 239.214 20.6777 239.213 20.0004C239.214 19.3231 239.426 18.7801 239.85 18.3484C240.278 17.9168 240.79 17.7051 241.409 17.7039C242.028 17.7051 242.541 17.9168 242.968 18.3484C243.393 18.7801 243.605 19.3231 243.606 20.0004C243.605 20.6777 243.393 21.2207 242.968 21.6524C242.541 22.084 242.028 22.2957 241.409 22.2969C240.79 22.2957 240.278 22.084 239.85 21.6524L239.779 21.7227ZM243.609 22.225L243.538 22.1555C242.964 22.743 242.263 23.0332 241.409 23.0344C240.555 23.0332 239.854 22.743 239.282 22.1555L239.279 22.1524L239.282 22.1555C238.709 21.566 238.427 20.8551 238.426 20.0004C238.427 19.1457 238.709 18.4348 239.282 17.8453C239.854 17.2578 240.555 16.9672 241.409 16.966C242.258 16.9672 242.957 17.259 243.534 17.8496C244.108 18.4418 244.392 19.1516 244.393 20.0004C244.392 20.8551 244.109 21.566 243.538 22.1555L243.609 22.225L243.681 22.2945C244.287 21.6719 244.594 20.8996 244.593 20.0004C244.594 19.1063 244.286 18.3356 243.677 17.7102C243.068 17.0824 242.305 16.7649 241.409 16.766C240.509 16.7649 239.744 17.0809 239.138 17.7063V17.7059C238.531 18.3289 238.225 19.1012 238.226 20.0004C238.225 20.8996 238.531 21.6719 239.138 22.2949L239.141 22.2977L239.138 22.2945C239.744 22.9199 240.509 23.2352 241.409 23.2344C242.309 23.2352 243.075 22.9199 243.681 22.2945L243.609 22.225Z" fill="white"/>
<path d="M245.575 23V17H246.514L249.43 21.6676H249.463L249.43 20.5113V17H250.201V23H249.396L246.346 18.1062H246.312L246.346 19.2629V23H245.575Z" fill="white"/>
<path d="M245.575 22.9996H245.675V17.0996H246.458L249.374 21.7672H249.463H249.566L249.53 20.5094V17.0996H250.101V22.8996H249.452L246.401 18.0058H246.312H246.21L246.246 19.2641V22.8996H245.575V22.9996H245.675H245.575V23.0996H246.346H246.446V19.2609L246.412 18.1031L246.312 18.1058V18.2058H246.346V18.1058L246.261 18.159L249.341 23.0996H250.201H250.301V16.8996H249.43H249.33V20.5121L249.363 21.6699L249.463 21.6672V21.5672H249.43V21.6672L249.514 21.6141L246.569 16.8996H245.575H245.475V23.0996H245.575V22.9996Z" fill="white"/>
<path d="M276.936 40H278.802V27.4988H276.936V40ZM293.743 32.002L291.604 37.4219H291.54L289.32 32.002H287.31L290.639 39.5773L288.741 43.791H290.688L295.818 32.002H293.743ZM283.161 38.5801C282.549 38.5801 281.697 38.2746 281.697 37.5184C281.697 36.5535 282.759 36.1836 283.675 36.1836C284.496 36.1836 284.881 36.3605 285.38 36.602C285.235 37.7598 284.238 38.5801 283.161 38.5801ZM283.386 31.7285C282.035 31.7285 280.636 32.3238 280.057 33.6426L281.713 34.334C282.067 33.6426 282.726 33.4172 283.418 33.4172C284.383 33.4172 285.364 33.9965 285.38 35.0258V35.1543C285.042 34.9613 284.319 34.6719 283.434 34.6719C281.649 34.6719 279.831 35.6527 279.831 37.4863C279.831 39.159 281.295 40.2367 282.935 40.2367C284.19 40.2367 284.881 39.6738 285.316 39.0145H285.38V39.9793H287.181V35.1863C287.181 32.9672 285.525 31.7285 283.386 31.7285ZM271.854 33.5238H269.2V29.2387H271.854C273.249 29.2387 274.041 30.3937 274.041 31.3812C274.041 32.35 273.249 33.5238 271.854 33.5238ZM271.806 27.4988H267.335V40H269.2V35.2637H271.806C273.874 35.2637 275.907 33.7664 275.907 31.3812C275.907 28.9961 273.874 27.4988 271.806 27.4988ZM247.425 38.5824C246.136 38.5824 245.057 37.5031 245.057 36.0207C245.057 34.5227 246.136 33.427 247.425 33.427C248.698 33.427 249.697 34.5227 249.697 36.0207C249.697 37.5031 248.698 38.5824 247.425 38.5824ZM249.568 32.702H249.503C249.084 32.2027 248.279 31.7516 247.264 31.7516C245.137 31.7516 243.188 33.6203 243.188 36.0207C243.188 38.4051 245.137 40.2578 247.264 40.2578C248.279 40.2578 249.084 39.8066 249.503 39.2914H249.568V39.9035C249.568 41.5309 248.698 42.4008 247.296 42.4008C246.152 42.4008 245.443 41.5789 245.153 40.8863L243.526 41.5629C243.993 42.6906 245.234 44.0762 247.296 44.0762C249.487 44.0762 251.34 42.7871 251.34 39.6457V32.0094H249.568V32.702ZM252.629 40H254.497V27.4984H252.629V40ZM257.252 35.8758C257.204 34.2324 258.525 33.3949 259.475 33.3949C260.217 33.3949 260.845 33.7652 261.054 34.2973L257.252 35.8758ZM263.052 34.4582C262.698 33.5074 261.618 31.7516 259.411 31.7516C257.22 31.7516 255.4 33.4754 255.4 36.0047C255.4 38.3891 257.204 40.2578 259.62 40.2578C261.57 40.2578 262.698 39.0656 263.165 38.373L261.715 37.4062C261.232 38.1152 260.571 38.5824 259.62 38.5824C258.67 38.5824 257.993 38.1473 257.558 37.2937L263.245 34.9414L263.052 34.4582ZM217.744 33.0566V34.8609H222.061C221.932 35.8758 221.594 36.6168 221.079 37.1324C220.45 37.7609 219.468 38.4535 217.744 38.4535C215.086 38.4535 213.007 36.3109 213.007 33.6527C213.007 30.9945 215.086 28.8516 217.744 28.8516C219.178 28.8516 220.225 29.4156 220.998 30.1406L222.271 28.868C221.191 27.8367 219.757 27.0473 217.744 27.0473C214.103 27.0473 211.042 30.0117 211.042 33.6527C211.042 37.2937 214.103 40.2578 217.744 40.2578C219.709 40.2578 221.191 39.6137 222.351 38.4051C223.543 37.2129 223.914 35.5375 223.914 34.1844C223.914 33.7652 223.882 33.3789 223.817 33.0566H217.744ZM228.823 38.5824C227.534 38.5824 226.422 37.5191 226.422 36.0047C226.422 34.4742 227.534 33.427 228.823 33.427C230.111 33.427 231.223 34.4742 231.223 36.0047C231.223 37.5191 230.111 38.5824 228.823 38.5824ZM228.823 31.7516C226.47 31.7516 224.553 33.5398 224.553 36.0047C224.553 38.4535 226.47 40.2578 228.823 40.2578C231.175 40.2578 233.092 38.4535 233.092 36.0047C233.092 33.5398 231.175 31.7516 228.823 31.7516ZM238.136 38.5824C236.847 38.5824 235.736 37.5191 235.736 36.0047C235.736 34.4742 236.847 33.427 238.136 33.427C239.425 33.427 240.536 34.4742 240.536 36.0047C240.536 37.5191 239.425 38.5824 238.136 38.5824ZM238.136 31.7516C235.784 31.7516 233.867 33.5398 233.867 36.0047C233.867 38.4535 235.784 40.2578 238.136 40.2578C240.488 40.2578 242.405 38.4535 242.405 36.0047C242.405 33.5398 240.488 31.7516 238.136 31.7516Z" fill="white"/>
<path d="M180.51 42.3896L180.436 42.3185C180.145 42.0106 179.973 41.5325 179.973 40.9134V41.0591V18.9431C179.973 18.9411 179.973 18.9396 179.973 18.938C179.973 18.9399 179.973 18.9415 179.973 18.9435V19.0896C179.973 18.4192 180.173 17.9143 180.509 17.6114L192.898 30.0009L180.51 42.3896ZM179.973 18.9369C179.973 18.8817 179.974 18.8282 179.977 18.7755C179.974 18.8278 179.973 18.8817 179.973 18.9369ZM179.977 18.7732C179.977 18.7725 179.977 18.7716 179.977 18.7708C179.977 18.7716 179.977 18.7725 179.977 18.7732ZM179.977 18.7661C179.977 18.7658 179.977 18.7653 179.977 18.765C179.977 18.7653 179.977 18.7658 179.977 18.7661Z" fill="url(#paint0_linear)"/>
<path d="M197.028 34.2783L197.122 34.2248L202.015 31.4447C202.481 31.1795 202.792 30.858 202.947 30.5178C202.793 30.858 202.482 31.1799 202.015 31.4451L197.122 34.2252L197.028 34.2783ZM197.029 34.1318L192.898 30.0006L197.028 25.8701L202.015 28.7029C202.648 29.0627 203.003 29.5264 203.063 30.0002C203.063 30.0006 203.063 30.0014 203.063 30.0021C203.003 30.4748 202.648 30.9389 202.015 31.2986L197.029 34.1318Z" fill="url(#paint1_linear)"/>
<path d="M181.393 42.8613C181.047 42.8613 180.745 42.7488 180.509 42.5363L180.51 42.5359C180.745 42.7484 181.048 42.8613 181.394 42.8613C181.424 42.8613 181.454 42.8605 181.485 42.859C181.454 42.8605 181.423 42.8613 181.393 42.8613ZM181.393 42.7148C181.047 42.7152 180.745 42.6023 180.51 42.3898V42.3895L192.898 30.0008L197.029 34.132L182.514 42.3793C182.112 42.607 181.732 42.7148 181.393 42.7148ZM180.506 42.5336C180.484 42.5137 180.463 42.4926 180.442 42.4707L180.506 42.5336Z" fill="url(#paint2_linear)"/>
<path d="M192.898 30.001L180.509 17.6115C180.744 17.3994 181.046 17.2869 181.391 17.2869C181.731 17.2869 182.111 17.3951 182.514 17.6232L197.029 25.8705L192.898 30.001ZM197.122 25.7772L182.514 17.4772C182.111 17.249 181.731 17.1408 181.391 17.1408C181.39 17.1408 181.389 17.1408 181.387 17.1408C181.389 17.1408 181.391 17.1408 181.393 17.1408C181.731 17.1408 182.112 17.2486 182.514 17.4768L197.122 25.7772Z" fill="url(#paint3_linear)"/>
<path d="M181.485 42.8594C181.8 42.8414 182.148 42.7332 182.514 42.5258L197.028 34.2789L182.514 42.5258C182.148 42.7336 181.8 42.8414 181.485 42.8594ZM180.509 42.5367L180.506 42.534C180.507 42.5348 180.509 42.5359 180.509 42.5367ZM180.442 42.4711L180.435 42.4649V42.4645C180.438 42.4668 180.44 42.4691 180.442 42.4711Z" fill="black"/>
<path d="M197.028 34.2783L197.122 34.2248L197.028 34.2783Z" fill="url(#paint4_linear)"/>
<path d="M181.394 42.8613C181.048 42.8613 180.745 42.7484 180.51 42.5359L180.509 42.5363C180.509 42.5355 180.507 42.5344 180.506 42.5336L180.442 42.4707C180.44 42.4687 180.438 42.4664 180.435 42.4641L180.51 42.3898C180.745 42.6023 181.047 42.7152 181.393 42.7148C181.732 42.7148 182.112 42.607 182.514 42.3793L197.029 34.132L197.122 34.225L197.028 34.2785L182.514 42.5254C182.148 42.7328 181.8 42.841 181.485 42.859C181.454 42.8605 181.424 42.8613 181.394 42.8613Z" fill="url(#paint5_linear)"/>
<path d="M180.436 42.4648C180.145 42.1569 179.973 41.6788 179.973 41.0597V41.0593C179.973 41.6788 180.145 42.1565 180.436 42.4644V42.4648Z" fill="black"/>
<path d="M180.436 42.4639C180.145 42.156 179.973 41.6783 179.973 41.0588V40.9131C179.973 41.5322 180.145 42.0103 180.436 42.3182L180.51 42.3893L180.436 42.4639Z" fill="url(#paint6_linear)"/>
<path d="M180.435 42.4639L180.51 42.3893V42.3896L180.435 42.4639Z" fill="url(#paint7_linear)"/>
<path d="M202.947 30.5176C203.024 30.3488 203.063 30.1754 203.063 30.0019C203.063 30.0016 203.063 30.0012 203.063 30.0012C203.063 30.175 203.024 30.3484 202.947 30.5176Z" fill="black"/>
<path d="M197.122 34.2246L197.029 34.1316L202.015 31.2984C202.648 30.9387 203.003 30.4746 203.063 30.0019C203.063 30.1754 203.024 30.3488 202.947 30.5176C202.792 30.8578 202.481 31.1793 202.015 31.4445L197.122 34.2246Z" fill="url(#paint8_linear)"/>
<path d="M203.063 30.001V30.0006C203.063 29.4775 202.713 28.9545 202.015 28.5576L197.122 25.7775H197.122L197.122 25.7772L202.015 28.5572C202.714 28.9541 203.064 29.4779 203.063 30.001Z" fill="#404040"/>
<path d="M203.063 30C203.004 29.5262 202.648 29.0625 202.015 28.7027L197.029 25.8699L197.122 25.7769H197.122L202.015 28.557C202.713 28.9539 203.063 29.4769 203.063 30Z" fill="url(#paint9_linear)"/>
<path d="M179.973 18.9375C179.973 18.9371 179.973 18.9367 179.973 18.9363C179.973 18.9367 179.973 18.9371 179.973 18.9375ZM179.977 18.775C179.977 18.7742 179.977 18.7734 179.977 18.7726C179.977 18.7734 179.977 18.7742 179.977 18.775ZM179.977 18.7703C179.977 18.7687 179.977 18.7672 179.977 18.7656C179.977 18.7672 179.977 18.7687 179.977 18.7703ZM179.977 18.7644C180.035 17.7371 180.594 17.1437 181.384 17.1402C181.041 17.1422 180.743 17.2547 180.509 17.4652V17.4648L180.507 17.4676C180.482 17.4898 180.459 17.5133 180.436 17.5375C180.173 17.8152 180.007 18.2312 179.977 18.7644Z" fill="#404040"/>
<path d="M179.973 19.0898V18.9437C179.973 18.9417 179.973 18.9401 179.973 18.9382C179.973 18.9378 179.973 18.9374 179.973 18.937C179.973 18.8819 179.974 18.828 179.977 18.7757C179.977 18.7749 179.977 18.7741 179.977 18.7733C179.977 18.7726 179.977 18.7718 179.977 18.771C179.977 18.7694 179.977 18.7679 179.977 18.7663C179.977 18.7659 179.977 18.7655 179.977 18.7651C180.007 18.2319 180.173 17.8159 180.436 17.5382L180.509 17.6116C180.173 17.9144 179.973 18.4194 179.973 19.0898ZM180.507 17.4683L180.509 17.4655C180.509 17.4667 180.507 17.4675 180.507 17.4683Z" fill="url(#paint10_linear)"/>
<path d="M197.028 25.8701L182.514 17.6228C182.111 17.3947 181.73 17.2865 181.391 17.2865C181.046 17.2865 180.744 17.399 180.509 17.6111L180.435 17.5377C180.459 17.5135 180.482 17.49 180.507 17.4678C180.507 17.467 180.509 17.4662 180.509 17.4654C180.743 17.2549 181.041 17.1424 181.384 17.1404C181.385 17.1404 181.386 17.1404 181.387 17.1404C181.389 17.1404 181.39 17.1404 181.391 17.1404C181.73 17.1404 182.111 17.2486 182.514 17.4768L197.122 25.7768L197.121 25.7771L197.028 25.8701Z" fill="url(#paint11_linear)"/>
<defs>
<linearGradient id="paint0_linear" x1="191.8" y1="18.7098" x2="175.017" y2="35.4924" gradientUnits="userSpaceOnUse">
<stop stop-color="#00A0FF"/>
<stop offset="0.00657445" stop-color="#00A1FF"/>
<stop offset="0.2601" stop-color="#00BEFF"/>
<stop offset="0.5122" stop-color="#00D2FF"/>
<stop offset="0.7604" stop-color="#00DFFF"/>
<stop offset="1" stop-color="#00E3FF"/>
</linearGradient>
<linearGradient id="paint1_linear" x1="203.834" y1="30.0012" x2="179.637" y2="30.0012" gradientUnits="userSpaceOnUse">
<stop stop-color="#FFE000"/>
<stop offset="0.4087" stop-color="#FFBD00"/>
<stop offset="0.7754" stop-color="#FFA500"/>
<stop offset="1" stop-color="#FF9C00"/>
</linearGradient>
<linearGradient id="paint2_linear" x1="194.827" y1="32.2961" x2="172.069" y2="55.0544" gradientUnits="userSpaceOnUse">
<stop stop-color="#FF3A44"/>
<stop offset="1" stop-color="#C31162"/>
</linearGradient>
<linearGradient id="paint3_linear" x1="177.297" y1="10.1764" x2="187.46" y2="20.3389" gradientUnits="userSpaceOnUse">
<stop stop-color="#32A071"/>
<stop offset="0.0685" stop-color="#2DA771"/>
<stop offset="0.4762" stop-color="#15CF74"/>
<stop offset="0.8009" stop-color="#06E775"/>
<stop offset="1" stop-color="#00F076"/>
</linearGradient>
<linearGradient id="paint4_linear" x1="203.834" y1="30.0011" x2="179.638" y2="30.0011" gradientUnits="userSpaceOnUse">
<stop stop-color="#CCB300"/>
<stop offset="0.4087" stop-color="#CC9700"/>
<stop offset="0.7754" stop-color="#CC8400"/>
<stop offset="1" stop-color="#CC7D00"/>
</linearGradient>
<linearGradient id="paint5_linear" x1="194.827" y1="32.2961" x2="172.069" y2="55.0544" gradientUnits="userSpaceOnUse">
<stop stop-color="#CC2E36"/>
<stop offset="1" stop-color="#9C0E4E"/>
</linearGradient>
<linearGradient id="paint6_linear" x1="191.8" y1="18.7095" x2="175.017" y2="35.492" gradientUnits="userSpaceOnUse">
<stop stop-color="#008DE0"/>
<stop offset="0.00657445" stop-color="#008DE0"/>
<stop offset="0.2601" stop-color="#00A7E0"/>
<stop offset="0.5122" stop-color="#00B8E0"/>
<stop offset="0.7604" stop-color="#00C4E0"/>
<stop offset="1" stop-color="#00C7E0"/>
</linearGradient>
<linearGradient id="paint7_linear" x1="194.827" y1="32.2964" x2="172.07" y2="55.0549" gradientUnits="userSpaceOnUse">
<stop stop-color="#E0333C"/>
<stop offset="1" stop-color="#AB0F56"/>
</linearGradient>
<linearGradient id="paint8_linear" x1="203.834" y1="30.001" x2="179.637" y2="30.001" gradientUnits="userSpaceOnUse">
<stop stop-color="#E0C500"/>
<stop offset="0.4087" stop-color="#E0A600"/>
<stop offset="0.7754" stop-color="#E09100"/>
<stop offset="1" stop-color="#E08900"/>
</linearGradient>
<linearGradient id="paint9_linear" x1="203.834" y1="30.001" x2="179.637" y2="30.001" gradientUnits="userSpaceOnUse">
<stop stop-color="#FFE840"/>
<stop offset="0.4087" stop-color="#FFCE40"/>
<stop offset="0.7754" stop-color="#FFBC40"/>
<stop offset="1" stop-color="#FFB540"/>
</linearGradient>
<linearGradient id="paint10_linear" x1="191.8" y1="18.71" x2="175.017" y2="35.4925" gradientUnits="userSpaceOnUse">
<stop stop-color="#40B8FF"/>
<stop offset="0.00657445" stop-color="#40B9FF"/>
<stop offset="0.2601" stop-color="#40CEFF"/>
<stop offset="0.5122" stop-color="#40DDFF"/>
<stop offset="0.7604" stop-color="#40E7FF"/>
<stop offset="1" stop-color="#40EAFF"/>
</linearGradient>
<linearGradient id="paint11_linear" x1="177.297" y1="10.176" x2="187.46" y2="20.3385" gradientUnits="userSpaceOnUse">
<stop stop-color="#65B895"/>
<stop offset="0.0685" stop-color="#62BD95"/>
<stop offset="0.4762" stop-color="#50DB97"/>
<stop offset="0.8009" stop-color="#44ED98"/>
<stop offset="1" stop-color="#40F498"/>
</linearGradient>
</defs>
</svg>
