<svg width="181" height="110" viewBox="0 0 181 110" fill="none" xmlns="http://www.w3.org/2000/svg">
<path d="M37.6987 79.8779C37.1202 79.8779 36.7696 79.6763 36.6469 79.2731C36.5417 78.8524 36.4891 77.6165 36.4891 75.5654V64.6263C36.4891 63.89 36.8046 63.5218 37.4358 63.5218C38.1019 63.5218 38.435 63.8724 38.435 64.5737C38.435 65.9937 38.6015 66.9754 38.9346 67.5188C39.2852 68.0447 39.89 68.3077 40.749 68.3077C40.7315 68.3077 41.0997 68.2376 41.8535 68.0973C42.6073 67.9571 43.0982 67.887 43.3261 67.887C44.8512 67.887 46.0433 68.4041 46.9023 69.4384C47.7788 70.4552 48.2171 71.884 48.2171 73.7247C48.2171 75.6706 47.7876 77.2396 46.9286 78.4317C46.0696 79.6062 44.9389 80.1935 43.5364 80.1935C42.9228 80.1935 42.2304 80.0883 41.459 79.8779C40.6877 79.6676 40.1355 79.5624 39.8024 79.5624C39.3817 79.5448 39.031 79.5974 38.7505 79.7202C38.4876 79.8253 38.137 79.8779 37.6987 79.8779ZM38.5402 73.8824C38.5402 75.6005 38.9259 76.9503 39.6972 77.932C40.3809 78.8086 41.2574 79.2468 42.3268 79.2468C43.2033 79.2468 44.0185 78.8874 44.7723 78.1687C45.7365 77.222 46.2186 75.8985 46.2186 74.198C46.2186 72.4625 45.8505 71.1126 45.1142 70.1484C44.4305 69.2719 43.5189 68.8336 42.3794 68.8336C41.1347 68.8336 40.1705 69.342 39.4868 70.3588C38.8557 71.2879 38.5402 72.4625 38.5402 73.8824ZM60.8556 72.8569C60.8556 73.5055 60.4699 73.8211 59.6986 73.8036L56.3853 73.751C54.7549 73.7334 53.6067 73.9 52.9405 74.2506C52.2919 74.6012 51.9676 75.2235 51.9676 76.1176C51.9676 76.9065 52.3269 77.6252 53.0457 78.2739C53.782 78.905 54.5972 79.2205 55.4912 79.2205C56.3502 79.2205 56.9638 79.0978 57.3319 78.8524L58.6993 77.9583C59.0675 77.7129 59.348 77.5902 59.5408 77.5902C59.8914 77.5902 60.0667 77.7217 60.0667 77.9846C60.0667 78.4579 59.6635 78.9313 58.8571 79.4046C57.9105 79.9831 56.7359 80.2724 55.3335 80.2724C53.5979 80.2724 52.1955 79.7289 51.1261 78.642C50.0743 77.5376 49.5483 76.065 49.5483 74.2243C49.5483 72.2433 50.048 70.6831 51.0472 69.5436C52.0465 68.3866 53.4752 67.8081 55.3335 67.8081C57.2969 67.8081 58.787 68.4742 59.8038 69.8066C60.505 70.7708 60.8556 71.7875 60.8556 72.8569ZM52.2305 71.2791C52.2305 71.9102 52.4935 72.4274 53.0194 72.8306C53.5629 73.2338 54.229 73.4354 55.0179 73.4354H55.912C56.5431 73.4354 57.1128 73.2338 57.6212 72.8306C58.1296 72.4274 58.3838 71.9628 58.3838 71.4369C58.3838 70.7357 58.1208 70.1309 57.5949 69.6225C57.069 69.1141 56.3502 68.8599 55.4386 68.8599C54.4569 68.8599 53.6768 69.0878 53.0983 69.5436C52.5198 69.9994 52.2305 70.5779 52.2305 71.2791ZM70.99 74.7239V69.3069C70.99 68.5707 71.2881 68.2025 71.8841 68.2025C72.41 68.2025 72.673 68.6758 72.673 69.6225V78.4054C72.673 79.1767 72.2873 79.5624 71.516 79.5624C71.2179 79.5624 70.8147 79.5186 70.3063 79.4309C69.798 79.3432 69.3947 79.2994 69.0967 79.2994C68.8513 79.2994 68.3429 79.3958 67.5716 79.5887C66.8002 79.7815 66.2392 79.8779 65.8886 79.8779C64.6965 79.8779 63.8726 79.5974 63.4168 79.0365C62.961 78.4755 62.7331 77.4412 62.7331 75.9335V69.2544C62.7331 68.5531 62.9785 68.2025 63.4694 68.2025C64.1005 68.2025 64.416 68.5707 64.416 69.3069V75.0395C64.416 75.8634 64.5738 76.5909 64.8894 77.222C65.4328 78.2914 66.3444 78.8261 67.6241 78.8261C68.6059 78.8261 69.4123 78.4404 70.0434 77.6691C70.6745 76.8802 70.99 75.8985 70.99 74.7239ZM77.215 78.1687L74.3224 69.1229C74.2698 68.9476 74.2435 68.781 74.2435 68.6233C74.2435 68.0798 74.5679 67.8081 75.2165 67.8081C75.9878 67.8081 76.4787 68.2814 76.6891 69.2281L77.5305 72.9095C77.7409 73.8562 77.9513 74.5135 78.1616 74.8817C78.4421 75.3901 78.8278 75.6443 79.3187 75.6443C80.1426 75.6443 80.7211 75.0132 81.0542 73.751C81.212 72.9796 81.5626 71.4369 82.106 69.1229C82.3339 68.2463 82.8423 67.8081 83.6312 67.8081C84.3149 67.8081 84.6568 68.0798 84.6568 68.6233C84.6568 68.746 84.6305 68.8774 84.5779 69.0177L80.4231 81.6398C79.7569 83.6733 78.4947 84.6901 76.6365 84.6901C75.5496 84.6901 75.0061 84.4447 75.0061 83.9538C75.0061 83.6383 75.2253 83.3665 75.6635 83.1386C75.9966 82.9809 76.3209 82.8318 76.6365 82.6916C76.9345 82.4812 77.1975 82.2095 77.4254 81.8764C77.7059 81.4732 77.811 81.1138 77.7409 80.7983C77.7935 80.2899 77.6182 79.4134 77.215 78.1687ZM93.3868 77.038C93.3868 75.7582 92.072 74.8992 89.4424 74.461C87.0232 74.0578 85.8136 73.0234 85.8136 71.358C85.8136 70.201 86.322 69.2806 87.3387 68.597C88.2679 67.9834 89.4074 67.6766 90.7572 67.6766C91.7565 67.6766 92.6681 67.8168 93.492 68.0973C94.3335 68.3603 94.7542 68.6934 94.7542 69.0966C94.7542 69.4121 94.5088 69.5699 94.0179 69.5699C93.7374 69.5699 93.2816 69.4647 92.6505 69.2544C92.037 69.044 91.476 68.9388 90.9676 68.9388C90.2839 68.9388 89.7054 69.1141 89.232 69.4647C88.7763 69.8153 88.5484 70.2536 88.5484 70.7795C88.5484 71.9541 89.793 72.8131 92.2824 73.3565C93.5797 73.637 94.5088 73.9964 95.0698 74.4347C95.7009 74.9255 96.0164 75.6355 96.0164 76.5646C96.0164 77.6691 95.5431 78.5894 94.5964 79.3257C93.6498 80.0445 92.4402 80.4038 90.9676 80.4038C89.5651 80.4038 88.373 80.2285 87.3913 79.8779C86.4096 79.5098 85.9188 79.1066 85.9188 78.6683C85.9188 78.2826 86.1467 78.0898 86.6025 78.0898C86.8128 78.0898 87.3475 78.2739 88.2065 78.642C89.0655 78.9926 89.8807 79.1767 90.652 79.1942C91.511 79.2118 92.1947 79.0014 92.7031 78.5631C93.1589 78.1599 93.3868 77.6515 93.3868 77.038ZM108.014 67.9921C108.014 69.3595 107.733 70.5341 107.172 71.5158C106.892 72.0242 106.524 72.5151 106.068 72.9884C105.91 73.1286 105.261 73.7247 104.122 74.7765C103.421 75.4427 103.07 76.0387 103.07 76.5646C103.07 77.2308 103.324 77.6954 103.833 77.9583C104.341 78.2213 105.209 78.3528 106.436 78.3528C106.892 78.3528 107.242 78.4317 107.488 78.5894C107.733 78.7297 107.856 78.8787 107.856 79.0365C107.856 79.5974 107.155 79.8779 105.752 79.8779H99.7568C98.5998 79.8779 98.0213 79.5799 98.0213 78.9839C98.0213 78.5456 98.2053 78.1249 98.5735 77.7217C98.8014 77.4938 99.6341 76.7575 101.072 75.5128C101.615 75.0395 102.009 74.6976 102.255 74.4873C103.096 73.6808 103.771 72.9358 104.28 72.2521C105.156 71.06 105.595 69.8329 105.595 68.5707C105.595 67.5714 105.358 66.765 104.885 66.1514C104.411 65.5203 103.806 65.2048 103.07 65.2048C102.281 65.2048 101.676 65.4765 101.256 66.0199C101.186 66.1076 100.914 66.5985 100.441 67.4925C100.178 68.036 99.8445 68.3077 99.4413 68.3077C98.74 68.3077 98.3894 68.0097 98.3894 67.4136C98.3894 66.502 98.8189 65.6693 99.6779 64.9155C100.625 64.0916 101.755 63.6796 103.07 63.6796C104.543 63.6796 105.726 64.039 106.62 64.7577C107.549 65.5291 108.014 66.6072 108.014 67.9921ZM120.217 71.6473C120.217 74.5574 119.708 76.7399 118.691 78.195C117.815 79.4747 116.64 80.1146 115.168 80.1146C113.064 80.1146 111.548 79.1241 110.618 77.1431C109.97 75.7758 109.646 74.049 109.646 71.9628C109.646 69.5787 110.101 67.6591 111.013 66.204C111.977 64.6438 113.327 63.8637 115.063 63.8637C116.64 63.8637 117.885 64.5123 118.797 65.8096C119.743 67.1945 120.217 69.1404 120.217 71.6473ZM111.434 72.1732C111.434 76.5909 112.608 78.7998 114.957 78.7998C116.079 78.7998 116.956 78.23 117.587 77.0906C118.218 75.9335 118.534 74.2418 118.534 72.0154C118.534 67.4925 117.341 65.2311 114.957 65.2311C113.87 65.2311 113.02 65.8096 112.407 66.9666C111.758 68.1762 111.434 69.9118 111.434 72.1732ZM131.947 67.9921C131.947 69.3595 131.667 70.5341 131.106 71.5158C130.825 72.0242 130.457 72.5151 130.001 72.9884C129.844 73.1286 129.195 73.7247 128.055 74.7765C127.354 75.4427 127.004 76.0387 127.004 76.5646C127.004 77.2308 127.258 77.6954 127.766 77.9583C128.275 78.2213 129.142 78.3528 130.369 78.3528C130.825 78.3528 131.176 78.4317 131.421 78.5894C131.667 78.7297 131.789 78.8787 131.789 79.0365C131.789 79.5974 131.088 79.8779 129.686 79.8779H123.69C122.533 79.8779 121.955 79.5799 121.955 78.9839C121.955 78.5456 122.139 78.1249 122.507 77.7217C122.735 77.4938 123.568 76.7575 125.005 75.5128C125.549 75.0395 125.943 74.6976 126.188 74.4873C127.03 73.6808 127.705 72.9358 128.213 72.2521C129.09 71.06 129.528 69.8329 129.528 68.5707C129.528 67.5714 129.291 66.765 128.818 66.1514C128.345 65.5203 127.74 65.2048 127.004 65.2048C126.215 65.2048 125.61 65.4765 125.189 66.0199C125.119 66.1076 124.847 66.5985 124.374 67.4925C124.111 68.036 123.778 68.3077 123.375 68.3077C122.673 68.3077 122.323 68.0097 122.323 67.4136C122.323 66.502 122.752 65.6693 123.611 64.9155C124.558 64.0916 125.689 63.6796 127.004 63.6796C128.476 63.6796 129.659 64.039 130.554 64.7577C131.483 65.5291 131.947 66.6072 131.947 67.9921ZM139.022 66.4407V77.5902C139.022 79.4134 138.558 80.325 137.629 80.325C136.857 80.325 136.358 80.1584 136.13 79.8253C135.902 79.4923 135.788 78.7472 135.788 77.5902V69.9906C135.788 69.0615 135.674 68.4655 135.446 68.2025C135.271 68.0272 134.911 67.9396 134.368 67.9396C133.456 67.9396 133 67.5626 133 66.8088C133 66.2128 133.281 65.7658 133.842 65.4677C134.736 65.0119 135.236 64.7227 135.341 64.6C135.516 64.3896 135.884 64.0039 136.445 63.4429C136.813 63.1274 137.208 62.9696 137.629 62.9696C138.312 62.9696 138.742 63.3465 138.917 64.1003C138.987 64.3984 139.022 65.1785 139.022 66.4407Z" fill="#C33C0E"/>
<path d="M35.1939 44.6787H34.1859V34.7667H35.1939V44.6787ZM38.6206 38.1267C38.6393 38.304 38.6533 38.5 38.6626 38.7147C38.6719 38.9294 38.6766 39.1067 38.6766 39.2467H38.7046C38.8913 38.864 39.1946 38.556 39.6146 38.3227C40.0346 38.08 40.4779 37.9587 40.9446 37.9587C41.7753 37.9587 42.3959 38.206 42.8066 38.7007C43.2266 39.1954 43.4366 39.8487 43.4366 40.6607V44.6787H42.4846V41.0527C42.4846 40.7074 42.4566 40.3947 42.4006 40.1147C42.3446 39.8347 42.2466 39.5967 42.1066 39.4007C41.9759 39.1954 41.7939 39.0367 41.5606 38.9247C41.3366 38.8127 41.0519 38.7567 40.7066 38.7567C40.4546 38.7567 40.2073 38.808 39.9646 38.9107C39.7313 39.0134 39.5213 39.172 39.3346 39.3867C39.1479 39.592 38.9986 39.858 38.8866 40.1847C38.7746 40.502 38.7186 40.88 38.7186 41.3187V44.6787H37.7666V39.5687C37.7666 39.3914 37.7619 39.1627 37.7526 38.8827C37.7433 38.6027 37.7293 38.3507 37.7106 38.1267H38.6206ZM50.4654 39.2187H50.4794L55.1974 34.7667H56.6394L51.6414 39.2607L56.9194 44.6787H55.4354L50.4794 39.4007H50.4654V44.6787H49.4574V34.7667H50.4654V39.2187ZM64.2785 41.4027C64.2785 41.8974 64.1899 42.3547 64.0125 42.7747C63.8445 43.1947 63.6065 43.5587 63.2985 43.8667C62.9905 44.1747 62.6219 44.4174 62.1925 44.5947C61.7632 44.7627 61.2919 44.8467 60.7785 44.8467C60.2745 44.8467 59.8079 44.7627 59.3785 44.5947C58.9492 44.4174 58.5805 44.1747 58.2725 43.8667C57.9645 43.5587 57.7219 43.1947 57.5445 42.7747C57.3765 42.3547 57.2925 41.8974 57.2925 41.4027C57.2925 40.908 57.3765 40.4507 57.5445 40.0307C57.7219 39.6107 57.9645 39.2467 58.2725 38.9387C58.5805 38.6307 58.9492 38.3927 59.3785 38.2247C59.8079 38.0474 60.2745 37.9587 60.7785 37.9587C61.2919 37.9587 61.7632 38.0474 62.1925 38.2247C62.6219 38.3927 62.9905 38.6307 63.2985 38.9387C63.6065 39.2467 63.8445 39.6107 64.0125 40.0307C64.1899 40.4507 64.2785 40.908 64.2785 41.4027ZM63.2705 41.4027C63.2705 41.0387 63.2099 40.698 63.0885 40.3807C62.9765 40.054 62.8132 39.774 62.5985 39.5407C62.3839 39.298 62.1225 39.1067 61.8145 38.9667C61.5065 38.8267 61.1612 38.7567 60.7785 38.7567C60.3959 38.7567 60.0505 38.8267 59.7425 38.9667C59.4439 39.1067 59.1872 39.298 58.9725 39.5407C58.7579 39.774 58.5899 40.054 58.4685 40.3807C58.3565 40.698 58.3005 41.0387 58.3005 41.4027C58.3005 41.7667 58.3565 42.112 58.4685 42.4387C58.5899 42.756 58.7579 43.036 58.9725 43.2787C59.1872 43.512 59.4439 43.6987 59.7425 43.8387C60.0505 43.9694 60.3959 44.0347 60.7785 44.0347C61.1612 44.0347 61.5065 43.9694 61.8145 43.8387C62.1225 43.6987 62.3839 43.512 62.5985 43.2787C62.8132 43.036 62.9765 42.756 63.0885 42.4387C63.2099 42.112 63.2705 41.7667 63.2705 41.4027ZM72.8371 41.4027C72.8371 41.8974 72.7485 42.3547 72.5711 42.7747C72.4031 43.1947 72.1651 43.5587 71.8571 43.8667C71.5491 44.1747 71.1805 44.4174 70.7511 44.5947C70.3218 44.7627 69.8505 44.8467 69.3371 44.8467C68.8331 44.8467 68.3665 44.7627 67.9371 44.5947C67.5078 44.4174 67.1391 44.1747 66.8311 43.8667C66.5231 43.5587 66.2805 43.1947 66.1031 42.7747C65.9351 42.3547 65.8511 41.8974 65.8511 41.4027C65.8511 40.908 65.9351 40.4507 66.1031 40.0307C66.2805 39.6107 66.5231 39.2467 66.8311 38.9387C67.1391 38.6307 67.5078 38.3927 67.9371 38.2247C68.3665 38.0474 68.8331 37.9587 69.3371 37.9587C69.8505 37.9587 70.3218 38.0474 70.7511 38.2247C71.1805 38.3927 71.5491 38.6307 71.8571 38.9387C72.1651 39.2467 72.4031 39.6107 72.5711 40.0307C72.7485 40.4507 72.8371 40.908 72.8371 41.4027ZM71.8291 41.4027C71.8291 41.0387 71.7685 40.698 71.6471 40.3807C71.5351 40.054 71.3718 39.774 71.1571 39.5407C70.9425 39.298 70.6811 39.1067 70.3731 38.9667C70.0651 38.8267 69.7198 38.7567 69.3371 38.7567C68.9545 38.7567 68.6091 38.8267 68.3011 38.9667C68.0025 39.1067 67.7458 39.298 67.5311 39.5407C67.3165 39.774 67.1485 40.054 67.0271 40.3807C66.9151 40.698 66.8591 41.0387 66.8591 41.4027C66.8591 41.7667 66.9151 42.112 67.0271 42.4387C67.1485 42.756 67.3165 43.036 67.5311 43.2787C67.7458 43.512 68.0025 43.6987 68.3011 43.8387C68.6091 43.9694 68.9545 44.0347 69.3371 44.0347C69.7198 44.0347 70.0651 43.9694 70.3731 43.8387C70.6811 43.6987 70.9425 43.512 71.1571 43.2787C71.3718 43.036 71.5351 42.756 71.6471 42.4387C71.7685 42.112 71.8291 41.7667 71.8291 41.4027ZM75.8377 48.0387H74.8857V38.1267H75.8377V39.2607H75.8797C76.1504 38.8314 76.5097 38.5094 76.9577 38.2947C77.4151 38.0707 77.8771 37.9587 78.3437 37.9587C78.8571 37.9587 79.3191 38.0474 79.7297 38.2247C80.1497 38.402 80.5044 38.6447 80.7937 38.9527C81.0924 39.2607 81.3211 39.6247 81.4797 40.0447C81.6477 40.4647 81.7317 40.9174 81.7317 41.4027C81.7317 41.888 81.6477 42.3407 81.4797 42.7607C81.3211 43.1807 81.0924 43.5447 80.7937 43.8527C80.5044 44.1607 80.1497 44.4034 79.7297 44.5807C79.3191 44.758 78.8571 44.8467 78.3437 44.8467C77.8771 44.8467 77.4151 44.7394 76.9577 44.5247C76.5097 44.3007 76.1504 43.9834 75.8797 43.5727H75.8377V48.0387ZM80.7237 41.4027C80.7237 41.0387 80.6677 40.698 80.5557 40.3807C80.4437 40.054 80.2804 39.774 80.0657 39.5407C79.8604 39.298 79.6037 39.1067 79.2957 38.9667C78.9877 38.8267 78.6377 38.7567 78.2457 38.7567C77.8817 38.7567 77.5457 38.8267 77.2377 38.9667C76.9297 39.0974 76.6637 39.284 76.4397 39.5267C76.2157 39.76 76.0384 40.04 75.9077 40.3667C75.7864 40.684 75.7257 41.0294 75.7257 41.4027C75.7257 41.776 75.7864 42.126 75.9077 42.4527C76.0384 42.77 76.2157 43.0454 76.4397 43.2787C76.6637 43.512 76.9297 43.6987 77.2377 43.8387C77.5457 43.9694 77.8817 44.0347 78.2457 44.0347C78.6377 44.0347 78.9877 43.9694 79.2957 43.8387C79.6037 43.6987 79.8604 43.512 80.0657 43.2787C80.2804 43.036 80.4437 42.756 80.5557 42.4387C80.6677 42.112 80.7237 41.7667 80.7237 41.4027ZM88.7705 40.8987C88.7425 40.2827 88.5418 39.774 88.1685 39.3727C87.8045 38.962 87.2818 38.7567 86.6005 38.7567C86.2831 38.7567 85.9891 38.8174 85.7185 38.9387C85.4478 39.0507 85.2098 39.2094 85.0045 39.4147C84.7991 39.6107 84.6358 39.8394 84.5145 40.1007C84.3931 40.3527 84.3231 40.6187 84.3045 40.8987H88.7705ZM89.7365 41.2067C89.7365 41.272 89.7365 41.342 89.7365 41.4167C89.7365 41.4914 89.7318 41.5707 89.7225 41.6547H84.2905C84.2998 41.9814 84.3651 42.2894 84.4865 42.5787C84.6078 42.868 84.7758 43.12 84.9905 43.3347C85.2051 43.5494 85.4571 43.722 85.7465 43.8527C86.0358 43.974 86.3485 44.0347 86.6845 44.0347C87.1791 44.0347 87.6038 43.9227 87.9585 43.6987C88.3225 43.4654 88.5978 43.1994 88.7845 42.9007L89.4985 43.4607C89.1065 43.9554 88.6725 44.31 88.1965 44.5247C87.7298 44.7394 87.2258 44.8467 86.6845 44.8467C86.1991 44.8467 85.7465 44.7627 85.3265 44.5947C84.9158 44.4174 84.5611 44.1747 84.2625 43.8667C83.9638 43.5587 83.7258 43.1947 83.5485 42.7747C83.3805 42.3547 83.2965 41.8974 83.2965 41.4027C83.2965 40.908 83.3805 40.4507 83.5485 40.0307C83.7165 39.6107 83.9498 39.2467 84.2485 38.9387C84.5471 38.6307 84.8971 38.3927 85.2985 38.2247C85.6998 38.0474 86.1338 37.9587 86.6005 37.9587C87.1138 37.9587 87.5665 38.0474 87.9585 38.2247C88.3505 38.3927 88.6771 38.626 88.9385 38.9247C89.1998 39.214 89.3958 39.5547 89.5265 39.9467C89.6665 40.3387 89.7365 40.7587 89.7365 41.2067ZM91.7842 39.5687C91.7842 39.3914 91.7795 39.1627 91.7702 38.8827C91.7608 38.6027 91.7468 38.3507 91.7282 38.1267H92.6382C92.6568 38.304 92.6708 38.5 92.6802 38.7147C92.6895 38.9294 92.6942 39.1067 92.6942 39.2467H92.7222C92.9088 38.864 93.1888 38.556 93.5622 38.3227C93.9355 38.08 94.3555 37.9587 94.8222 37.9587C94.9435 37.9587 95.0508 37.9634 95.1442 37.9727C95.2468 37.982 95.3495 38.0007 95.4522 38.0287L95.3262 38.9247C95.2702 38.906 95.1768 38.8874 95.0462 38.8687C94.9155 38.85 94.7848 38.8407 94.6542 38.8407C94.4022 38.8407 94.1595 38.8874 93.9262 38.9807C93.6928 39.074 93.4875 39.2234 93.3102 39.4287C93.1422 39.6247 93.0022 39.8814 92.8902 40.1987C92.7875 40.5067 92.7362 40.88 92.7362 41.3187V44.6787H91.7842V39.5687ZM100.795 40.4507C100.795 39.8814 100.646 39.4567 100.347 39.1767C100.048 38.8967 99.6144 38.7567 99.045 38.7567C98.653 38.7567 98.289 38.8267 97.953 38.9667C97.617 39.1067 97.3324 39.2934 97.099 39.5267L96.567 38.8967C96.8377 38.626 97.1924 38.402 97.631 38.2247C98.079 38.0474 98.583 37.9587 99.143 37.9587C99.4977 37.9587 99.829 38.01 100.137 38.1127C100.445 38.206 100.716 38.3507 100.949 38.5467C101.182 38.7427 101.364 38.99 101.495 39.2887C101.626 39.5874 101.691 39.9374 101.691 40.3387V43.2087C101.691 43.4607 101.7 43.722 101.719 43.9927C101.738 44.2634 101.766 44.492 101.803 44.6787H100.949C100.921 44.52 100.898 44.3474 100.879 44.1607C100.86 43.974 100.851 43.792 100.851 43.6147H100.823C100.524 44.0534 100.184 44.3707 99.801 44.5667C99.4277 44.7534 98.975 44.8467 98.443 44.8467C98.191 44.8467 97.9297 44.8094 97.659 44.7347C97.3977 44.6694 97.155 44.5574 96.931 44.3987C96.7164 44.24 96.5344 44.0347 96.385 43.7827C96.245 43.5307 96.175 43.2227 96.175 42.8587C96.175 42.3547 96.301 41.958 96.553 41.6687C96.8144 41.37 97.1597 41.1507 97.589 41.0107C98.0184 40.8614 98.5084 40.768 99.059 40.7307C99.619 40.684 100.198 40.6607 100.795 40.6607V40.4507ZM100.515 41.4027C100.123 41.4027 99.7264 41.4214 99.325 41.4587C98.933 41.4867 98.5737 41.552 98.247 41.6547C97.9297 41.748 97.6684 41.888 97.463 42.0747C97.2577 42.2614 97.155 42.5087 97.155 42.8167C97.155 43.05 97.197 43.246 97.281 43.4047C97.3744 43.5634 97.4957 43.694 97.645 43.7967C97.7944 43.89 97.9577 43.96 98.135 44.0067C98.3217 44.044 98.5084 44.0627 98.695 44.0627C99.031 44.0627 99.3297 44.0067 99.591 43.8947C99.8524 43.7734 100.072 43.6147 100.249 43.4187C100.426 43.2134 100.562 42.98 100.655 42.7187C100.748 42.4574 100.795 42.182 100.795 41.8927V41.4027H100.515ZM106.961 38.9247H105.113V42.7467C105.113 42.9894 105.136 43.19 105.183 43.3487C105.229 43.5074 105.295 43.6334 105.379 43.7267C105.472 43.8107 105.579 43.8714 105.701 43.9087C105.822 43.9367 105.953 43.9507 106.093 43.9507C106.223 43.9507 106.359 43.932 106.499 43.8947C106.648 43.8574 106.788 43.806 106.919 43.7407L106.961 44.5667C106.793 44.632 106.615 44.6787 106.429 44.7067C106.251 44.744 106.055 44.7627 105.841 44.7627C105.663 44.7627 105.477 44.7394 105.281 44.6927C105.085 44.646 104.903 44.5574 104.735 44.4267C104.567 44.296 104.427 44.1187 104.315 43.8947C104.212 43.6707 104.161 43.3767 104.161 43.0127V38.9247H102.803V38.1267H104.161V36.2787H105.113V38.1267H106.961V38.9247ZM109.416 44.6787H108.464V38.1267H109.416V44.6787ZM109.612 35.6067C109.612 35.8027 109.542 35.966 109.402 36.0967C109.262 36.218 109.108 36.2787 108.94 36.2787C108.772 36.2787 108.618 36.218 108.478 36.0967C108.338 35.966 108.268 35.8027 108.268 35.6067C108.268 35.4107 108.338 35.252 108.478 35.1307C108.618 35 108.772 34.9347 108.94 34.9347C109.108 34.9347 109.262 35 109.402 35.1307C109.542 35.252 109.612 35.4107 109.612 35.6067ZM118.46 41.4027C118.46 41.8974 118.372 42.3547 118.194 42.7747C118.026 43.1947 117.788 43.5587 117.48 43.8667C117.172 44.1747 116.804 44.4174 116.374 44.5947C115.945 44.7627 115.474 44.8467 114.96 44.8467C114.456 44.8467 113.99 44.7627 113.56 44.5947C113.131 44.4174 112.762 44.1747 112.454 43.8667C112.146 43.5587 111.904 43.1947 111.726 42.7747C111.558 42.3547 111.474 41.8974 111.474 41.4027C111.474 40.908 111.558 40.4507 111.726 40.0307C111.904 39.6107 112.146 39.2467 112.454 38.9387C112.762 38.6307 113.131 38.3927 113.56 38.2247C113.99 38.0474 114.456 37.9587 114.96 37.9587C115.474 37.9587 115.945 38.0474 116.374 38.2247C116.804 38.3927 117.172 38.6307 117.48 38.9387C117.788 39.2467 118.026 39.6107 118.194 40.0307C118.372 40.4507 118.46 40.908 118.46 41.4027ZM117.452 41.4027C117.452 41.0387 117.392 40.698 117.27 40.3807C117.158 40.054 116.995 39.774 116.78 39.5407C116.566 39.298 116.304 39.1067 115.996 38.9667C115.688 38.8267 115.343 38.7567 114.96 38.7567C114.578 38.7567 114.232 38.8267 113.924 38.9667C113.626 39.1067 113.369 39.298 113.154 39.5407C112.94 39.774 112.772 40.054 112.65 40.3807C112.538 40.698 112.482 41.0387 112.482 41.4027C112.482 41.7667 112.538 42.112 112.65 42.4387C112.772 42.756 112.94 43.036 113.154 43.2787C113.369 43.512 113.626 43.6987 113.924 43.8387C114.232 43.9694 114.578 44.0347 114.96 44.0347C115.343 44.0347 115.688 43.9694 115.996 43.8387C116.304 43.6987 116.566 43.512 116.78 43.2787C116.995 43.036 117.158 42.756 117.27 42.4387C117.392 42.112 117.452 41.7667 117.452 41.4027ZM121.363 38.1267C121.381 38.304 121.395 38.5 121.405 38.7147C121.414 38.9294 121.419 39.1067 121.419 39.2467H121.447C121.633 38.864 121.937 38.556 122.357 38.3227C122.777 38.08 123.22 37.9587 123.687 37.9587C124.517 37.9587 125.138 38.206 125.549 38.7007C125.969 39.1954 126.179 39.8487 126.179 40.6607V44.6787H125.227V41.0527C125.227 40.7074 125.199 40.3947 125.143 40.1147C125.087 39.8347 124.989 39.5967 124.849 39.4007C124.718 39.1954 124.536 39.0367 124.303 38.9247C124.079 38.8127 123.794 38.7567 123.449 38.7567C123.197 38.7567 122.949 38.808 122.707 38.9107C122.473 39.0134 122.263 39.172 122.077 39.3867C121.89 39.592 121.741 39.858 121.629 40.1847C121.517 40.502 121.461 40.88 121.461 41.3187V44.6787H120.509V39.5687C120.509 39.3914 120.504 39.1627 120.495 38.8827C120.485 38.6027 120.471 38.3507 120.453 38.1267H121.363ZM133.082 39.2467C133.268 38.864 133.553 38.556 133.936 38.3227C134.328 38.08 134.762 37.9587 135.238 37.9587C135.415 37.9587 135.597 37.9774 135.784 38.0147C135.98 38.052 136.166 38.1267 136.344 38.2387C136.53 38.3414 136.698 38.4814 136.848 38.6587C137.006 38.836 137.142 39.0647 137.254 39.3447C137.478 38.8967 137.781 38.556 138.164 38.3227C138.556 38.08 139.018 37.9587 139.55 37.9587C140.38 37.9587 141.001 38.206 141.412 38.7007C141.832 39.1954 142.042 39.8487 142.042 40.6607V44.6787H141.09V41.0527C141.09 40.362 140.959 39.8067 140.698 39.3867C140.446 38.9667 140.012 38.7567 139.396 38.7567C139.05 38.7567 138.756 38.8267 138.514 38.9667C138.28 39.1067 138.089 39.2934 137.94 39.5267C137.8 39.7507 137.697 40.0074 137.632 40.2967C137.566 40.586 137.534 40.8847 137.534 41.1927V44.6787H136.582V40.8567C136.582 40.5394 136.558 40.25 136.512 39.9887C136.465 39.7274 136.381 39.508 136.26 39.3307C136.148 39.144 135.989 39.004 135.784 38.9107C135.578 38.808 135.317 38.7567 135 38.7567C134.776 38.7567 134.547 38.808 134.314 38.9107C134.09 39.0134 133.884 39.172 133.698 39.3867C133.52 39.592 133.376 39.858 133.264 40.1847C133.152 40.502 133.096 40.88 133.096 41.3187V44.6787H132.144V39.5687C132.144 39.3914 132.139 39.1627 132.13 38.8827C132.12 38.6027 132.106 38.3507 132.088 38.1267H132.998C133.016 38.304 133.03 38.5 133.04 38.7147C133.049 38.9294 133.054 39.1067 133.054 39.2467H133.082ZM145.469 44.6787H144.517V38.1267H145.469V44.6787ZM145.665 35.6067C145.665 35.8027 145.595 35.966 145.455 36.0967C145.315 36.218 145.161 36.2787 144.993 36.2787C144.825 36.2787 144.671 36.218 144.531 36.0967C144.391 35.966 144.321 35.8027 144.321 35.6067C144.321 35.4107 144.391 35.252 144.531 35.1307C144.671 35 144.825 34.9347 144.993 34.9347C145.161 34.9347 145.315 35 145.455 35.1307C145.595 35.252 145.665 35.4107 145.665 35.6067ZM150.957 38.9247H149.109V42.7467C149.109 42.9894 149.132 43.19 149.179 43.3487C149.226 43.5074 149.291 43.6334 149.375 43.7267C149.468 43.8107 149.576 43.8714 149.697 43.9087C149.818 43.9367 149.949 43.9507 150.089 43.9507C150.22 43.9507 150.355 43.932 150.495 43.8947C150.644 43.8574 150.784 43.806 150.915 43.7407L150.957 44.5667C150.789 44.632 150.612 44.6787 150.425 44.7067C150.248 44.744 150.052 44.7627 149.837 44.7627C149.66 44.7627 149.473 44.7394 149.277 44.6927C149.081 44.646 148.899 44.5574 148.731 44.4267C148.563 44.296 148.423 44.1187 148.311 43.8947C148.208 43.6707 148.157 43.3767 148.157 43.0127V38.9247H146.799V38.1267H148.157V36.2787H149.109V38.1267H150.957V38.9247Z" fill="#C33C0E"/>
</svg>
