<svg width="2801" height="1025" viewBox="0 0 2801 1025" fill="none" xmlns="http://www.w3.org/2000/svg">
<path d="M2559.85 57.5008C2525.37 31.6856 2479.08 10.1003 2436.86 3.78025C2394.64 -2.53983 0.5 3.78161 0.5 3.78161V1025H2461.33C2461.33 1025 2416.05 946.524 2411.77 934.938C2407.49 923.351 2396.47 869.103 2387.9 861.203C2379.34 853.303 2315.7 866.997 2307.74 861.203C2299.79 855.41 2272.25 814.856 2271.64 805.903C2271.03 796.949 2379.95 723.215 2387.9 717.948C2395.86 712.682 2459.5 727.955 2476.02 727.955C2492.54 727.955 2525.99 725.849 2534.15 717.948C2542.31 710.048 2552.51 686.875 2552.51 662.648C2552.51 638.421 2580.66 643.161 2584.33 638.947C2588 634.734 2584.33 615.247 2584.33 609.454C2584.33 603.66 2598.4 597.34 2601.46 592.6C2604.52 587.86 2597.79 543.62 2601.46 538.353C2605.13 533.086 2669.99 528.873 2672.44 521.5C2674.89 514.126 2676.11 499.906 2672.44 492.006C2668.77 484.106 2585.55 423.539 2584.33 416.165C2583.1 408.792 2627.16 396.678 2629.61 388.778C2632.05 380.878 2629.61 342.431 2629.61 342.431C2629.61 342.431 2732.41 347.698 2751.99 342.431C2771.57 337.164 2797.27 319.784 2800.94 310.304C2804.61 300.824 2636.34 286.603 2629.61 280.81C2622.88 275.017 2629.61 192.329 2629.61 192.329L2610.64 187.589L2605.13 126.495C2600.78 98.8373 2595.01 83.5093 2559.85 57.5008Z" fill="#962E0A"/>
</svg>
