<svg width="40" height="209" viewBox="0 0 40 209" fill="none" xmlns="http://www.w3.org/2000/svg">
<path d="M5.13636 15H1.01136V3.36364H5.17045C6.34091 3.36364 7.34848 3.59659 8.19318 4.0625C9.03788 4.52462 9.6875 5.18939 10.142 6.05682C10.6004 6.92424 10.8295 7.96212 10.8295 9.17045C10.8295 10.3826 10.6004 11.4242 10.142 12.2955C9.6875 13.1667 9.03409 13.8352 8.18182 14.3011C7.33333 14.767 6.31818 15 5.13636 15ZM3.47159 12.892H5.03409C5.76136 12.892 6.37311 12.7633 6.86932 12.5057C7.36932 12.2443 7.74432 11.8409 7.99432 11.2955C8.24811 10.7462 8.375 10.0379 8.375 9.17045C8.375 8.31061 8.24811 7.60795 7.99432 7.0625C7.74432 6.51705 7.37121 6.11553 6.875 5.85795C6.37879 5.60038 5.76705 5.47159 5.03977 5.47159H3.47159V12.892ZM12.652 15V3.36364H20.4929V5.39205H15.1122V8.16477H20.0895V10.1932H15.1122V12.9716H20.5156V15H12.652Z" fill="#A0320C"/>
<path d="M37 7L32 12L27 7" stroke="#A0320C" stroke-linecap="round" stroke-linejoin="round"/>
<path d="M1.01136 49H3.47159V45.2273H5.53977C8.21591 45.2273 9.77273 43.6307 9.77273 41.3068C9.77273 38.9943 8.24432 37.3636 5.60227 37.3636H1.01136V49ZM3.47159 43.2557V39.375H5.13068C6.55114 39.375 7.23864 40.1477 7.23864 41.3068C7.23864 42.4602 6.55114 43.2557 5.14205 43.2557H3.47159ZM11.3707 49H18.8196V46.9716H13.831V37.3636H11.3707V49ZM11.2784 73.4375C10.9545 70.75 8.92045 69.2045 6.22727 69.2045C3.15341 69.2045 0.806818 71.375 0.806818 75.1818C0.806818 78.9773 3.11364 81.1591 6.22727 81.1591C9.21023 81.1591 11.0114 79.1761 11.2784 77.0341L8.78977 77.0227C8.55682 78.267 7.57955 78.983 6.26705 78.983C4.5 78.983 3.30114 77.6705 3.30114 75.1818C3.30114 72.7614 4.48295 71.3807 6.28409 71.3807C7.63068 71.3807 8.60227 72.1591 8.78977 73.4375H11.2784ZM12.9176 81H21.8267V78.9716H16.0028L21.8153 70.8239V69.3636H12.9062V71.392H18.7244L12.9176 79.5398V81ZM7.32386 104.71H9.68182C9.64773 102.636 7.94318 101.205 5.35227 101.205C2.80114 101.205 0.931818 102.614 0.943182 104.727C0.9375 106.443 2.14773 107.426 4.11364 107.898L5.38068 108.216C6.64773 108.523 7.35227 108.886 7.35795 109.67C7.35227 110.523 6.54545 111.102 5.29545 111.102C4.01705 111.102 3.09659 110.511 3.01705 109.347H0.636364C0.698864 111.864 2.5 113.165 5.32386 113.165C8.16477 113.165 9.83523 111.807 9.84091 109.676C9.83523 107.739 8.375 106.71 6.35227 106.256L5.30682 106.006C4.29545 105.773 3.44886 105.398 3.46591 104.562C3.46591 103.812 4.13068 103.261 5.33523 103.261C6.51136 103.261 7.23295 103.795 7.32386 104.71ZM11.4957 113H13.956V109.693L15.1662 108.216L18.3537 113H21.2969L16.9276 106.574L21.2457 101.364H18.2969L14.1094 106.494H13.956V101.364H11.4957V113ZM7.32386 136.71H9.68182C9.64773 134.636 7.94318 133.205 5.35227 133.205C2.80114 133.205 0.931818 134.614 0.943182 136.727C0.9375 138.443 2.14773 139.426 4.11364 139.898L5.38068 140.216C6.64773 140.523 7.35227 140.886 7.35795 141.67C7.35227 142.523 6.54545 143.102 5.29545 143.102C4.01705 143.102 3.09659 142.511 3.01705 141.347H0.636364C0.698864 143.864 2.5 145.165 5.32386 145.165C8.16477 145.165 9.83523 143.807 9.84091 141.676C9.83523 139.739 8.375 138.71 6.35227 138.256L5.30682 138.006C4.29545 137.773 3.44886 137.398 3.46591 136.562C3.46591 135.812 4.13068 135.261 5.33523 135.261C6.51136 135.261 7.23295 135.795 7.32386 136.71ZM13.956 133.364H11.4957V145H13.956V133.364ZM1.01136 177H3.47159V172.193H8.46591V177H10.9205V165.364H8.46591V170.165H3.47159V165.364H1.01136V177ZM1.01136 209H8.46023V206.972H3.47159V197.364H1.01136V209ZM8.19318 199.392H11.7557V209H14.1875V199.392H17.75V197.364H8.19318V199.392Z" fill="#FF5115"/>
</svg>
