<svg width="177" height="110" viewBox="0 0 177 110" fill="none" xmlns="http://www.w3.org/2000/svg">
<path d="M16.3446 34.7667H19.1446C19.6486 34.7667 20.1059 34.8227 20.5166 34.9347C20.9272 35.0374 21.2772 35.2007 21.5666 35.4247C21.8652 35.6394 22.0939 35.9147 22.2526 36.2507C22.4112 36.5774 22.4906 36.9647 22.4906 37.4127C22.4906 37.8607 22.4066 38.2527 22.2386 38.5887C22.0799 38.9154 21.8512 39.1907 21.5526 39.4147C21.2632 39.6294 20.9086 39.7927 20.4886 39.9047C20.0779 40.0167 19.6206 40.0727 19.1166 40.0727H17.3526V44.6787H16.3446V34.7667ZM17.3526 39.2187H19.0606C19.8539 39.2187 20.4559 39.0647 20.8666 38.7567C21.2772 38.4487 21.4826 38.0007 21.4826 37.4127C21.4826 36.7967 21.2679 36.3487 20.8386 36.0687C20.4186 35.7794 19.8259 35.6347 19.0606 35.6347H17.3526V39.2187ZM23.7397 39.5687C23.7397 39.3914 23.7351 39.1627 23.7257 38.8827C23.7164 38.6027 23.7024 38.3507 23.6837 38.1267H24.5937C24.6124 38.304 24.6264 38.5 24.6357 38.7147C24.6451 38.9294 24.6497 39.1067 24.6497 39.2467H24.6777C24.8644 38.864 25.1444 38.556 25.5177 38.3227C25.8911 38.08 26.3111 37.9587 26.7777 37.9587C26.8991 37.9587 27.0064 37.9634 27.0997 37.9727C27.2024 37.982 27.3051 38.0007 27.4077 38.0287L27.2817 38.9247C27.2257 38.906 27.1324 38.8874 27.0017 38.8687C26.8711 38.85 26.7404 38.8407 26.6097 38.8407C26.3577 38.8407 26.1151 38.8874 25.8817 38.9807C25.6484 39.074 25.4431 39.2234 25.2657 39.4287C25.0977 39.6247 24.9577 39.8814 24.8457 40.1987C24.7431 40.5067 24.6917 40.88 24.6917 41.3187V44.6787H23.7397V39.5687ZM35.0486 41.4027C35.0486 41.8974 34.9599 42.3547 34.7826 42.7747C34.6146 43.1947 34.3766 43.5587 34.0686 43.8667C33.7606 44.1747 33.3919 44.4174 32.9626 44.5947C32.5332 44.7627 32.0619 44.8467 31.5486 44.8467C31.0446 44.8467 30.5779 44.7627 30.1486 44.5947C29.7192 44.4174 29.3506 44.1747 29.0426 43.8667C28.7346 43.5587 28.4919 43.1947 28.3146 42.7747C28.1466 42.3547 28.0626 41.8974 28.0626 41.4027C28.0626 40.908 28.1466 40.4507 28.3146 40.0307C28.4919 39.6107 28.7346 39.2467 29.0426 38.9387C29.3506 38.6307 29.7192 38.3927 30.1486 38.2247C30.5779 38.0474 31.0446 37.9587 31.5486 37.9587C32.0619 37.9587 32.5332 38.0474 32.9626 38.2247C33.3919 38.3927 33.7606 38.6307 34.0686 38.9387C34.3766 39.2467 34.6146 39.6107 34.7826 40.0307C34.9599 40.4507 35.0486 40.908 35.0486 41.4027ZM34.0406 41.4027C34.0406 41.0387 33.9799 40.698 33.8586 40.3807C33.7466 40.054 33.5832 39.774 33.3686 39.5407C33.1539 39.298 32.8926 39.1067 32.5846 38.9667C32.2766 38.8267 31.9312 38.7567 31.5486 38.7567C31.1659 38.7567 30.8206 38.8267 30.5126 38.9667C30.2139 39.1067 29.9572 39.298 29.7426 39.5407C29.5279 39.774 29.3599 40.054 29.2386 40.3807C29.1266 40.698 29.0706 41.0387 29.0706 41.4027C29.0706 41.7667 29.1266 42.112 29.2386 42.4387C29.3599 42.756 29.5279 43.036 29.7426 43.2787C29.9572 43.512 30.2139 43.6987 30.5126 43.8387C30.8206 43.9694 31.1659 44.0347 31.5486 44.0347C31.9312 44.0347 32.2766 43.9694 32.5846 43.8387C32.8926 43.6987 33.1539 43.512 33.3686 43.2787C33.5832 43.036 33.7466 42.756 33.8586 42.4387C33.9799 42.112 34.0406 41.7667 34.0406 41.4027ZM42.4872 43.5727C42.2072 43.9927 41.8432 44.31 41.3952 44.5247C40.9472 44.7394 40.4852 44.8467 40.0092 44.8467C39.4958 44.8467 39.0292 44.758 38.6092 44.5807C38.1985 44.4034 37.8438 44.1607 37.5452 43.8527C37.2558 43.5447 37.0272 43.1807 36.8592 42.7607C36.7005 42.3407 36.6212 41.888 36.6212 41.4027C36.6212 40.9174 36.7005 40.4647 36.8592 40.0447C37.0272 39.6247 37.2558 39.2607 37.5452 38.9527C37.8438 38.6447 38.1985 38.402 38.6092 38.2247C39.0292 38.0474 39.4958 37.9587 40.0092 37.9587C40.4852 37.9587 40.9472 38.0707 41.3952 38.2947C41.8432 38.5094 42.2072 38.8314 42.4872 39.2607H42.5152V34.0947H43.4672V44.6787H42.5152V43.5727H42.4872ZM37.6292 41.4027C37.6292 41.7667 37.6852 42.112 37.7972 42.4387C37.9092 42.756 38.0678 43.036 38.2732 43.2787C38.4878 43.512 38.7492 43.6987 39.0572 43.8387C39.3652 43.9694 39.7152 44.0347 40.1072 44.0347C40.4712 44.0347 40.8072 43.9694 41.1152 43.8387C41.4232 43.6987 41.6892 43.512 41.9132 43.2787C42.1372 43.0454 42.3098 42.77 42.4312 42.4527C42.5618 42.126 42.6272 41.776 42.6272 41.4027C42.6272 41.0294 42.5618 40.684 42.4312 40.3667C42.3098 40.04 42.1372 39.76 41.9132 39.5267C41.6892 39.284 41.4232 39.0974 41.1152 38.9667C40.8072 38.8267 40.4712 38.7567 40.1072 38.7567C39.7152 38.7567 39.3652 38.8267 39.0572 38.9667C38.7492 39.1067 38.4878 39.298 38.2732 39.5407C38.0678 39.774 37.9092 40.054 37.7972 40.3807C37.6852 40.698 37.6292 41.0387 37.6292 41.4027ZM50.7712 44.6787C50.7526 44.5014 50.7386 44.3054 50.7292 44.0907C50.7199 43.876 50.7152 43.6987 50.7152 43.5587H50.6872C50.5006 43.9414 50.1972 44.254 49.7772 44.4967C49.3572 44.73 48.9139 44.8467 48.4472 44.8467C47.6166 44.8467 46.9912 44.5994 46.5712 44.1047C46.1606 43.61 45.9552 42.9567 45.9552 42.1447V38.1267H46.9072V41.7527C46.9072 42.098 46.9352 42.4107 46.9912 42.6907C47.0472 42.9707 47.1406 43.2134 47.2712 43.4187C47.4112 43.6147 47.5932 43.7687 47.8172 43.8807C48.0506 43.9927 48.3399 44.0487 48.6852 44.0487C48.9372 44.0487 49.1799 43.9974 49.4132 43.8947C49.6559 43.792 49.8706 43.638 50.0572 43.4327C50.2439 43.218 50.3932 42.952 50.5052 42.6347C50.6172 42.308 50.6732 41.9254 50.6732 41.4867V38.1267H51.6252V43.2367C51.6252 43.414 51.6299 43.6427 51.6392 43.9227C51.6486 44.2027 51.6626 44.4547 51.6812 44.6787H50.7712ZM58.5 38.7987L54.58 43.8527H58.64V44.6787H53.32V44.0067L57.226 38.9247H53.516V38.1267H58.5V38.7987ZM61.3053 44.6787H60.3533V38.1267H61.3053V44.6787ZM61.5013 35.6067C61.5013 35.8027 61.4313 35.966 61.2913 36.0967C61.1513 36.218 60.9973 36.2787 60.8293 36.2787C60.6613 36.2787 60.5073 36.218 60.3673 36.0967C60.2273 35.966 60.1573 35.8027 60.1573 35.6067C60.1573 35.4107 60.2273 35.252 60.3673 35.1307C60.5073 35 60.6613 34.9347 60.8293 34.9347C60.9973 34.9347 61.1513 35 61.2913 35.1307C61.4313 35.252 61.5013 35.4107 61.5013 35.6067ZM68.8373 40.8987C68.8093 40.2827 68.6087 39.774 68.2353 39.3727C67.8713 38.962 67.3487 38.7567 66.6673 38.7567C66.35 38.7567 66.056 38.8174 65.7853 38.9387C65.5147 39.0507 65.2767 39.2094 65.0713 39.4147C64.866 39.6107 64.7027 39.8394 64.5813 40.1007C64.46 40.3527 64.39 40.6187 64.3713 40.8987H68.8373ZM69.8033 41.2067C69.8033 41.272 69.8033 41.342 69.8033 41.4167C69.8033 41.4914 69.7987 41.5707 69.7893 41.6547H64.3573C64.3667 41.9814 64.432 42.2894 64.5533 42.5787C64.6747 42.868 64.8427 43.12 65.0573 43.3347C65.272 43.5494 65.524 43.722 65.8133 43.8527C66.1027 43.974 66.4153 44.0347 66.7513 44.0347C67.246 44.0347 67.6707 43.9227 68.0253 43.6987C68.3893 43.4654 68.6647 43.1994 68.8513 42.9007L69.5653 43.4607C69.1733 43.9554 68.7393 44.31 68.2633 44.5247C67.7967 44.7394 67.2927 44.8467 66.7513 44.8467C66.266 44.8467 65.8133 44.7627 65.3933 44.5947C64.9827 44.4174 64.628 44.1747 64.3293 43.8667C64.0307 43.5587 63.7927 43.1947 63.6153 42.7747C63.4473 42.3547 63.3633 41.8974 63.3633 41.4027C63.3633 40.908 63.4473 40.4507 63.6153 40.0307C63.7833 39.6107 64.0167 39.2467 64.3153 38.9387C64.614 38.6307 64.964 38.3927 65.3653 38.2247C65.7667 38.0474 66.2007 37.9587 66.6673 37.9587C67.1807 37.9587 67.6333 38.0474 68.0253 38.2247C68.4173 38.3927 68.744 38.626 69.0053 38.9247C69.2667 39.214 69.4627 39.5547 69.5933 39.9467C69.7333 40.3387 69.8033 40.7587 69.8033 41.2067ZM71.8511 39.5687C71.8511 39.3914 71.8464 39.1627 71.8371 38.8827C71.8277 38.6027 71.8137 38.3507 71.7951 38.1267H72.7051C72.7237 38.304 72.7377 38.5 72.7471 38.7147C72.7564 38.9294 72.7611 39.1067 72.7611 39.2467H72.7891C72.9757 38.864 73.2557 38.556 73.6291 38.3227C74.0024 38.08 74.4224 37.9587 74.8891 37.9587C75.0104 37.9587 75.1177 37.9634 75.2111 37.9727C75.3137 37.982 75.4164 38.0007 75.5191 38.0287L75.3931 38.9247C75.3371 38.906 75.2437 38.8874 75.1131 38.8687C74.9824 38.85 74.8517 38.8407 74.7211 38.8407C74.4691 38.8407 74.2264 38.8874 73.9931 38.9807C73.7597 39.074 73.5544 39.2234 73.3771 39.4287C73.2091 39.6247 73.0691 39.8814 72.9571 40.1987C72.8544 40.5067 72.8031 40.88 72.8031 41.3187V44.6787H71.8511V39.5687ZM79.6859 38.9247H77.8379V42.7467C77.8379 42.9894 77.8613 43.19 77.9079 43.3487C77.9546 43.5074 78.0199 43.6334 78.1039 43.7267C78.1973 43.8107 78.3046 43.8714 78.4259 43.9087C78.5473 43.9367 78.6779 43.9507 78.8179 43.9507C78.9486 43.9507 79.0839 43.932 79.2239 43.8947C79.3733 43.8574 79.5133 43.806 79.6439 43.7407L79.6859 44.5667C79.5179 44.632 79.3406 44.6787 79.1539 44.7067C78.9766 44.744 78.7806 44.7627 78.5659 44.7627C78.3886 44.7627 78.2019 44.7394 78.0059 44.6927C77.8099 44.646 77.6279 44.5574 77.4599 44.4267C77.2919 44.296 77.1519 44.1187 77.0399 43.8947C76.9373 43.6707 76.8859 43.3767 76.8859 43.0127V38.9247H75.5279V38.1267H76.8859V36.2787H77.8379V38.1267H79.6859V38.9247ZM87.3633 44.6787H86.3133L83.6393 38.1267H84.7033L86.8313 43.6707H86.8593L89.0013 38.1267H90.0233L87.3633 44.6787ZM98.0212 41.4027C98.0212 41.8974 97.9326 42.3547 97.7552 42.7747C97.5872 43.1947 97.3492 43.5587 97.0412 43.8667C96.7332 44.1747 96.3646 44.4174 95.9352 44.5947C95.5059 44.7627 95.0346 44.8467 94.5212 44.8467C94.0172 44.8467 93.5506 44.7627 93.1212 44.5947C92.6919 44.4174 92.3232 44.1747 92.0152 43.8667C91.7072 43.5587 91.4646 43.1947 91.2872 42.7747C91.1192 42.3547 91.0352 41.8974 91.0352 41.4027C91.0352 40.908 91.1192 40.4507 91.2872 40.0307C91.4646 39.6107 91.7072 39.2467 92.0152 38.9387C92.3232 38.6307 92.6919 38.3927 93.1212 38.2247C93.5506 38.0474 94.0172 37.9587 94.5212 37.9587C95.0346 37.9587 95.5059 38.0474 95.9352 38.2247C96.3646 38.3927 96.7332 38.6307 97.0412 38.9387C97.3492 39.2467 97.5872 39.6107 97.7552 40.0307C97.9326 40.4507 98.0212 40.908 98.0212 41.4027ZM97.0132 41.4027C97.0132 41.0387 96.9526 40.698 96.8312 40.3807C96.7192 40.054 96.5559 39.774 96.3412 39.5407C96.1266 39.298 95.8652 39.1067 95.5572 38.9667C95.2492 38.8267 94.9039 38.7567 94.5212 38.7567C94.1386 38.7567 93.7932 38.8267 93.4852 38.9667C93.1866 39.1067 92.9299 39.298 92.7152 39.5407C92.5006 39.774 92.3326 40.054 92.2112 40.3807C92.0992 40.698 92.0432 41.0387 92.0432 41.4027C92.0432 41.7667 92.0992 42.112 92.2112 42.4387C92.3326 42.756 92.5006 43.036 92.7152 43.2787C92.9299 43.512 93.1866 43.6987 93.4852 43.8387C93.7932 43.9694 94.1386 44.0347 94.5212 44.0347C94.9039 44.0347 95.2492 43.9694 95.5572 43.8387C95.8652 43.6987 96.1266 43.512 96.3412 43.2787C96.5559 43.036 96.7192 42.756 96.8312 42.4387C96.9526 42.112 97.0132 41.7667 97.0132 41.4027ZM100.924 38.1267C100.942 38.304 100.956 38.5 100.966 38.7147C100.975 38.9294 100.98 39.1067 100.98 39.2467H101.008C101.194 38.864 101.498 38.556 101.918 38.3227C102.338 38.08 102.781 37.9587 103.248 37.9587C104.078 37.9587 104.699 38.206 105.11 38.7007C105.53 39.1954 105.74 39.8487 105.74 40.6607V44.6787H104.788V41.0527C104.788 40.7074 104.76 40.3947 104.704 40.1147C104.648 39.8347 104.55 39.5967 104.41 39.4007C104.279 39.1954 104.097 39.0367 103.864 38.9247C103.64 38.8127 103.355 38.7567 103.01 38.7567C102.758 38.7567 102.51 38.808 102.268 38.9107C102.034 39.0134 101.824 39.172 101.638 39.3867C101.451 39.592 101.302 39.858 101.19 40.1847C101.078 40.502 101.022 40.88 101.022 41.3187V44.6787H100.07V39.5687C100.07 39.3914 100.065 39.1627 100.056 38.8827C100.046 38.6027 100.032 38.3507 100.014 38.1267H100.924Z" fill="#C33C0E"/>
<path d="M29.1289 62.8203C28.6934 61.9356 27.6761 61.3637 26.5379 61.3627C26.5361 61.3627 26.5347 61.3613 26.5347 61.3596C26.5347 61.3578 26.5333 61.3564 26.5316 61.3564H17.9416C16.8021 61.3564 15.7834 61.9285 15.3475 62.8141C15.1717 63.1998 15.0993 63.6248 15.1375 64.0472C15.1757 64.4696 15.3232 64.8746 15.5655 65.2223L19.6958 69.7006C19.9881 70.0176 20.4938 70.001 20.7648 69.6656L23.5359 66.2352C23.626 66.1437 23.6901 66.0296 23.7216 65.9049C23.7532 65.7802 23.7509 65.6493 23.7152 65.5258C23.6131 65.1236 23.11 65.2223 22.8995 65.2223C22.1249 65.2297 21.557 65.2297 21.0851 65.2297H21.085H20.7388H19.9641H19.6615H18.8744C18.8122 65.2293 18.7508 65.2161 18.6939 65.191C18.6352 65.1587 18.5825 65.1165 18.5382 65.0661L17.3218 63.8173C17.2901 63.7848 17.2607 63.7497 17.2394 63.7095C17.2174 63.6677 17.1994 63.6239 17.1857 63.5785C17.1727 63.5315 17.1718 63.482 17.1831 63.4346C17.1944 63.3872 17.2176 63.3434 17.2505 63.3075C17.2865 63.259 17.3353 63.2215 17.3914 63.1995C17.4272 63.1854 17.4651 63.1779 17.5032 63.1772C17.5465 63.1764 17.5899 63.1826 17.6332 63.1826H26.7714C26.8774 63.1886 26.9803 63.2208 27.0709 63.2764C27.1615 63.3319 27.237 63.4091 27.2907 63.5011C27.4688 63.7896 27.267 64.263 27.2284 64.3154C23.3999 69.4066 19.3996 74.3788 15.4671 79.389C15.2247 79.7382 15.077 80.1446 15.0386 80.5683C15.0002 80.9921 15.0723 81.4185 15.2479 81.8059C15.6838 82.6952 16.7025 83.2698 17.842 83.2698H26.4351C27.5746 83.2698 28.5933 82.6952 29.0292 81.8059C29.205 81.4187 29.2773 80.9922 29.2391 80.5685C29.2009 80.1448 29.088 79.7537 28.8113 79.389C28.5942 79.1029 25.6937 76.3801 24.4529 75.2191C24.1523 74.9379 23.6768 74.9735 23.4201 75.2952L20.9951 78.3338C20.8323 78.5508 20.6843 78.7257 20.8187 79.0255C20.9951 79.4187 21.2663 79.3524 21.6905 79.3552C23.0562 79.3644 24.1953 79.389 25.5434 79.389C25.6056 79.3896 25.667 79.4028 25.724 79.4277C25.7824 79.4605 25.835 79.5027 25.8797 79.5526L27.0964 80.8541C27.2067 80.9654 27.2633 81.0577 27.2234 81.2038C27.2021 81.2817 27.1506 81.3503 27.0772 81.384C26.9501 81.4424 26.8025 81.4424 26.8025 81.4424H17.6004C17.4987 81.4462 17.398 81.4212 17.3099 81.3701C17.2218 81.3191 17.1498 81.2441 17.1023 81.1539C17.0305 81.0225 16.9962 80.8738 17.0033 80.7242C17.0103 80.5746 17.0583 80.4298 17.1421 80.3058C21.1856 75.3776 24.8634 70.1566 28.9097 65.2285C29.152 64.8809 29.2997 64.476 29.3381 64.0536C29.3765 63.6313 29.3044 63.2062 29.1289 62.8203Z" fill="#C33C0E"/>
<mask id="path-3-inside-1" fill="white">
<path fill-rule="evenodd" clip-rule="evenodd" d="M130.831 79.6183H127.434V75.0005H118.489V71.6047H127.434V69.5668C127.434 68.8302 127.189 68.4619 126.699 68.4619H117.074C116.604 68.4619 116.368 68.8293 116.367 69.5643V79.6183H112.971V69.5575C112.971 68.3332 113.353 67.2783 114.117 66.3927C114.881 65.5072 115.867 65.0645 117.074 65.0645H126.699C127.926 65.0645 128.921 65.5072 129.686 66.3927C130.45 67.2783 130.832 68.3332 130.832 69.5575V79.6183"/>
</mask>
<path fill-rule="evenodd" clip-rule="evenodd" d="M130.831 79.6183H127.434V75.0005H118.489V71.6047H127.434V69.5668C127.434 68.8302 127.189 68.4619 126.699 68.4619H117.074C116.604 68.4619 116.368 68.8293 116.367 69.5643V79.6183H112.971V69.5575C112.971 68.3332 113.353 67.2783 114.117 66.3927C114.881 65.5072 115.867 65.0645 117.074 65.0645H126.699C127.926 65.0645 128.921 65.5072 129.686 66.3927C130.45 67.2783 130.832 68.3332 130.832 69.5575V79.6183" fill="#C33C0E"/>
<path d="M127.434 79.6183H127.346V79.7066H127.434V79.6183ZM127.434 75.0005H127.523V74.9121H127.434V75.0005ZM118.489 75.0005H118.4V75.0888H118.489V75.0005ZM118.489 71.6047V71.5164H118.4V71.6047H118.489ZM127.434 71.6047V71.6931H127.523V71.6047H127.434ZM116.367 69.5643L116.279 69.5642V69.5643H116.367ZM116.367 79.6183V79.7066H116.456V79.6183H116.367ZM112.971 79.6183H112.882V79.7066H112.971V79.6183ZM130.832 69.5575L130.744 69.5575V69.5575H130.832ZM130.831 79.53H127.434V79.7066H130.831V79.53ZM127.523 79.6183V75.0005H127.346V79.6183H127.523ZM127.434 74.9121H118.489V75.0888H127.434V74.9121ZM118.577 75.0005V71.6047H118.4V75.0005H118.577ZM118.489 71.6931H127.434V71.5164H118.489V71.6931ZM127.523 71.6047V69.5668H127.346V71.6047H127.523ZM127.523 69.5668C127.523 69.1915 127.461 68.8945 127.324 68.6891C127.183 68.4774 126.97 68.3735 126.699 68.3735V68.5502C126.918 68.5502 127.073 68.6305 127.177 68.787C127.285 68.95 127.346 69.2055 127.346 69.5668H127.523ZM126.699 68.3735H117.074V68.5502H126.699V68.3735ZM117.074 68.3735C116.812 68.3735 116.606 68.4784 116.47 68.6898C116.339 68.8944 116.279 69.1901 116.279 69.5642L116.456 69.5643C116.456 69.2035 116.514 68.948 116.619 68.7851C116.719 68.629 116.866 68.5502 117.074 68.5502V68.3735ZM116.279 69.5643V79.6183H116.456V69.5643H116.279ZM116.367 79.53H112.971V79.7066H116.367V79.53ZM113.059 79.6183V69.5575H112.882V79.6183H113.059ZM113.059 69.5575C113.059 68.3533 113.434 67.3191 114.184 66.4504L114.05 66.335C113.271 67.2374 112.882 68.3131 112.882 69.5575H113.059ZM114.184 66.4504C114.931 65.5851 115.892 65.1528 117.074 65.1528V64.9761C115.842 64.9761 114.832 65.4294 114.05 66.335L114.184 66.4504ZM117.074 65.1528H126.699V64.9761H117.074V65.1528ZM126.699 65.1528C127.901 65.1528 128.872 65.5854 129.619 66.4505L129.752 66.335C128.97 65.429 127.95 64.9761 126.699 64.9761V65.1528ZM129.619 66.4505C130.369 67.3191 130.744 68.3533 130.744 69.5575L130.92 69.5576C130.921 68.3131 130.532 67.2374 129.752 66.335L129.619 66.4505ZM130.744 69.5575V79.6183H130.92V69.5575H130.744Z" fill="#C33C0E" mask="url(#path-3-inside-1)"/>
<mask id="path-5-inside-2" fill="white">
<path fill-rule="evenodd" clip-rule="evenodd" d="M106.372 76.2209C106.86 76.2209 107.104 75.8573 107.104 75.1303C107.105 74.4032 106.861 74.0399 106.372 74.0405H95.6874V76.2209H106.372ZM106.144 70.6431C106.633 70.6431 106.878 70.2795 106.878 69.5525C106.879 68.8254 106.634 68.4621 106.144 68.4627H95.6933V70.6431H106.144ZM108.715 72.2444C109.902 72.9805 110.495 74.1017 110.494 75.6081C110.494 76.7016 110.146 77.6247 109.449 78.3776C108.696 79.207 107.679 79.6214 106.398 79.6208H92.2968V65.0645H106.139C107.42 65.0645 108.437 65.4791 109.19 66.3085C109.868 67.0625 110.207 67.9854 110.207 69.0771C110.207 70.4341 109.708 71.489 108.71 72.2419"/>
</mask>
<path fill-rule="evenodd" clip-rule="evenodd" d="M106.372 76.2209C106.86 76.2209 107.104 75.8573 107.104 75.1303C107.105 74.4032 106.861 74.0399 106.372 74.0405H95.6874V76.2209H106.372ZM106.144 70.6431C106.633 70.6431 106.878 70.2795 106.878 69.5525C106.879 68.8254 106.634 68.4621 106.144 68.4627H95.6933V70.6431H106.144ZM108.715 72.2444C109.902 72.9805 110.495 74.1017 110.494 75.6081C110.494 76.7016 110.146 77.6247 109.449 78.3776C108.696 79.207 107.679 79.6214 106.398 79.6208H92.2968V65.0645H106.139C107.42 65.0645 108.437 65.4791 109.19 66.3085C109.868 67.0625 110.207 67.9854 110.207 69.0771C110.207 70.4341 109.708 71.489 108.71 72.2419" fill="#C33C0E"/>
<path d="M106.372 74.0405V74.1288H106.372L106.372 74.0405ZM95.6874 74.0405V73.9522H95.5991V74.0405H95.6874ZM95.6874 76.2209H95.5991V76.3092H95.6874V76.2209ZM106.144 68.4627V68.551L106.144 68.551L106.144 68.4627ZM95.6933 68.4627V68.3744H95.605V68.4627H95.6933ZM95.6933 70.6431H95.605V70.7314H95.6933V70.6431ZM110.494 75.6081L110.406 75.6081V75.6081H110.494ZM109.449 78.3776L109.384 78.3177L109.384 78.3182L109.449 78.3776ZM106.398 79.6208L106.398 79.5325H106.398V79.6208ZM92.2968 79.6208H92.2084V79.7091H92.2968V79.6208ZM92.2968 65.0645V64.9761H92.2084V65.0645H92.2968ZM109.19 66.3085L109.256 66.2494L109.256 66.2491L109.19 66.3085ZM106.372 76.3092C106.641 76.3092 106.854 76.2067 106.994 75.9974C107.13 75.7944 107.192 75.501 107.193 75.1303L107.016 75.1302C107.016 75.4866 106.955 75.7385 106.847 75.899C106.744 76.0532 106.59 76.1325 106.372 76.1325V76.3092ZM107.193 75.1303C107.193 74.7597 107.131 74.4662 106.995 74.2632C106.854 74.054 106.642 73.9519 106.372 73.9522L106.372 74.1288C106.591 74.1286 106.745 74.2078 106.848 74.3618C106.956 74.522 107.016 74.7738 107.016 75.1302L107.193 75.1303ZM106.372 73.9522H95.6874V74.1288H106.372V73.9522ZM95.5991 74.0405V76.2209H95.7757V74.0405H95.5991ZM95.6874 76.3092H106.372V76.1325H95.6874V76.3092ZM106.144 70.7314C106.414 70.7314 106.627 70.629 106.768 70.4197C106.904 70.2167 106.966 69.9232 106.967 69.5525L106.79 69.5524C106.79 69.9088 106.729 70.1606 106.621 70.3211C106.517 70.4754 106.363 70.5548 106.144 70.5548V70.7314ZM106.967 69.5525C106.967 69.1819 106.905 68.8884 106.769 68.6854C106.628 68.4761 106.414 68.3741 106.144 68.3744L106.144 68.551C106.364 68.5508 106.518 68.63 106.622 68.7841C106.73 68.9443 106.79 69.196 106.79 69.5524L106.967 69.5525ZM106.144 68.3744H95.6933V68.551H106.144V68.3744ZM95.605 68.4627V70.6431H95.7816V68.4627H95.605ZM95.6933 70.7314H106.144V70.5548H95.6933V70.7314ZM108.668 72.3195C109.827 73.038 110.406 74.1294 110.406 75.6081L110.582 75.6082C110.583 74.0741 109.976 72.923 108.761 72.1694L108.668 72.3195ZM110.406 75.6081C110.406 76.6809 110.065 77.5822 109.384 78.3177L109.514 78.4376C110.227 77.6672 110.582 76.7222 110.582 75.6081H110.406ZM109.384 78.3182C108.649 79.1264 107.658 79.533 106.398 79.5325L106.398 79.7091C107.699 79.7097 108.742 79.2875 109.514 78.437L109.384 78.3182ZM106.398 79.5325H92.2968V79.7091H106.398V79.5325ZM92.3851 79.6208V65.0645H92.2084V79.6208H92.3851ZM92.2968 65.1528H106.139V64.9761H92.2968V65.1528ZM106.139 65.1528C107.399 65.1528 108.391 65.5597 109.125 66.3678L109.256 66.2491C108.483 65.3986 107.441 64.9761 106.139 64.9761V65.1528ZM109.125 66.3675C109.786 67.104 110.118 68.0054 110.118 69.0771H110.295C110.295 67.9654 109.949 67.021 109.256 66.2494L109.125 66.3675ZM110.118 69.0771C110.118 70.4091 109.63 71.4368 108.657 72.1714L108.763 72.3124C109.785 71.5412 110.295 70.459 110.295 69.0771H110.118Z" fill="#C33C0E" mask="url(#path-5-inside-2)"/>
<mask id="path-7-inside-3" fill="white">
<path fill-rule="evenodd" clip-rule="evenodd" d="M89.3199 75.1159C89.3199 76.3431 88.9336 77.4002 88.1611 78.2875C87.3885 79.1747 86.3996 79.6183 85.1943 79.6183H75.5862C74.3618 79.6183 73.3679 79.1747 72.6043 78.2875C71.8407 77.4002 71.4595 76.3431 71.4606 75.1159V65.0645H74.8496V75.1159C74.8496 75.8525 75.0951 76.2206 75.5862 76.22H85.2205C85.6924 76.22 85.9284 75.852 85.9284 75.1159V65.0645H89.3199V75.1159Z"/>
</mask>
<path fill-rule="evenodd" clip-rule="evenodd" d="M89.3199 75.1159C89.3199 76.3431 88.9336 77.4002 88.1611 78.2875C87.3885 79.1747 86.3996 79.6183 85.1943 79.6183H75.5862C74.3618 79.6183 73.3679 79.1747 72.6043 78.2875C71.8407 77.4002 71.4595 76.3431 71.4606 75.1159V65.0645H74.8496V75.1159C74.8496 75.8525 75.0951 76.2206 75.5862 76.22H85.2205C85.6924 76.22 85.9284 75.852 85.9284 75.1159V65.0645H89.3199V75.1159Z" fill="#C33C0E"/>
<path d="M71.4606 75.1159L71.5489 75.116V75.1159H71.4606ZM71.4606 65.0645V64.9761H71.3723V65.0645H71.4606ZM74.8496 65.0645H74.9379V64.9761H74.8496V65.0645ZM75.5862 76.22V76.1317H75.5861L75.5862 76.22ZM85.9284 65.0645V64.9761H85.8401V65.0645H85.9284ZM89.3199 65.0645H89.4082V64.9761H89.3199V65.0645ZM89.2316 75.1159C89.2316 76.3228 88.8524 77.3591 88.0944 78.2295L88.2277 78.3455C89.0149 77.4414 89.4082 76.3634 89.4082 75.1159H89.2316ZM88.0944 78.2295C87.3391 79.0969 86.3747 79.5299 85.1943 79.5299V79.7066C86.4244 79.7066 87.4378 79.2525 88.2277 78.3455L88.0944 78.2295ZM85.1943 79.5299H75.5862V79.7066H85.1943V79.5299ZM75.5862 79.5299C74.3862 79.5299 73.4172 79.0966 72.6712 78.2298L72.5373 78.3451C73.3186 79.2528 74.3375 79.7066 75.5862 79.7066V79.5299ZM72.6712 78.2298C71.9221 77.3595 71.5478 76.3231 71.5489 75.116L71.3723 75.1158C71.3711 76.363 71.7592 77.441 72.5373 78.3451L72.6712 78.2298ZM71.5489 75.1159V65.0645H71.3723V75.1159H71.5489ZM71.4606 65.1528H74.8496V64.9761H71.4606V65.1528ZM74.7612 65.0645V75.1159H74.9379V65.0645H74.7612ZM74.7612 75.1159C74.7612 75.4913 74.8233 75.7881 74.9602 75.9934C75.1014 76.2051 75.315 76.3086 75.5863 76.3083L75.5861 76.1317C75.3663 76.132 75.2115 76.0518 75.1072 75.8954C74.9986 75.7327 74.9379 75.4772 74.9379 75.1159H74.7612ZM75.5862 76.3083H85.2205V76.1317H75.5862V76.3083ZM85.2205 76.3083C85.4837 76.3083 85.6901 76.2033 85.8258 75.9917C85.9572 75.7867 86.0167 75.4906 86.0167 75.1159H85.8401C85.8401 75.4774 85.7817 75.7332 85.6771 75.8963C85.5768 76.0527 85.4292 76.1317 85.2205 76.1317V76.3083ZM86.0167 75.1159V65.0645H85.8401V75.1159H86.0167ZM85.9284 65.1528H89.3199V64.9761H85.9284V65.1528ZM89.2316 65.0645V75.1159H89.4082V65.0645H89.2316Z" fill="#C33C0E" mask="url(#path-7-inside-3)"/>
<mask id="path-9-inside-4" fill="white">
<path fill-rule="evenodd" clip-rule="evenodd" d="M68.6474 79.6183H65.2508V75.0005H56.3077V71.6047H65.2508V69.5668C65.2508 68.8302 65.0053 68.4619 64.5142 68.4619H54.8892C54.4184 68.4619 54.1827 68.8293 54.1821 69.5643V79.6183H50.7855V69.5575C50.7855 68.3332 51.1679 67.2783 51.9326 66.3927C52.6973 65.5072 53.6829 65.0645 54.8892 65.0645H64.5142C65.7402 65.0645 66.7356 65.5072 67.5003 66.3927C68.265 67.2783 68.6474 68.3332 68.6474 69.5575V79.6183Z"/>
</mask>
<path fill-rule="evenodd" clip-rule="evenodd" d="M68.6474 79.6183H65.2508V75.0005H56.3077V71.6047H65.2508V69.5668C65.2508 68.8302 65.0053 68.4619 64.5142 68.4619H54.8892C54.4184 68.4619 54.1827 68.8293 54.1821 69.5643V79.6183H50.7855V69.5575C50.7855 68.3332 51.1679 67.2783 51.9326 66.3927C52.6973 65.5072 53.6829 65.0645 54.8892 65.0645H64.5142C65.7402 65.0645 66.7356 65.5072 67.5003 66.3927C68.265 67.2783 68.6474 68.3332 68.6474 69.5575V79.6183Z" fill="#C33C0E"/>
<path d="M65.2508 79.6183H65.1625V79.7066H65.2508V79.6183ZM65.2508 75.0005H65.3392V74.9121H65.2508V75.0005ZM56.3077 75.0005H56.2194V75.0888H56.3077V75.0005ZM56.3077 71.6047V71.5164H56.2194V71.6047H56.3077ZM65.2508 71.6047V71.6931H65.3392V71.6047H65.2508ZM54.1821 69.5643L54.0938 69.5642V69.5643H54.1821ZM54.1821 79.6183V79.7066H54.2704V79.6183H54.1821ZM50.7855 79.6183H50.6972V79.7066H50.7855V79.6183ZM68.6474 69.5575H68.7357H68.6474ZM68.6474 79.5299H65.2508V79.7066H68.6474V79.5299ZM65.3392 79.6183V75.0005H65.1625V79.6183H65.3392ZM65.2508 74.9121H56.3077V75.0888H65.2508V74.9121ZM56.396 75.0005V71.6047H56.2194V75.0005H56.396ZM56.3077 71.6931H65.2508V71.5164H56.3077V71.6931ZM65.3392 71.6047V69.5668H65.1625V71.6047H65.3392ZM65.3392 69.5668C65.3392 69.1915 65.2771 68.8945 65.1402 68.6891C64.999 68.4774 64.7855 68.3735 64.5142 68.3735V68.5502C64.734 68.5502 64.8888 68.6305 64.9932 68.7871C65.1018 68.95 65.1625 69.2055 65.1625 69.5668H65.3392ZM64.5142 68.3735H54.8892V68.5502H64.5142V68.3735ZM54.8892 68.3735C54.6265 68.3735 54.4205 68.4784 54.285 68.6898C54.1537 68.8944 54.0941 69.1901 54.0938 69.5642L54.2704 69.5643C54.2707 69.2035 54.3292 68.948 54.4336 68.7851C54.5338 68.629 54.681 68.5502 54.8892 68.5502V68.3735ZM54.0938 69.5643V79.6183H54.2704V69.5643H54.0938ZM54.1821 79.5299H50.7855V79.7066H54.1821V79.5299ZM50.8738 79.6183V69.5575H50.6972V79.6183H50.8738ZM50.8738 69.5575C50.8738 68.3533 51.2493 67.3192 51.9994 66.4505L51.8658 66.335C51.0865 67.2374 50.6972 68.3131 50.6972 69.5575H50.8738ZM51.9994 66.4505C52.7468 65.585 53.7076 65.1528 54.8892 65.1528V64.9761C53.6581 64.9761 52.6478 65.4294 51.8658 66.335L51.9994 66.4505ZM54.8892 65.1528H64.5142V64.9761H54.8892V65.1528ZM64.5142 65.1528C65.716 65.1528 66.6864 65.5854 67.4335 66.4505L67.5672 66.335C66.7848 65.429 65.7645 64.9761 64.5142 64.9761V65.1528ZM67.4335 66.4505C68.1837 67.3192 68.5591 68.3533 68.5591 69.5575H68.7357C68.7357 68.3131 68.3464 67.2374 67.5672 66.335L67.4335 66.4505ZM68.5591 69.5575V79.6183H68.7357V69.5575H68.5591Z" fill="#C33C0E" mask="url(#path-9-inside-4)"/>
<path d="M42.1667 68.4187H32.3077V65.1096H47.4829L47.4268 68.385L37.71 76.2153L37.612 76.2942L37.7378 76.2938L47.7652 76.2653V79.5751H32.3077V76.2425L42.1939 68.4976L42.2947 68.4187H42.1667Z" fill="#C33C0E" stroke="#C33C0E" stroke-width="0.0883183"/>
<mask id="path-12-inside-5" fill="white">
<path fill-rule="evenodd" clip-rule="evenodd" d="M150.844 79.6183H146.219L138.97 71.464H147.686C148.304 71.464 148.613 70.9639 148.613 69.9638C148.613 68.9636 148.304 68.4633 147.686 68.4627H137.193V79.6183H133.808V65.0645H147.883C149.18 65.0645 150.205 65.5741 150.957 66.5933C151.652 67.5187 152 68.6425 152 69.9646C152 71.2867 151.652 72.4105 150.957 73.3359C150.204 74.3557 149.179 74.8656 147.883 74.8656H146.585L150.844 79.6216"/>
</mask>
<path fill-rule="evenodd" clip-rule="evenodd" d="M150.844 79.6183H146.219L138.97 71.464H147.686C148.304 71.464 148.613 70.9639 148.613 69.9638C148.613 68.9636 148.304 68.4633 147.686 68.4627H137.193V79.6183H133.808V65.0645H147.883C149.18 65.0645 150.205 65.5741 150.957 66.5933C151.652 67.5187 152 68.6425 152 69.9646C152 71.2867 151.652 72.4105 150.957 73.3359C150.204 74.3557 149.179 74.8656 147.883 74.8656H146.585L150.844 79.6216" fill="#C33C0E"/>
<path d="M146.219 79.6183L146.152 79.6769L146.179 79.7066H146.219V79.6183ZM138.97 71.464V71.3757H138.774L138.904 71.5227L138.97 71.464ZM147.686 68.4627L147.686 68.3744H147.686V68.4627ZM137.193 68.4627V68.3744H137.104V68.4627H137.193ZM137.193 79.6183V79.7066H137.281V79.6183H137.193ZM133.808 79.6183H133.72V79.7066H133.808V79.6183ZM133.808 65.0645V64.9761H133.72V65.0645H133.808ZM150.957 66.5933L150.886 66.6458L150.886 66.6464L150.957 66.5933ZM150.957 73.3359L150.886 73.2828L150.886 73.2834L150.957 73.3359ZM146.585 74.8656V74.7773H146.387L146.519 74.9245L146.585 74.8656ZM150.844 79.5299H146.219V79.7066H150.844V79.5299ZM146.285 79.5596L139.036 71.4053L138.904 71.5227L146.152 79.6769L146.285 79.5596ZM138.97 71.5523H147.686V71.3757H138.97V71.5523ZM147.686 71.5523C148.024 71.5523 148.285 71.413 148.456 71.1354C148.624 70.8647 148.701 70.4701 148.701 69.9638H148.525C148.525 70.4576 148.448 70.8131 148.306 71.0425C148.169 71.2649 147.966 71.3757 147.686 71.3757V71.5523ZM148.701 69.9638C148.701 69.4575 148.624 69.0628 148.456 68.792C148.285 68.5142 148.024 68.3747 147.686 68.3744L147.686 68.551C147.966 68.5513 148.169 68.6622 148.306 68.8848C148.448 69.1144 148.525 69.4699 148.525 69.9638H148.701ZM147.686 68.3744H137.193V68.551H147.686V68.3744ZM137.104 68.4627V79.6183H137.281V68.4627H137.104ZM137.193 79.5299H133.808V79.7066H137.193V79.5299ZM133.896 79.6183V65.0645H133.72V79.6183H133.896ZM133.808 65.1528H147.883V64.9761H133.808V65.1528ZM147.883 65.1528C149.153 65.1528 150.151 65.6497 150.886 66.6458L151.028 66.5409C150.259 65.4984 149.208 64.9761 147.883 64.9761V65.1528ZM150.886 66.6464C151.569 67.5544 151.912 68.6588 151.912 69.9646H152.089C152.089 68.6262 151.736 67.4831 151.027 66.5403L150.886 66.6464ZM151.912 69.9646C151.912 71.2704 151.569 72.3748 150.886 73.2828L151.027 73.389C151.736 72.4461 152.089 71.303 152.089 69.9646H151.912ZM150.886 73.2834C150.15 74.2801 149.152 74.7773 147.883 74.7773V74.9539C149.207 74.9539 150.258 74.4313 151.028 73.3883L150.886 73.2834ZM147.883 74.7773H146.585V74.9539H147.883V74.7773ZM146.519 74.9245L150.778 79.6806L150.91 79.5627L146.651 74.8067L146.519 74.9245Z" fill="#C33C0E" mask="url(#path-12-inside-5)"/>
<mask id="mask0" mask-type="alpha" maskUnits="userSpaceOnUse" x="32" y="65" width="121" height="15">
<mask id="path-14-inside-6" mask-type="luminance" fill="white">
<path fill-rule="evenodd" clip-rule="evenodd" d="M130.831 79.6183H127.434V75.0005H118.489V71.6047H127.434V69.5668C127.434 68.8302 127.189 68.4619 126.699 68.4619H117.074C116.604 68.4619 116.368 68.8293 116.367 69.5643V79.6183H112.971V69.5575C112.971 68.3332 113.353 67.2783 114.117 66.3927C114.881 65.5072 115.867 65.0645 117.074 65.0645H126.699C127.926 65.0645 128.921 65.5072 129.686 66.3927C130.45 67.2783 130.832 68.3332 130.832 69.5575V79.6183"/>
</mask>
<path fill-rule="evenodd" clip-rule="evenodd" d="M130.831 79.6183H127.434V75.0005H118.489V71.6047H127.434V69.5668C127.434 68.8302 127.189 68.4619 126.699 68.4619H117.074C116.604 68.4619 116.368 68.8293 116.367 69.5643V79.6183H112.971V69.5575C112.971 68.3332 113.353 67.2783 114.117 66.3927C114.881 65.5072 115.867 65.0645 117.074 65.0645H126.699C127.926 65.0645 128.921 65.5072 129.686 66.3927C130.45 67.2783 130.832 68.3332 130.832 69.5575V79.6183" fill="#E1E1E1"/>
<path d="M127.434 79.6183H127.346V79.7066H127.434V79.6183ZM127.434 75.0005H127.523V74.9121H127.434V75.0005ZM118.489 75.0005H118.4V75.0888H118.489V75.0005ZM118.489 71.6047V71.5164H118.4V71.6047H118.489ZM127.434 71.6047V71.6931H127.523V71.6047H127.434ZM116.367 69.5643L116.279 69.5642V69.5643H116.367ZM116.367 79.6183V79.7066H116.456V79.6183H116.367ZM112.971 79.6183H112.882V79.7066H112.971V79.6183ZM130.832 69.5575L130.744 69.5575V69.5575H130.832ZM130.831 79.53H127.434V79.7066H130.831V79.53ZM127.523 79.6183V75.0005H127.346V79.6183H127.523ZM127.434 74.9121H118.489V75.0888H127.434V74.9121ZM118.577 75.0005V71.6047H118.4V75.0005H118.577ZM118.489 71.6931H127.434V71.5164H118.489V71.6931ZM127.523 71.6047V69.5668H127.346V71.6047H127.523ZM127.523 69.5668C127.523 69.1915 127.461 68.8945 127.324 68.6891C127.183 68.4774 126.97 68.3735 126.699 68.3735V68.5502C126.918 68.5502 127.073 68.6305 127.177 68.787C127.285 68.95 127.346 69.2055 127.346 69.5668H127.523ZM126.699 68.3735H117.074V68.5502H126.699V68.3735ZM117.074 68.3735C116.812 68.3735 116.606 68.4784 116.47 68.6898C116.339 68.8944 116.279 69.1901 116.279 69.5642L116.456 69.5643C116.456 69.2035 116.514 68.948 116.619 68.7851C116.719 68.629 116.866 68.5502 117.074 68.5502V68.3735ZM116.279 69.5643V79.6183H116.456V69.5643H116.279ZM116.367 79.53H112.971V79.7066H116.367V79.53ZM113.059 79.6183V69.5575H112.882V79.6183H113.059ZM113.059 69.5575C113.059 68.3533 113.434 67.3191 114.184 66.4504L114.05 66.335C113.271 67.2374 112.882 68.3131 112.882 69.5575H113.059ZM114.184 66.4504C114.931 65.5851 115.892 65.1528 117.074 65.1528V64.9761C115.842 64.9761 114.832 65.4294 114.05 66.335L114.184 66.4504ZM117.074 65.1528H126.699V64.9761H117.074V65.1528ZM126.699 65.1528C127.901 65.1528 128.872 65.5854 129.619 66.4505L129.752 66.335C128.97 65.429 127.95 64.9761 126.699 64.9761V65.1528ZM129.619 66.4505C130.369 67.3191 130.744 68.3533 130.744 69.5575L130.92 69.5576C130.921 68.3131 130.532 67.2374 129.752 66.335L129.619 66.4505ZM130.744 69.5575V79.6183H130.92V69.5575H130.744Z" fill="#161616" mask="url(#path-14-inside-6)"/>
<mask id="path-16-inside-7" mask-type="luminance" fill="white">
<path fill-rule="evenodd" clip-rule="evenodd" d="M106.372 76.2209C106.86 76.2209 107.104 75.8573 107.104 75.1303C107.105 74.4032 106.861 74.0399 106.372 74.0405H95.6874V76.2209H106.372ZM106.144 70.6431C106.633 70.6431 106.878 70.2795 106.878 69.5525C106.879 68.8254 106.634 68.4621 106.144 68.4627H95.6933V70.6431H106.144ZM108.715 72.2444C109.902 72.9805 110.495 74.1017 110.494 75.6081C110.494 76.7016 110.146 77.6247 109.449 78.3776C108.696 79.207 107.679 79.6214 106.398 79.6208H92.2968V65.0645H106.139C107.42 65.0645 108.437 65.4791 109.19 66.3085C109.868 67.0625 110.207 67.9854 110.207 69.0771C110.207 70.4341 109.708 71.489 108.71 72.2419"/>
</mask>
<path fill-rule="evenodd" clip-rule="evenodd" d="M106.372 76.2209C106.86 76.2209 107.104 75.8573 107.104 75.1303C107.105 74.4032 106.861 74.0399 106.372 74.0405H95.6874V76.2209H106.372ZM106.144 70.6431C106.633 70.6431 106.878 70.2795 106.878 69.5525C106.879 68.8254 106.634 68.4621 106.144 68.4627H95.6933V70.6431H106.144ZM108.715 72.2444C109.902 72.9805 110.495 74.1017 110.494 75.6081C110.494 76.7016 110.146 77.6247 109.449 78.3776C108.696 79.207 107.679 79.6214 106.398 79.6208H92.2968V65.0645H106.139C107.42 65.0645 108.437 65.4791 109.19 66.3085C109.868 67.0625 110.207 67.9854 110.207 69.0771C110.207 70.4341 109.708 71.489 108.71 72.2419" fill="#E1E1E1"/>
<path d="M106.372 74.0405V74.1288H106.372L106.372 74.0405ZM95.6874 74.0405V73.9522H95.5991V74.0405H95.6874ZM95.6874 76.2209H95.5991V76.3092H95.6874V76.2209ZM106.144 68.4627V68.551L106.144 68.551L106.144 68.4627ZM95.6933 68.4627V68.3744H95.605V68.4627H95.6933ZM95.6933 70.6431H95.605V70.7314H95.6933V70.6431ZM110.494 75.6081L110.406 75.6081V75.6081H110.494ZM109.449 78.3776L109.384 78.3177L109.384 78.3182L109.449 78.3776ZM106.398 79.6208L106.398 79.5325H106.398V79.6208ZM92.2968 79.6208H92.2084V79.7091H92.2968V79.6208ZM92.2968 65.0645V64.9761H92.2084V65.0645H92.2968ZM109.19 66.3085L109.256 66.2494L109.256 66.2491L109.19 66.3085ZM106.372 76.3092C106.641 76.3092 106.854 76.2067 106.994 75.9974C107.13 75.7944 107.192 75.501 107.193 75.1303L107.016 75.1302C107.016 75.4866 106.955 75.7385 106.847 75.899C106.744 76.0532 106.59 76.1325 106.372 76.1325V76.3092ZM107.193 75.1303C107.193 74.7597 107.131 74.4662 106.995 74.2632C106.854 74.054 106.642 73.9519 106.372 73.9522L106.372 74.1288C106.591 74.1286 106.745 74.2078 106.848 74.3618C106.956 74.522 107.016 74.7738 107.016 75.1302L107.193 75.1303ZM106.372 73.9522H95.6874V74.1288H106.372V73.9522ZM95.5991 74.0405V76.2209H95.7757V74.0405H95.5991ZM95.6874 76.3092H106.372V76.1325H95.6874V76.3092ZM106.144 70.7314C106.414 70.7314 106.627 70.629 106.768 70.4197C106.904 70.2167 106.966 69.9232 106.967 69.5525L106.79 69.5524C106.79 69.9088 106.729 70.1606 106.621 70.3211C106.517 70.4754 106.363 70.5548 106.144 70.5548V70.7314ZM106.967 69.5525C106.967 69.1819 106.905 68.8884 106.769 68.6854C106.628 68.4761 106.414 68.3741 106.144 68.3744L106.144 68.551C106.364 68.5508 106.518 68.63 106.622 68.7841C106.73 68.9443 106.79 69.196 106.79 69.5524L106.967 69.5525ZM106.144 68.3744H95.6933V68.551H106.144V68.3744ZM95.605 68.4627V70.6431H95.7816V68.4627H95.605ZM95.6933 70.7314H106.144V70.5548H95.6933V70.7314ZM108.668 72.3195C109.827 73.038 110.406 74.1294 110.406 75.6081L110.582 75.6082C110.583 74.0741 109.976 72.923 108.761 72.1694L108.668 72.3195ZM110.406 75.6081C110.406 76.6809 110.065 77.5822 109.384 78.3177L109.514 78.4376C110.227 77.6672 110.582 76.7222 110.582 75.6081H110.406ZM109.384 78.3182C108.649 79.1264 107.658 79.533 106.398 79.5325L106.398 79.7091C107.699 79.7097 108.742 79.2875 109.514 78.437L109.384 78.3182ZM106.398 79.5325H92.2968V79.7091H106.398V79.5325ZM92.3851 79.6208V65.0645H92.2084V79.6208H92.3851ZM92.2968 65.1528H106.139V64.9761H92.2968V65.1528ZM106.139 65.1528C107.399 65.1528 108.391 65.5597 109.125 66.3678L109.256 66.2491C108.483 65.3986 107.441 64.9761 106.139 64.9761V65.1528ZM109.125 66.3675C109.786 67.104 110.118 68.0054 110.118 69.0771H110.295C110.295 67.9654 109.949 67.021 109.256 66.2494L109.125 66.3675ZM110.118 69.0771C110.118 70.4091 109.63 71.4368 108.657 72.1714L108.763 72.3124C109.785 71.5412 110.295 70.459 110.295 69.0771H110.118Z" fill="#161616" mask="url(#path-16-inside-7)"/>
<mask id="path-18-inside-8" mask-type="luminance" fill="white">
<path fill-rule="evenodd" clip-rule="evenodd" d="M89.3199 75.1159C89.3199 76.3431 88.9336 77.4002 88.1611 78.2875C87.3885 79.1747 86.3996 79.6183 85.1943 79.6183H75.5862C74.3618 79.6183 73.3679 79.1747 72.6043 78.2875C71.8407 77.4002 71.4595 76.3431 71.4606 75.1159V65.0645H74.8496V75.1159C74.8496 75.8525 75.0951 76.2206 75.5862 76.22H85.2205C85.6924 76.22 85.9284 75.852 85.9284 75.1159V65.0645H89.3199V75.1159Z"/>
</mask>
<path fill-rule="evenodd" clip-rule="evenodd" d="M89.3199 75.1159C89.3199 76.3431 88.9336 77.4002 88.1611 78.2875C87.3885 79.1747 86.3996 79.6183 85.1943 79.6183H75.5862C74.3618 79.6183 73.3679 79.1747 72.6043 78.2875C71.8407 77.4002 71.4595 76.3431 71.4606 75.1159V65.0645H74.8496V75.1159C74.8496 75.8525 75.0951 76.2206 75.5862 76.22H85.2205C85.6924 76.22 85.9284 75.852 85.9284 75.1159V65.0645H89.3199V75.1159Z" fill="#E1E1E1"/>
<path d="M71.4606 75.1159L71.5489 75.116V75.1159H71.4606ZM71.4606 65.0645V64.9761H71.3723V65.0645H71.4606ZM74.8496 65.0645H74.9379V64.9761H74.8496V65.0645ZM75.5862 76.22V76.1317H75.5861L75.5862 76.22ZM85.9284 65.0645V64.9761H85.8401V65.0645H85.9284ZM89.3199 65.0645H89.4082V64.9761H89.3199V65.0645ZM89.2316 75.1159C89.2316 76.3228 88.8524 77.3591 88.0944 78.2295L88.2277 78.3455C89.0149 77.4414 89.4082 76.3634 89.4082 75.1159H89.2316ZM88.0944 78.2295C87.3391 79.0969 86.3747 79.5299 85.1943 79.5299V79.7066C86.4244 79.7066 87.4378 79.2525 88.2277 78.3455L88.0944 78.2295ZM85.1943 79.5299H75.5862V79.7066H85.1943V79.5299ZM75.5862 79.5299C74.3862 79.5299 73.4172 79.0966 72.6712 78.2298L72.5373 78.3451C73.3186 79.2528 74.3375 79.7066 75.5862 79.7066V79.5299ZM72.6712 78.2298C71.9221 77.3595 71.5478 76.3231 71.5489 75.116L71.3723 75.1158C71.3711 76.363 71.7592 77.441 72.5373 78.3451L72.6712 78.2298ZM71.5489 75.1159V65.0645H71.3723V75.1159H71.5489ZM71.4606 65.1528H74.8496V64.9761H71.4606V65.1528ZM74.7612 65.0645V75.1159H74.9379V65.0645H74.7612ZM74.7612 75.1159C74.7612 75.4913 74.8233 75.7881 74.9602 75.9934C75.1014 76.2051 75.315 76.3086 75.5863 76.3083L75.5861 76.1317C75.3663 76.132 75.2115 76.0518 75.1072 75.8954C74.9986 75.7327 74.9379 75.4772 74.9379 75.1159H74.7612ZM75.5862 76.3083H85.2205V76.1317H75.5862V76.3083ZM85.2205 76.3083C85.4837 76.3083 85.6901 76.2033 85.8258 75.9917C85.9572 75.7867 86.0167 75.4906 86.0167 75.1159H85.8401C85.8401 75.4774 85.7817 75.7332 85.6771 75.8963C85.5768 76.0527 85.4292 76.1317 85.2205 76.1317V76.3083ZM86.0167 75.1159V65.0645H85.8401V75.1159H86.0167ZM85.9284 65.1528H89.3199V64.9761H85.9284V65.1528ZM89.2316 65.0645V75.1159H89.4082V65.0645H89.2316Z" fill="#161616" mask="url(#path-18-inside-8)"/>
<mask id="path-20-inside-9" mask-type="luminance" fill="white">
<path fill-rule="evenodd" clip-rule="evenodd" d="M68.6474 79.6183H65.2508V75.0005H56.3077V71.6047H65.2508V69.5668C65.2508 68.8302 65.0053 68.4619 64.5142 68.4619H54.8892C54.4184 68.4619 54.1827 68.8293 54.1821 69.5643V79.6183H50.7855V69.5575C50.7855 68.3332 51.1679 67.2783 51.9326 66.3927C52.6973 65.5072 53.6829 65.0645 54.8892 65.0645H64.5142C65.7402 65.0645 66.7356 65.5072 67.5003 66.3927C68.265 67.2783 68.6474 68.3332 68.6474 69.5575V79.6183Z"/>
</mask>
<path fill-rule="evenodd" clip-rule="evenodd" d="M68.6474 79.6183H65.2508V75.0005H56.3077V71.6047H65.2508V69.5668C65.2508 68.8302 65.0053 68.4619 64.5142 68.4619H54.8892C54.4184 68.4619 54.1827 68.8293 54.1821 69.5643V79.6183H50.7855V69.5575C50.7855 68.3332 51.1679 67.2783 51.9326 66.3927C52.6973 65.5072 53.6829 65.0645 54.8892 65.0645H64.5142C65.7402 65.0645 66.7356 65.5072 67.5003 66.3927C68.265 67.2783 68.6474 68.3332 68.6474 69.5575V79.6183Z" fill="#E1E1E1"/>
<path d="M65.2508 79.6183H65.1625V79.7066H65.2508V79.6183ZM65.2508 75.0005H65.3392V74.9121H65.2508V75.0005ZM56.3077 75.0005H56.2194V75.0888H56.3077V75.0005ZM56.3077 71.6047V71.5164H56.2194V71.6047H56.3077ZM65.2508 71.6047V71.6931H65.3392V71.6047H65.2508ZM54.1821 69.5643L54.0938 69.5642V69.5643H54.1821ZM54.1821 79.6183V79.7066H54.2704V79.6183H54.1821ZM50.7855 79.6183H50.6972V79.7066H50.7855V79.6183ZM68.6474 69.5575H68.7357H68.6474ZM68.6474 79.5299H65.2508V79.7066H68.6474V79.5299ZM65.3392 79.6183V75.0005H65.1625V79.6183H65.3392ZM65.2508 74.9121H56.3077V75.0888H65.2508V74.9121ZM56.396 75.0005V71.6047H56.2194V75.0005H56.396ZM56.3077 71.6931H65.2508V71.5164H56.3077V71.6931ZM65.3392 71.6047V69.5668H65.1625V71.6047H65.3392ZM65.3392 69.5668C65.3392 69.1915 65.2771 68.8945 65.1402 68.6891C64.999 68.4774 64.7855 68.3735 64.5142 68.3735V68.5502C64.734 68.5502 64.8888 68.6305 64.9932 68.7871C65.1018 68.95 65.1625 69.2055 65.1625 69.5668H65.3392ZM64.5142 68.3735H54.8892V68.5502H64.5142V68.3735ZM54.8892 68.3735C54.6265 68.3735 54.4205 68.4784 54.285 68.6898C54.1537 68.8944 54.0941 69.1901 54.0938 69.5642L54.2704 69.5643C54.2707 69.2035 54.3292 68.948 54.4336 68.7851C54.5338 68.629 54.681 68.5502 54.8892 68.5502V68.3735ZM54.0938 69.5643V79.6183H54.2704V69.5643H54.0938ZM54.1821 79.5299H50.7855V79.7066H54.1821V79.5299ZM50.8738 79.6183V69.5575H50.6972V79.6183H50.8738ZM50.8738 69.5575C50.8738 68.3533 51.2493 67.3192 51.9994 66.4505L51.8658 66.335C51.0865 67.2374 50.6972 68.3131 50.6972 69.5575H50.8738ZM51.9994 66.4505C52.7468 65.585 53.7076 65.1528 54.8892 65.1528V64.9761C53.6581 64.9761 52.6478 65.4294 51.8658 66.335L51.9994 66.4505ZM54.8892 65.1528H64.5142V64.9761H54.8892V65.1528ZM64.5142 65.1528C65.716 65.1528 66.6864 65.5854 67.4335 66.4505L67.5672 66.335C66.7848 65.429 65.7645 64.9761 64.5142 64.9761V65.1528ZM67.4335 66.4505C68.1837 67.3192 68.5591 68.3533 68.5591 69.5575H68.7357C68.7357 68.3131 68.3464 67.2374 67.5672 66.335L67.4335 66.4505ZM68.5591 69.5575V79.6183H68.7357V69.5575H68.5591Z" fill="#161616" mask="url(#path-20-inside-9)"/>
<path d="M42.1667 68.4187H32.3077V65.1096H47.4829L47.4268 68.385L37.71 76.2153L37.612 76.2942L37.7378 76.2938L47.7652 76.2653V79.5751H32.3077V76.2425L42.1939 68.4976L42.2947 68.4187H42.1667Z" fill="#E1E1E1" stroke="#161616" stroke-width="0.0883183"/>
<mask id="path-23-inside-10" mask-type="luminance" fill="white">
<path fill-rule="evenodd" clip-rule="evenodd" d="M150.844 79.6183H146.219L138.97 71.464H147.686C148.304 71.464 148.613 70.9639 148.613 69.9638C148.613 68.9636 148.304 68.4633 147.686 68.4627H137.193V79.6183H133.808V65.0645H147.883C149.18 65.0645 150.205 65.5741 150.957 66.5933C151.652 67.5187 152 68.6425 152 69.9646C152 71.2867 151.652 72.4105 150.957 73.3359C150.204 74.3557 149.179 74.8656 147.883 74.8656H146.585L150.844 79.6216"/>
</mask>
<path fill-rule="evenodd" clip-rule="evenodd" d="M150.844 79.6183H146.219L138.97 71.464H147.686C148.304 71.464 148.613 70.9639 148.613 69.9638C148.613 68.9636 148.304 68.4633 147.686 68.4627H137.193V79.6183H133.808V65.0645H147.883C149.18 65.0645 150.205 65.5741 150.957 66.5933C151.652 67.5187 152 68.6425 152 69.9646C152 71.2867 151.652 72.4105 150.957 73.3359C150.204 74.3557 149.179 74.8656 147.883 74.8656H146.585L150.844 79.6216" fill="#E1E1E1"/>
<path d="M146.219 79.6183L146.152 79.6769L146.179 79.7066H146.219V79.6183ZM138.97 71.464V71.3757H138.774L138.904 71.5227L138.97 71.464ZM147.686 68.4627L147.686 68.3744H147.686V68.4627ZM137.193 68.4627V68.3744H137.104V68.4627H137.193ZM137.193 79.6183V79.7066H137.281V79.6183H137.193ZM133.808 79.6183H133.72V79.7066H133.808V79.6183ZM133.808 65.0645V64.9761H133.72V65.0645H133.808ZM150.957 66.5933L150.886 66.6458L150.886 66.6464L150.957 66.5933ZM150.957 73.3359L150.886 73.2828L150.886 73.2834L150.957 73.3359ZM146.585 74.8656V74.7773H146.387L146.519 74.9245L146.585 74.8656ZM150.844 79.5299H146.219V79.7066H150.844V79.5299ZM146.285 79.5596L139.036 71.4053L138.904 71.5227L146.152 79.6769L146.285 79.5596ZM138.97 71.5523H147.686V71.3757H138.97V71.5523ZM147.686 71.5523C148.024 71.5523 148.285 71.413 148.456 71.1354C148.624 70.8647 148.701 70.4701 148.701 69.9638H148.525C148.525 70.4576 148.448 70.8131 148.306 71.0425C148.169 71.2649 147.966 71.3757 147.686 71.3757V71.5523ZM148.701 69.9638C148.701 69.4575 148.624 69.0628 148.456 68.792C148.285 68.5142 148.024 68.3747 147.686 68.3744L147.686 68.551C147.966 68.5513 148.169 68.6622 148.306 68.8848C148.448 69.1144 148.525 69.4699 148.525 69.9638H148.701ZM147.686 68.3744H137.193V68.551H147.686V68.3744ZM137.104 68.4627V79.6183H137.281V68.4627H137.104ZM137.193 79.5299H133.808V79.7066H137.193V79.5299ZM133.896 79.6183V65.0645H133.72V79.6183H133.896ZM133.808 65.1528H147.883V64.9761H133.808V65.1528ZM147.883 65.1528C149.153 65.1528 150.151 65.6497 150.886 66.6458L151.028 66.5409C150.259 65.4984 149.208 64.9761 147.883 64.9761V65.1528ZM150.886 66.6464C151.569 67.5544 151.912 68.6588 151.912 69.9646H152.089C152.089 68.6262 151.736 67.4831 151.027 66.5403L150.886 66.6464ZM151.912 69.9646C151.912 71.2704 151.569 72.3748 150.886 73.2828L151.027 73.389C151.736 72.4461 152.089 71.303 152.089 69.9646H151.912ZM150.886 73.2834C150.15 74.2801 149.152 74.7773 147.883 74.7773V74.9539C149.207 74.9539 150.258 74.4313 151.028 73.3883L150.886 73.2834ZM147.883 74.7773H146.585V74.9539H147.883V74.7773ZM146.519 74.9245L150.778 79.6806L150.91 79.5627L146.651 74.8067L146.519 74.9245Z" fill="#161616" mask="url(#path-23-inside-10)"/>
</mask>
<g mask="url(#mask0)">
<rect x="29.485" y="72.3576" width="126.335" height="9.35126" fill="#C33C0E" stroke="#C33C0E" stroke-width="0.0883183"/>
</g>
<mask id="path-26-inside-11" fill="white">
<path fill-rule="evenodd" clip-rule="evenodd" d="M130.831 79.6183H127.434V75.0005H118.489V71.6047H127.434V69.5668C127.434 68.8302 127.189 68.4619 126.699 68.4619H117.074C116.604 68.4619 116.368 68.8293 116.367 69.5643V79.6183H112.971V69.5575C112.971 68.3332 113.353 67.2783 114.117 66.3927C114.881 65.5072 115.867 65.0645 117.074 65.0645H126.699C127.926 65.0645 128.921 65.5072 129.686 66.3927C130.45 67.2783 130.832 68.3332 130.832 69.5575V79.6183"/>
</mask>
<path d="M127.434 79.6183H126.816V80.2365H127.434V79.6183ZM127.434 75.0005H128.053V74.3822H127.434V75.0005ZM118.489 75.0005H117.87V75.6187H118.489V75.0005ZM118.489 71.6047V70.9865H117.87V71.6047H118.489ZM127.434 71.6047V72.223H128.053V71.6047H127.434ZM116.367 69.5643L115.749 69.5638V69.5643H116.367ZM116.367 79.6183V80.2365H116.986V79.6183H116.367ZM112.971 79.6183H112.352V80.2365H112.971V79.6183ZM130.832 69.5575L130.214 69.5572V69.5575H130.832ZM130.831 79H127.434V80.2365H130.831V79ZM128.053 79.6183V75.0005H126.816V79.6183H128.053ZM127.434 74.3822H118.489V75.6187H127.434V74.3822ZM119.107 75.0005V71.6047H117.87V75.0005H119.107ZM118.489 72.223H127.434V70.9865H118.489V72.223ZM128.053 71.6047V69.5668H126.816V71.6047H128.053ZM128.053 69.5668C128.053 69.1494 127.987 68.7283 127.765 68.3954C127.514 68.0182 127.124 67.8436 126.699 67.8436V69.0801C126.744 69.0801 126.753 69.0882 126.744 69.0838C126.732 69.078 126.73 69.0713 126.736 69.0808C126.76 69.1162 126.816 69.2476 126.816 69.5668H128.053ZM126.699 67.8436H117.074V69.0801H126.699V67.8436ZM117.074 67.8436C116.648 67.8436 116.266 68.0267 116.024 68.4037C115.812 68.7338 115.749 69.1501 115.749 69.5638L116.986 69.5647C116.986 69.2435 117.041 69.1086 117.065 69.0713C117.071 69.0613 117.067 69.0707 117.051 69.0792C117.036 69.0868 117.038 69.0801 117.074 69.0801V67.8436ZM115.749 69.5643V79.6183H116.986V69.5643H115.749ZM116.367 79H112.971V80.2365H116.367V79ZM113.589 79.6183V69.5575H112.352V79.6183H113.589ZM113.589 69.5575C113.589 68.4739 113.923 67.5643 114.585 66.7966L113.649 65.9888C112.783 66.9922 112.352 68.1925 112.352 69.5575H113.589ZM114.585 66.7966C115.227 66.0522 116.04 65.6827 117.074 65.6827V64.4462C115.694 64.4462 114.535 64.9623 113.649 65.9888L114.585 66.7966ZM117.074 65.6827H126.699V64.4462H117.074V65.6827ZM126.699 65.6827C127.756 65.6827 128.577 66.0545 129.218 66.7968L130.154 65.9887C129.265 64.9599 128.095 64.4462 126.699 64.4462V65.6827ZM129.218 66.7968C129.881 67.5644 130.214 68.4739 130.214 69.5572L131.45 69.5578C131.451 68.1925 131.02 66.9921 130.154 65.9887L129.218 66.7968ZM130.214 69.5575V79.6183H131.45V69.5575H130.214Z" fill="#C33C0E" mask="url(#path-26-inside-11)"/>
<mask id="path-28-inside-12" fill="white">
<path fill-rule="evenodd" clip-rule="evenodd" d="M106.372 76.2209C106.86 76.2209 107.104 75.8573 107.104 75.1303C107.105 74.4032 106.861 74.0399 106.372 74.0405H95.6874V76.2209H106.372ZM106.144 70.6431C106.633 70.6431 106.878 70.2795 106.878 69.5525C106.879 68.8254 106.634 68.4621 106.144 68.4627H95.6933V70.6431H106.144ZM108.715 72.2444C109.902 72.9805 110.495 74.1017 110.494 75.6081C110.494 76.7016 110.146 77.6247 109.449 78.3776C108.696 79.207 107.679 79.6214 106.398 79.6208H92.2968V65.0645H106.139C107.42 65.0645 108.437 65.4791 109.19 66.3085C109.868 67.0625 110.207 67.9854 110.207 69.0771C110.207 70.4341 109.708 71.489 108.71 72.2419"/>
</mask>
<path d="M106.372 74.0405V74.6587L106.373 74.6587L106.372 74.0405ZM95.6874 74.0405V73.4223H95.0692V74.0405H95.6874ZM95.6874 76.2209H95.0692V76.8391H95.6874V76.2209ZM106.144 68.4627V69.0809L106.145 69.0809L106.144 68.4627ZM95.6933 68.4627V67.8445H95.0751V68.4627H95.6933ZM95.6933 70.6431H95.0751V71.2613H95.6933V70.6431ZM110.494 75.6081L109.876 75.6079V75.6081H110.494ZM109.449 78.3776L108.995 77.9577L108.991 77.9619L109.449 78.3776ZM106.398 79.6208L106.398 79.0026H106.398V79.6208ZM92.2968 79.6208H91.6785V80.239H92.2968V79.6208ZM92.2968 65.0645V64.4462H91.6785V65.0645H92.2968ZM109.19 66.3085L109.65 65.8952L109.648 65.8927L109.19 66.3085ZM106.372 76.8391C106.794 76.8391 107.183 76.6673 107.434 76.2929C107.656 75.9621 107.722 75.544 107.722 75.1307L106.486 75.1298C106.486 75.4436 106.43 75.5707 106.407 75.6035C106.402 75.6119 106.405 75.6048 106.417 75.599C106.426 75.5945 106.417 75.6026 106.372 75.6026V76.8391ZM107.722 75.1307C107.723 74.7175 107.657 74.2988 107.435 73.9677C107.183 73.5927 106.793 73.4218 106.371 73.4223L106.373 74.6587C106.418 74.6587 106.427 74.6668 106.418 74.6624C106.407 74.6566 106.403 74.6494 106.408 74.6574C106.43 74.6895 106.486 74.816 106.486 75.1298L107.722 75.1307ZM106.372 73.4223H95.6874V74.6587H106.372V73.4223ZM95.0692 74.0405V76.2209H96.3056V74.0405H95.0692ZM95.6874 76.8391H106.372V75.6026H95.6874V76.8391ZM106.144 71.2613C106.567 71.2613 106.955 71.09 107.207 70.7156C107.43 70.3848 107.496 69.9664 107.497 69.5529L106.26 69.552C106.26 69.8657 106.204 69.9925 106.182 70.0252C106.176 70.0335 106.179 70.0266 106.191 70.021C106.199 70.0167 106.19 70.0249 106.144 70.0249V71.2613ZM107.497 69.5529C107.497 69.1395 107.431 68.7206 107.208 68.3893C106.956 68.0145 106.566 67.844 106.144 67.8445L106.145 69.0809C106.191 69.0809 106.201 69.0891 106.192 69.0849C106.181 69.0792 106.177 69.0722 106.183 69.0801C106.204 69.1122 106.26 69.2384 106.26 69.552L107.497 69.5529ZM106.144 67.8445H95.6933V69.0809H106.144V67.8445ZM95.0751 68.4627V70.6431H96.3116V68.4627H95.0751ZM95.6933 71.2613H106.144V70.0249H95.6933V71.2613ZM108.389 72.7698C109.377 73.3828 109.876 74.2952 109.876 75.6079L111.112 75.6084C111.113 73.9082 110.426 72.5782 109.041 71.7191L108.389 72.7698ZM109.876 75.6081C109.876 76.5571 109.579 77.3271 108.995 77.9577L109.903 78.7975C110.713 77.9224 111.112 76.846 111.112 75.6081H109.876ZM108.991 77.9619C108.372 78.6432 107.532 79.0031 106.398 79.0026L106.398 80.239C107.825 80.2397 109.019 79.7708 109.907 78.7934L108.991 77.9619ZM106.398 79.0026H92.2968V80.239H106.398V79.0026ZM92.915 79.6208V65.0645H91.6785V79.6208H92.915ZM92.2968 65.6827H106.139V64.4462H92.2968V65.6827ZM106.139 65.6827C107.273 65.6827 108.114 66.0428 108.733 66.7242L109.648 65.8927C108.76 64.9154 107.567 64.4462 106.139 64.4462V65.6827ZM108.73 66.7217C109.298 67.3531 109.588 68.1252 109.588 69.0771H110.825C110.825 67.8456 110.438 66.7719 109.65 65.8952L108.73 66.7217ZM109.588 69.0771C109.588 70.2593 109.166 71.1234 108.337 71.7484L109.082 72.7354C110.25 71.8546 110.825 70.6088 110.825 69.0771H109.588Z" fill="#C33C0E" mask="url(#path-28-inside-12)"/>
<mask id="path-30-inside-13" fill="white">
<path fill-rule="evenodd" clip-rule="evenodd" d="M89.3199 75.1159C89.3199 76.3431 88.9336 77.4002 88.1611 78.2875C87.3885 79.1747 86.3996 79.6183 85.1943 79.6183H75.5862C74.3618 79.6183 73.3679 79.1747 72.6043 78.2875C71.8407 77.4002 71.4595 76.3431 71.4606 75.1159V65.0645H74.8496V75.1159C74.8496 75.8525 75.0951 76.2206 75.5862 76.22H85.2205C85.6924 76.22 85.9284 75.852 85.9284 75.1159V65.0645H89.3199V75.1159Z"/>
</mask>
<path d="M71.4606 75.1159L72.0788 75.1165V75.1159H71.4606ZM71.4606 65.0645V64.4462H70.8423V65.0645H71.4606ZM74.8496 65.0645H75.4678V64.4462H74.8496V65.0645ZM75.5862 76.22V75.6018L75.5855 75.6018L75.5862 76.22ZM85.9284 65.0645V64.4462H85.3102V65.0645H85.9284ZM89.3199 65.0645H89.9382V64.4462H89.3199V65.0645ZM88.7017 75.1159C88.7017 76.2009 88.3649 77.112 87.6948 77.8815L88.6273 78.6935C89.5024 77.6885 89.9382 76.4853 89.9382 75.1159H88.7017ZM87.6948 77.8815C87.0429 78.6301 86.2258 79 85.1943 79V80.2365C86.5733 80.2365 87.734 79.7192 88.6273 78.6935L87.6948 77.8815ZM85.1943 79H75.5862V80.2365H85.1943V79ZM75.5862 79C74.5324 79 73.713 78.6279 73.0729 77.8842L72.1357 78.6907C73.0228 79.7214 74.1912 80.2365 75.5862 80.2365V79ZM73.0729 77.8842C72.4109 77.1151 72.0778 76.2032 72.0788 75.1165L70.8423 75.1154C70.8411 76.4829 71.2705 77.6854 72.1357 78.6907L73.0729 77.8842ZM72.0788 75.1159V65.0645H70.8423V75.1159H72.0788ZM71.4606 65.6827H74.8496V64.4462H71.4606V65.6827ZM74.2313 65.0645V75.1159H75.4678V65.0645H74.2313ZM74.2313 75.1159C74.2313 75.5333 74.2973 75.9546 74.5194 76.2875C74.7711 76.6648 75.1612 76.8387 75.5869 76.8382L75.5855 75.6018C75.5403 75.6018 75.531 75.5937 75.5399 75.5981C75.5514 75.6038 75.5542 75.6106 75.548 75.6013C75.5245 75.5662 75.4678 75.4351 75.4678 75.1159H74.2313ZM75.5862 76.8382H85.2205V75.6018H75.5862V76.8382ZM85.2205 76.8382C85.647 76.8382 86.0298 76.6552 86.2719 76.2777C86.4838 75.9471 86.5467 75.5302 86.5467 75.1159H85.3102C85.3102 75.4377 85.255 75.5728 85.231 75.6103C85.2246 75.6203 85.2287 75.611 85.245 75.6025C85.2594 75.595 85.2573 75.6018 85.2205 75.6018V76.8382ZM86.5467 75.1159V65.0645H85.3102V75.1159H86.5467ZM85.9284 65.6827H89.3199V64.4462H85.9284V65.6827ZM88.7017 65.0645V75.1159H89.9382V65.0645H88.7017Z" fill="#C33C0E" mask="url(#path-30-inside-13)"/>
<mask id="path-32-inside-14" fill="white">
<path fill-rule="evenodd" clip-rule="evenodd" d="M68.6474 79.6183H65.2508V75.0005H56.3077V71.6047H65.2508V69.5668C65.2508 68.8302 65.0053 68.4619 64.5142 68.4619H54.8892C54.4184 68.4619 54.1827 68.8293 54.1821 69.5643V79.6183H50.7855V69.5575C50.7855 68.3332 51.1679 67.2783 51.9326 66.3927C52.6973 65.5072 53.6829 65.0645 54.8892 65.0645H64.5142C65.7402 65.0645 66.7356 65.5072 67.5003 66.3927C68.265 67.2783 68.6474 68.3332 68.6474 69.5575V79.6183Z"/>
</mask>
<path d="M65.2508 79.6183H64.6326V80.2365H65.2508V79.6183ZM65.2508 75.0005H65.8691V74.3822H65.2508V75.0005ZM56.3077 75.0005H55.6895V75.6187H56.3077V75.0005ZM56.3077 71.6047V70.9865H55.6895V71.6047H56.3077ZM65.2508 71.6047V72.223H65.8691V71.6047H65.2508ZM54.1821 69.5643L53.5639 69.5638V69.5643H54.1821ZM54.1821 79.6183V80.2365H54.8003V79.6183H54.1821ZM50.7855 79.6183H50.1673V80.2365H50.7855V79.6183ZM68.6474 69.5575H69.2656H68.6474ZM68.6474 79H65.2508V80.2365H68.6474V79ZM65.8691 79.6183V75.0005H64.6326V79.6183H65.8691ZM65.2508 74.3822H56.3077V75.6187H65.2508V74.3822ZM56.9259 75.0005V71.6047H55.6895V75.0005H56.9259ZM56.3077 72.223H65.2508V70.9865H56.3077V72.223ZM65.8691 71.6047V69.5668H64.6326V71.6047H65.8691ZM65.8691 69.5668C65.8691 69.1493 65.803 68.7281 65.5811 68.3952C65.3296 68.018 64.9399 67.8436 64.5142 67.8436V69.0801C64.5593 69.0801 64.5688 69.0883 64.56 69.0839C64.5487 69.0782 64.546 69.0715 64.5523 69.081C64.5759 69.1164 64.6326 69.2477 64.6326 69.5668H65.8691ZM64.5142 67.8436H54.8892V69.0801H64.5142V67.8436ZM54.8892 67.8436C54.463 67.8436 54.0807 68.0267 53.8389 68.4037C53.6272 68.7338 53.5642 69.1501 53.5639 69.5638L54.8003 69.5647C54.8006 69.2435 54.8557 69.1086 54.8797 69.0712C54.8861 69.0613 54.8819 69.0707 54.8654 69.0792C54.8509 69.0868 54.8527 69.0801 54.8892 69.0801V67.8436ZM53.5639 69.5643V79.6183H54.8003V69.5643H53.5639ZM54.1821 79H50.7855V80.2365H54.1821V79ZM51.4038 79.6183V69.5575H50.1673V79.6183H51.4038ZM51.4038 69.5575C51.4038 68.474 51.7376 67.5645 52.4005 66.7968L51.4647 65.9887C50.5982 66.992 50.1673 68.1923 50.1673 69.5575H51.4038ZM52.4005 66.7968C53.0437 66.052 53.8561 65.6827 54.8892 65.6827V64.4462C53.5096 64.4462 52.351 64.9624 51.4647 65.9887L52.4005 66.7968ZM54.8892 65.6827H64.5142V64.4462H54.8892V65.6827ZM64.5142 65.6827C65.5704 65.6827 66.3914 66.0545 67.0324 66.7968L67.9682 65.9887C67.0798 64.9599 65.9101 64.4462 64.5142 64.4462V65.6827ZM67.0324 66.7968C67.6954 67.5645 68.0292 68.474 68.0292 69.5575H69.2656C69.2656 68.1923 68.8347 66.992 67.9682 65.9887L67.0324 66.7968ZM68.0292 69.5575V79.6183H69.2656V69.5575H68.0292Z" fill="#C33C0E" mask="url(#path-32-inside-14)"/>
<path d="M42.1667 68.1537H32.5727V65.3745H47.2134L47.164 68.2564L37.5437 76.009L36.8583 76.5613L37.7385 76.5588L47.5002 76.531V79.3101H32.5727V76.3715L42.3573 68.7062L43.0625 68.1537H42.1667Z" stroke="#C33C0E" stroke-width="0.618228"/>
<mask id="path-35-inside-15" fill="white">
<path fill-rule="evenodd" clip-rule="evenodd" d="M150.844 79.6183H146.219L138.97 71.464H147.686C148.304 71.464 148.613 70.9639 148.613 69.9638C148.613 68.9636 148.304 68.4633 147.686 68.4627H137.193V79.6183H133.808V65.0645H147.883C149.18 65.0645 150.205 65.5741 150.957 66.5933C151.652 67.5187 152 68.6425 152 69.9646C152 71.2867 151.652 72.4105 150.957 73.3359C150.204 74.3557 149.179 74.8656 147.883 74.8656H146.585L150.844 79.6216"/>
</mask>
<path d="M146.219 79.6183L145.756 80.029L145.941 80.2365H146.219V79.6183ZM138.97 71.464V70.8458H137.594L138.508 71.8747L138.97 71.464ZM147.686 68.4627L147.686 67.8445H147.686V68.4627ZM137.193 68.4627V67.8445H136.575V68.4627H137.193ZM137.193 79.6183V80.2365H137.811V79.6183H137.193ZM133.808 79.6183H133.19V80.2365H133.808V79.6183ZM133.808 65.0645V64.4462H133.19V65.0645H133.808ZM150.957 66.5933L150.459 66.9603L150.463 66.9648L150.957 66.5933ZM150.957 73.3359L150.463 72.9644L150.459 72.9687L150.957 73.3359ZM146.585 74.8656V74.2474H145.202L146.125 75.278L146.585 74.8656ZM150.844 79H146.219V80.2365H150.844V79ZM146.681 79.2075L139.432 71.0533L138.508 71.8747L145.756 80.029L146.681 79.2075ZM138.97 72.0822H147.686V70.8458H138.97V72.0822ZM147.686 72.0822C148.196 72.0822 148.633 71.8573 148.907 71.4139C149.151 71.0196 149.231 70.5074 149.231 69.9638H147.995C147.995 70.4202 147.921 70.6582 147.855 70.7639C147.828 70.8078 147.808 70.8208 147.798 70.8261C147.787 70.8322 147.756 70.8458 147.686 70.8458V72.0822ZM149.231 69.9638C149.231 69.42 149.151 68.9079 148.907 68.5135C148.633 68.0702 148.196 67.8449 147.686 67.8445L147.685 69.0809C147.755 69.081 147.786 69.0946 147.798 69.1007C147.808 69.1061 147.828 69.1193 147.855 69.1633C147.921 69.2692 147.995 69.5073 147.995 69.9638H149.231ZM147.686 67.8445H137.193V69.0809H147.686V67.8445ZM136.575 68.4627V79.6183H137.811V68.4627H136.575ZM137.193 79H133.808V80.2365H137.193V79ZM134.426 79.6183V65.0645H133.19V79.6183H134.426ZM133.808 65.6827H147.883V64.4462H133.808V65.6827ZM147.883 65.6827C148.99 65.6827 149.827 66.1035 150.459 66.9603L151.454 66.2264C150.583 65.0446 149.371 64.4462 147.883 64.4462V65.6827ZM150.463 66.9648C151.067 67.7682 151.382 68.7566 151.382 69.9646H152.618C152.618 68.5284 152.238 67.2693 151.451 66.2219L150.463 66.9648ZM151.382 69.9646C151.382 71.1726 151.067 72.161 150.463 72.9644L151.451 73.7074C152.238 72.66 152.618 71.4008 152.618 69.9646H151.382ZM150.459 72.9687C149.826 73.8265 148.988 74.2474 147.883 74.2474V75.4838C149.37 75.4838 150.582 74.8849 151.454 73.7031L150.459 72.9687ZM147.883 74.2474H146.585V75.4838H147.883V74.2474ZM146.125 75.278L150.383 80.0341L151.304 79.2092L147.046 74.4532L146.125 75.278Z" fill="#C33C0E" mask="url(#path-35-inside-15)"/>
</svg>
