<svg width="41" height="40" viewBox="0 0 41 40" fill="none" xmlns="http://www.w3.org/2000/svg">
<path d="M36.3335 22.6523C36.3335 31.4812 29.1682 38.6419 20.3335 38.6419C11.4988 38.6419 4.3335 31.4812 4.3335 22.6523C4.3335 13.8234 11.4988 6.66276 20.3335 6.66276M17.6668 1.33301L23.0002 6.66276L17.6668 11.9928" stroke="black" stroke-width="2" stroke-linecap="round" stroke-linejoin="round"/>
<path d="M11.6135 21.508V20.1L15.4535 19.14V30.5H14.0935V20.772L11.6135 21.508ZM18.1766 24.9C18.1766 23.78 18.3526 22.788 18.7046 21.924C19.0566 21.06 19.542 20.3827 20.1606 19.892C20.79 19.3907 21.5153 19.14 22.3366 19.14C23.158 19.14 23.878 19.3907 24.4966 19.892C25.126 20.3827 25.6166 21.06 25.9686 21.924C26.3206 22.788 26.4966 23.78 26.4966 24.9C26.4966 26.02 26.3206 27.012 25.9686 27.876C25.6166 28.74 25.126 29.4227 24.4966 29.924C23.878 30.4147 23.158 30.66 22.3366 30.66C21.5153 30.66 20.79 30.4147 20.1606 29.924C19.542 29.4227 19.0566 28.74 18.7046 27.876C18.3526 27.012 18.1766 26.02 18.1766 24.9ZM19.5366 24.9C19.5366 25.764 19.6486 26.5373 19.8726 27.22C20.1073 27.892 20.4326 28.42 20.8486 28.804C21.2646 29.188 21.7606 29.38 22.3366 29.38C22.9126 29.38 23.4086 29.188 23.8246 28.804C24.2513 28.42 24.5766 27.892 24.8006 27.22C25.0246 26.5373 25.1366 25.764 25.1366 24.9C25.1366 24.0253 25.0246 23.252 24.8006 22.58C24.5766 21.908 24.2513 21.38 23.8246 20.996C23.4086 20.612 22.9126 20.42 22.3366 20.42C21.7606 20.42 21.2646 20.612 20.8486 20.996C20.4326 21.38 20.1073 21.908 19.8726 22.58C19.6486 23.252 19.5366 24.0253 19.5366 24.9Z" fill="black"/>
</svg>
