<svg width="41" height="40" viewBox="0 0 41 40" fill="none" xmlns="http://www.w3.org/2000/svg">
<path d="M36.3334 22.6523C36.3334 31.4812 29.1681 38.6419 20.3334 38.6419C11.4988 38.6419 4.33344 31.4812 4.33344 22.6523C4.33344 13.8234 11.4988 6.66276 20.3334 6.66276M17.6668 1.33301L23.0001 6.66276L17.6668 11.9928" stroke="#DBD4A0" stroke-width="2" stroke-linecap="round" stroke-linejoin="round"/>
<path d="M15.6289 18.8636H14.2198L11.3107 20.7955V22.2273L14.1516 20.3409H14.2198V30.5H15.6289V18.8636ZM22.7709 30.6591C25.3391 30.6591 26.8164 28.483 26.8164 24.6818C26.8164 20.9091 25.3164 18.7045 22.7709 18.7045C20.2255 18.7045 18.7255 20.9091 18.7255 24.6818C18.7255 28.483 20.2027 30.6591 22.7709 30.6591ZM22.7709 29.4091C21.0777 29.4091 20.0891 27.7102 20.0891 24.6818C20.0891 21.6591 21.0891 19.9318 22.7709 19.9318C24.4527 19.9318 25.4527 21.6591 25.4527 24.6818C25.4527 27.7102 24.4641 29.4091 22.7709 29.4091Z" fill="#DBD4A0"/>
</svg>
