<svg width="33" height="32" viewBox="0 0 33 32" fill="none" xmlns="http://www.w3.org/2000/svg">
<path d="M28.682 17H24.682C24.1515 17 23.6428 17.2107 23.2678 17.5858C22.8927 17.9609 22.682 18.4696 22.682 19V24C22.682 24.5304 22.8927 25.0391 23.2678 25.4142C23.6428 25.7893 24.1515 26 24.682 26H26.682C27.2124 26 27.7211 25.7893 28.0962 25.4142C28.4713 25.0391 28.682 24.5304 28.682 24V17ZM28.682 17C28.682 15.4165 28.3686 13.8486 27.7598 12.3868C27.151 10.925 26.259 9.59808 25.135 8.48262C24.0111 7.36715 22.6775 6.48517 21.2111 5.88751C19.7447 5.28986 18.1745 4.98834 16.591 5.00034C15.0075 4.98834 13.4373 5.28986 11.9709 5.88751C10.5045 6.48517 9.1709 7.36715 8.04695 8.48262C6.923 9.59808 6.03093 10.925 5.42217 12.3868C4.81341 13.8486 4.5 15.4165 4.5 17V24C4.5 24.5304 4.71071 25.0391 5.08579 25.4142C5.46086 25.7893 5.96957 26 6.5 26H8.5C9.03043 26 9.53914 25.7893 9.91421 25.4142C10.2893 25.0391 10.5 24.5304 10.5 24V19C10.5 18.4696 10.2893 17.9609 9.91421 17.5858C9.53914 17.2107 9.03043 17 8.5 17H4.5" stroke="#962E0A" stroke-width="2" stroke-linecap="round" stroke-linejoin="round"/>
</svg>
