<svg width="41" height="40" viewBox="0 0 41 40" fill="none" xmlns="http://www.w3.org/2000/svg">
<path d="M36.333 22.6523C36.333 31.4812 29.1677 38.6419 20.333 38.6419C11.4983 38.6419 4.33301 31.4812 4.33301 22.6523C4.33301 13.8234 11.4983 6.66276 20.333 6.66276M17.6663 1.33301L22.9997 6.66276L17.6663 11.9928" stroke="black" stroke-width="2" stroke-linecap="round" stroke-linejoin="round"/>
<path d="M15.6285 18.8636H14.2194L11.3103 20.7955V22.2273L14.1512 20.3409H14.2194V30.5H15.6285V18.8636ZM22.7705 30.6591C25.3387 30.6591 26.816 28.483 26.816 24.6818C26.816 20.9091 25.316 18.7045 22.7705 18.7045C20.2251 18.7045 18.7251 20.9091 18.7251 24.6818C18.7251 28.483 20.2023 30.6591 22.7705 30.6591ZM22.7705 29.4091C21.0773 29.4091 20.0887 27.7102 20.0887 24.6818C20.0887 21.6591 21.0887 19.9318 22.7705 19.9318C24.4523 19.9318 25.4523 21.6591 25.4523 24.6818C25.4523 27.7102 24.4637 29.4091 22.7705 29.4091Z" fill="black"/>
</svg>
