<svg width="40" height="40" viewBox="0 0 40 40" fill="none" xmlns="http://www.w3.org/2000/svg">
<path d="M22.664 1.33301L17.3333 6.66286L22.664 11.9927M20 6.66309C28.8347 6.66309 36 13.8237 36 22.6527C36 31.4816 28.8347 38.6422 20 38.6422C11.1653 38.6422 4 31.4816 4 22.6527" stroke="black" stroke-width="2" stroke-linecap="round" stroke-linejoin="round"/>
<path d="M15.2955 18.8636H13.8864L10.9773 20.7955V22.2273L13.8182 20.3409H13.8864V30.5H15.2955V18.8636ZM22.4375 30.6591C25.0057 30.6591 26.483 28.483 26.483 24.6818C26.483 20.9091 24.983 18.7045 22.4375 18.7045C19.892 18.7045 18.392 20.9091 18.392 24.6818C18.392 28.483 19.8693 30.6591 22.4375 30.6591ZM22.4375 29.4091C20.7443 29.4091 19.7557 27.7102 19.7557 24.6818C19.7557 21.6591 20.7557 19.9318 22.4375 19.9318C24.1193 19.9318 25.1193 21.6591 25.1193 24.6818C25.1193 27.7102 24.1307 29.4091 22.4375 29.4091Z" fill="black"/>
</svg>
