<svg width="40" height="40" viewBox="0 0 40 40" fill="none" xmlns="http://www.w3.org/2000/svg">
<path d="M22.664 1.33301L17.3333 6.66286L22.664 11.9927M20 6.66309C28.8347 6.66309 36 13.8237 36 22.6527C36 31.4816 28.8347 38.6422 20 38.6422C11.1653 38.6422 4 31.4816 4 22.6527" stroke="black" stroke-width="2" stroke-linecap="round" stroke-linejoin="round"/>
<path d="M11.28 21.508V20.1L15.12 19.14V30.5H13.76V20.772L11.28 21.508ZM17.8431 24.9C17.8431 23.78 18.0191 22.788 18.3711 21.924C18.7231 21.06 19.2085 20.3827 19.8271 19.892C20.4565 19.3907 21.1818 19.14 22.0031 19.14C22.8245 19.14 23.5445 19.3907 24.1631 19.892C24.7925 20.3827 25.2831 21.06 25.6351 21.924C25.9871 22.788 26.1631 23.78 26.1631 24.9C26.1631 26.02 25.9871 27.012 25.6351 27.876C25.2831 28.74 24.7925 29.4227 24.1631 29.924C23.5445 30.4147 22.8245 30.66 22.0031 30.66C21.1818 30.66 20.4565 30.4147 19.8271 29.924C19.2085 29.4227 18.7231 28.74 18.3711 27.876C18.0191 27.012 17.8431 26.02 17.8431 24.9ZM19.2031 24.9C19.2031 25.764 19.3151 26.5373 19.5391 27.22C19.7738 27.892 20.0991 28.42 20.5151 28.804C20.9311 29.188 21.4271 29.38 22.0031 29.38C22.5791 29.38 23.0751 29.188 23.4911 28.804C23.9178 28.42 24.2431 27.892 24.4671 27.22C24.6911 26.5373 24.8031 25.764 24.8031 24.9C24.8031 24.0253 24.6911 23.252 24.4671 22.58C24.2431 21.908 23.9178 21.38 23.4911 20.996C23.0751 20.612 22.5791 20.42 22.0031 20.42C21.4271 20.42 20.9311 20.612 20.5151 20.996C20.0991 21.38 19.7738 21.908 19.5391 22.58C19.3151 23.252 19.2031 24.0253 19.2031 24.9Z" fill="black"/>
</svg>
